{"glyphs":{"0":{"ha":880,"x_min":39,"x_max":841,"o":"m 440 -69 q 227 -1 318 -69 q 87 194 136 68 q 39 494 39 321 q 87 793 39 667 q 227 988 136 920 q 440 1057 318 1057 q 653 988 562 1057 q 792 793 744 920 q 841 494 841 667 q 792 194 841 321 q 653 -1 744 68 q 440 -69 562 -69 m 440 54 q 638 172 566 54 q 710 494 710 290 q 638 816 710 698 q 440 934 566 934 q 246 816 315 934 q 177 494 177 699 q 246 171 177 289 q 440 54 315 54 z "},"1":{"ha":880,"x_min":216,"x_max":586,"o":"m 224 926 l 216 1042 l 540 1042 q 586 995 586 1042 l 586 -54 l 448 -54 l 448 926 l 224 926 z "},"2":{"ha":880,"x_min":69,"x_max":810,"o":"m 478 455 q 609 615 576 559 q 648 741 642 671 q 587 883 642 833 q 440 934 532 934 q 282 894 349 934 q 170 772 216 853 l 77 849 q 231 1005 142 954 q 440 1057 319 1057 q 616 1017 539 1057 q 736 904 693 977 q 779 741 779 832 q 762 622 779 674 q 701 514 744 569 q 579 378 659 458 l 278 62 l 802 62 l 810 -54 l 116 -54 q 69 -8 69 -54 l 69 23 l 478 455 z "},"3":{"ha":880,"x_min":62,"x_max":795,"o":"m 409 -69 q 209 -30 299 -69 q 62 85 119 9 l 154 177 q 256 86 190 119 q 409 54 323 54 q 589 116 520 54 q 664 285 657 177 q 586 454 657 390 q 401 517 515 517 q 285 509 316 517 l 285 586 l 594 926 l 123 926 l 116 1042 l 733 1042 q 779 995 779 1042 l 779 965 l 463 610 q 622 573 545 614 q 747 455 699 532 q 795 278 795 378 q 745 96 795 176 q 608 -26 696 17 q 409 -69 520 -69 z "},"4":{"ha":880,"x_min":23,"x_max":864,"o":"m 424 1042 l 571 1042 l 185 340 l 579 340 l 571 664 l 710 664 l 710 340 l 864 340 l 864 224 l 710 224 l 710 -54 l 571 -54 l 579 224 l 69 224 q 23 270 23 224 l 23 309 l 424 1042 z "},"5":{"ha":880,"x_min":69,"x_max":802,"o":"m 409 -69 q 214 -30 299 -69 q 69 85 128 9 l 154 177 q 256 86 190 119 q 409 54 323 54 q 592 120 520 54 q 664 293 664 185 q 631 421 664 366 q 542 508 599 477 q 417 540 486 540 q 292 519 349 540 q 193 463 235 498 l 131 525 l 177 1042 l 756 1042 l 756 926 l 285 926 l 255 594 q 448 640 324 640 q 632 594 552 640 q 755 467 711 548 q 802 285 798 386 q 748 102 799 182 q 608 -24 696 22 q 409 -69 520 -69 z "},"6":{"ha":880,"x_min":54,"x_max":826,"o":"m 440 -69 q 245 -20 333 -69 q 105 114 156 29 q 54 301 54 199 q 78 436 54 370 q 154 571 102 502 l 502 1042 l 656 1042 l 355 648 q 471 664 414 668 q 644 619 562 665 q 775 491 725 573 q 826 309 826 409 q 775 116 826 202 q 635 -20 724 29 q 440 -69 546 -69 m 440 46 q 566 81 508 46 q 660 176 625 116 q 694 309 694 236 q 660 435 694 377 q 566 529 625 494 q 440 563 508 563 q 316 529 372 563 q 226 435 259 494 q 193 309 193 377 q 225 176 193 236 q 315 81 258 116 q 440 46 372 46 z "},"7":{"ha":880,"x_min":77,"x_max":810,"o":"m 85 926 l 77 1042 l 764 1042 q 810 995 810 1042 l 810 965 l 401 -54 l 262 -54 l 664 926 l 85 926 z "},"8":{"ha":880,"x_min":71,"x_max":810,"o":"m 448 -69 q 251 -29 336 -69 q 120 83 165 11 q 77 247 74 156 q 124 425 71 346 q 270 540 177 505 q 158 631 199 569 q 123 772 117 693 q 160 920 120 855 q 276 1021 201 985 q 448 1057 352 1057 q 606 1019 535 1057 q 716 917 676 981 q 756 772 756 852 q 718 633 756 696 q 617 540 681 569 q 757 425 704 505 q 810 247 810 346 q 765 83 810 156 q 637 -29 719 11 q 448 -69 554 -69 m 448 586 q 581 635 529 586 q 633 764 633 684 q 581 897 633 846 q 448 949 529 949 q 304 897 361 949 q 247 764 247 844 q 303 635 247 684 q 448 586 360 586 m 448 46 q 566 75 512 46 q 649 153 619 103 q 679 262 679 202 q 649 372 679 323 q 566 450 619 421 q 448 478 512 478 q 319 450 375 478 q 235 373 264 421 q 208 262 205 324 q 269 106 202 165 q 448 46 336 46 z "},"9":{"ha":880,"x_min":54,"x_max":826,"o":"m 525 340 q 409 324 466 319 q 236 369 318 323 q 104 497 154 415 q 54 679 54 579 q 106 869 54 782 q 245 1006 157 955 q 440 1057 333 1057 q 635 1008 546 1057 q 775 873 724 958 q 826 687 826 789 q 800 549 826 614 q 725 417 775 485 l 386 -54 l 224 -54 l 525 340 m 440 424 q 567 458 509 424 q 660 549 625 491 q 694 679 694 608 q 660 812 694 752 q 566 907 625 872 q 440 941 508 941 q 316 905 372 941 q 226 809 259 869 q 193 679 193 748 q 226 552 193 611 q 316 459 259 494 q 440 424 372 424 z "}," ":{"ha":424,"x_min":0,"x_max":0,"o":""}," ":{"ha":424,"x_min":0,"x_max":0,"o":""},"A":{"ha":1065,"x_min":31,"x_max":1034,"o":"m 594 1042 l 1034 -54 l 887 -54 l 779 224 l 285 224 l 177 -54 l 31 -54 l 478 1042 l 594 1042 m 532 856 l 332 340 l 733 340 l 532 856 z "},"B":{"ha":957,"x_min":116,"x_max":903,"o":"m 532 1042 q 704 1006 631 1042 q 817 907 778 971 q 856 764 856 844 q 819 626 856 684 q 710 532 781 568 q 851 418 799 491 q 903 255 903 346 q 859 93 903 162 q 733 -15 815 23 q 540 -54 651 -54 l 162 -54 q 116 -8 116 -54 l 116 1042 l 532 1042 m 247 579 l 532 579 q 667 625 616 579 q 718 756 718 671 q 664 881 718 836 q 517 926 611 926 l 247 926 l 247 579 m 247 62 l 540 62 q 702 117 640 62 q 764 262 764 171 q 702 406 764 349 q 548 463 640 463 l 247 463 l 247 62 z "},"C":{"ha":1057,"x_min":62,"x_max":1026,"o":"m 617 -69 q 332 5 458 -69 q 133 208 205 79 q 62 494 62 336 q 133 779 62 650 q 329 982 204 907 q 610 1057 454 1057 q 838 1015 735 1057 q 1019 895 941 972 l 918 802 q 785 898 864 863 q 610 934 705 934 q 399 877 492 934 q 253 721 306 821 q 201 494 201 620 q 253 267 201 367 q 399 110 306 167 q 610 54 492 54 q 926 193 799 54 l 1026 93 q 846 -27 949 15 q 617 -69 742 -69 z "},"D":{"ha":1134,"x_min":116,"x_max":1080,"o":"m 517 1042 q 802 971 673 1042 q 1005 775 931 900 q 1080 494 1080 650 q 1008 213 1080 338 q 808 17 935 88 q 525 -54 681 -54 l 162 -54 q 116 -8 116 -54 l 116 1042 l 517 1042 m 247 69 l 517 69 q 736 123 639 69 q 887 272 833 176 q 941 494 941 369 q 887 715 941 619 q 736 865 833 812 q 517 918 639 918 l 247 918 l 247 69 z "},"E":{"ha":903,"x_min":116,"x_max":856,"o":"m 841 1042 l 841 918 l 247 918 l 247 563 l 802 563 l 802 448 l 247 448 l 247 69 l 849 69 l 856 -54 l 162 -54 q 116 -8 116 -54 l 116 1042 l 841 1042 z "},"F":{"ha":864,"x_min":116,"x_max":818,"o":"m 818 1042 l 818 918 l 247 918 l 247 548 l 795 548 l 795 432 l 247 432 l 247 -54 l 116 -54 l 116 1042 l 818 1042 z "},"G":{"ha":1188,"x_min":62,"x_max":1142,"o":"m 617 -69 q 334 5 461 -69 q 134 209 207 80 q 62 494 62 338 q 135 782 62 654 q 336 984 208 910 q 625 1057 465 1057 q 870 1007 758 1057 q 1057 864 981 957 l 965 764 q 819 890 907 846 q 625 934 730 934 q 404 877 500 934 q 254 721 307 821 q 201 494 201 620 q 253 265 201 364 q 400 110 306 165 q 617 54 495 54 q 879 147 779 54 q 995 409 978 241 l 594 409 l 594 525 l 1142 525 l 1142 509 q 1076 194 1142 324 q 891 -3 1009 63 q 617 -69 773 -69 z "},"H":{"ha":1073,"x_min":116,"x_max":965,"o":"m 247 1042 l 247 571 l 826 571 l 826 1042 l 965 1042 l 965 -54 l 826 -54 l 826 455 l 247 455 l 247 -54 l 116 -54 l 116 1042 l 247 1042 z "},"I":{"ha":363,"x_min":116,"x_max":247,"o":"m 247 1042 l 247 -54 l 116 -54 l 116 1042 l 247 1042 z "},"J":{"ha":756,"x_min":31,"x_max":664,"o":"m 316 -69 q 31 69 145 -69 l 123 154 q 204 78 157 102 q 316 54 252 54 q 464 115 403 54 q 525 285 525 176 l 525 1042 l 664 1042 l 664 293 q 618 99 664 181 q 493 -26 573 17 q 316 -69 414 -69 z "},"K":{"ha":1019,"x_min":116,"x_max":988,"o":"m 247 1042 l 247 540 l 795 1042 l 972 1042 l 401 517 l 988 -54 l 810 -54 l 247 494 l 247 -54 l 116 -54 l 116 1042 l 247 1042 z "},"L":{"ha":841,"x_min":116,"x_max":810,"o":"m 247 1042 l 247 69 l 802 69 l 810 -54 l 162 -54 q 116 -8 116 -54 l 116 1042 l 247 1042 z "},"M":{"ha":1289,"x_min":116,"x_max":1181,"o":"m 216 1042 l 648 340 l 1080 1042 l 1134 1042 q 1181 995 1181 1042 l 1181 -54 l 1042 -54 l 1042 756 l 694 185 l 602 185 l 247 756 l 247 -54 l 116 -54 l 116 1042 l 216 1042 z "},"N":{"ha":1080,"x_min":116,"x_max":972,"o":"m 208 1042 l 833 201 l 833 1042 l 972 1042 l 972 -54 l 872 -54 l 247 787 l 247 -54 l 116 -54 l 116 1042 l 208 1042 z "},"O":{"ha":1227,"x_min":62,"x_max":1165,"o":"m 617 -69 q 334 5 461 -69 q 134 209 207 80 q 62 494 62 338 q 133 779 62 650 q 329 982 204 907 q 610 1057 454 1057 q 893 982 765 1057 q 1093 779 1020 907 q 1165 494 1165 650 q 1093 209 1165 338 q 894 5 1020 80 q 617 -69 769 -69 m 610 54 q 823 111 728 54 q 972 269 918 168 q 1026 494 1026 369 q 972 719 1026 619 q 823 877 918 819 q 610 934 728 934 q 399 877 492 934 q 253 721 306 821 q 201 494 201 620 q 253 267 201 367 q 399 110 306 167 q 610 54 492 54 z "},"P":{"ha":934,"x_min":116,"x_max":880,"o":"m 532 1042 q 711 1001 633 1042 q 835 884 790 960 q 880 710 880 809 q 835 538 880 611 q 711 425 790 465 q 532 386 633 386 l 247 386 l 247 -54 l 116 -54 l 116 1042 l 532 1042 m 247 494 l 517 494 q 683 553 617 494 q 748 710 748 613 q 683 867 748 807 q 517 926 617 926 l 247 926 l 247 494 z "},"Q":{"ha":1250,"x_min":62,"x_max":1242,"o":"m 617 -69 q 334 5 461 -69 q 134 209 207 80 q 62 494 62 338 q 133 779 62 650 q 329 982 204 907 q 610 1057 454 1057 q 893 982 765 1057 q 1093 779 1020 907 q 1165 494 1165 650 q 1136 299 1165 389 q 1049 139 1106 208 l 1242 -54 l 1157 -139 l 965 54 q 804 -37 894 -5 q 617 -69 715 -69 m 610 54 q 751 80 684 54 q 872 154 818 106 l 617 401 l 702 486 l 949 239 q 1026 494 1026 355 q 972 719 1026 619 q 823 877 918 819 q 610 934 728 934 q 399 877 492 934 q 253 721 306 821 q 201 494 201 620 q 253 267 201 367 q 399 110 306 167 q 610 54 492 54 z "},"R":{"ha":972,"x_min":116,"x_max":941,"o":"m 517 1042 q 701 1002 623 1042 q 822 892 779 961 q 864 733 864 823 q 784 525 864 606 q 548 432 704 443 l 941 -54 l 772 -54 l 386 432 l 247 432 l 247 -54 l 116 -54 l 116 1042 l 517 1042 m 247 540 l 509 540 q 668 593 611 540 q 725 733 725 645 q 668 873 725 821 q 509 926 611 926 l 247 926 l 247 540 z "},"S":{"ha":849,"x_min":31,"x_max":795,"o":"m 424 -69 q 31 116 170 -69 l 131 201 q 260 89 190 123 q 432 54 330 54 q 594 99 532 54 q 656 224 656 144 q 623 329 656 287 q 542 394 591 370 q 409 448 492 418 q 250 519 309 486 q 150 612 191 551 q 108 772 108 673 q 201 980 108 903 q 448 1057 295 1057 q 640 1016 554 1057 q 787 903 727 975 l 694 810 q 583 904 642 873 q 448 934 523 934 q 300 894 353 934 q 247 779 247 853 q 278 681 247 721 q 356 618 309 642 q 486 563 403 594 q 647 495 585 528 q 752 397 708 461 q 795 231 795 333 q 697 9 795 88 q 424 -69 599 -69 z "},"T":{"ha":965,"x_min":31,"x_max":934,"o":"m 39 918 l 31 1042 l 934 1042 l 934 918 l 556 918 l 556 -54 l 417 -54 l 417 918 l 39 918 z "},"U":{"ha":1034,"x_min":100,"x_max":934,"o":"m 517 -69 q 304 -15 400 -69 q 154 134 208 39 q 100 347 100 230 l 100 1042 l 231 1042 l 231 347 q 269 194 231 261 q 371 90 306 127 q 517 54 437 54 q 663 90 597 54 q 765 194 728 127 q 802 347 802 261 l 802 1042 l 934 1042 l 934 340 q 880 129 934 222 q 731 -17 826 35 q 517 -69 636 -69 z "},"V":{"ha":1042,"x_min":31,"x_max":1011,"o":"m 177 1042 l 525 154 l 864 1042 l 1011 1042 l 579 -54 l 463 -54 l 31 1042 l 177 1042 z "},"W":{"ha":1520,"x_min":39,"x_max":1489,"o":"m 170 1042 l 440 177 l 710 1042 l 818 1042 l 1080 177 l 1350 1042 l 1489 1042 l 1134 -54 l 1026 -54 l 764 810 l 494 -54 l 386 -54 l 39 1042 l 170 1042 z "},"X":{"ha":1049,"x_min":31,"x_max":1019,"o":"m 54 1042 l 216 1042 l 532 602 l 849 1042 l 1003 1042 l 617 509 l 1019 -54 l 856 -54 l 532 417 l 185 -54 l 31 -54 l 448 509 l 54 1042 z "},"Y":{"ha":1011,"x_min":31,"x_max":980,"o":"m 31 1042 l 185 1042 l 509 563 l 826 1042 l 980 1042 l 579 432 l 579 -54 l 440 -54 l 440 432 l 31 1042 z "},"Z":{"ha":880,"x_min":46,"x_max":833,"o":"m 648 918 l 77 918 l 69 1042 l 787 1042 q 833 995 833 1042 l 833 949 l 224 69 l 818 69 l 826 -54 l 93 -54 q 46 -8 46 -54 l 46 39 l 648 918 z "},"a":{"ha":895,"x_min":39,"x_max":802,"o":"m 409 -69 q 218 -18 302 -69 q 86 123 134 34 q 39 324 39 213 q 88 519 39 431 q 222 659 137 608 q 409 710 307 710 q 566 673 495 710 q 679 571 637 636 l 679 694 l 802 694 l 802 -54 l 679 -54 l 679 69 q 569 -34 639 2 q 409 -69 498 -69 m 432 54 q 610 128 542 54 q 679 324 679 202 q 610 513 679 440 q 432 586 542 586 q 243 513 316 586 q 170 324 170 440 q 243 129 170 204 q 432 54 316 54 z "},"b":{"ha":895,"x_min":85,"x_max":856,"o":"m 216 1073 l 216 579 q 327 676 256 642 q 486 710 398 710 q 674 660 590 710 q 808 522 759 610 q 856 324 856 434 q 808 124 856 215 q 674 -18 759 34 q 486 -69 590 -69 q 329 -32 400 -69 q 216 69 258 5 l 216 -54 l 85 -54 l 85 1073 l 216 1073 m 463 54 q 593 88 535 54 q 684 183 651 122 q 718 324 718 244 q 684 460 718 400 q 593 553 651 520 q 463 586 535 586 q 279 514 349 586 q 208 324 208 441 q 278 128 208 202 q 463 54 347 54 z "},"c":{"ha":741,"x_min":39,"x_max":725,"o":"m 432 -69 q 232 -18 323 -69 q 90 124 142 34 q 39 324 39 215 q 90 519 39 431 q 232 659 142 608 q 432 710 323 710 q 718 594 602 710 l 633 509 q 546 566 597 545 q 432 586 494 586 q 299 553 360 586 q 204 460 239 520 q 170 324 170 400 q 204 184 170 245 q 299 88 239 122 q 432 54 360 54 q 546 76 495 54 q 633 139 597 97 l 725 54 q 432 -69 613 -69 z "},"d":{"ha":895,"x_min":39,"x_max":802,"o":"m 409 -69 q 221 -18 306 -69 q 87 124 136 34 q 39 324 39 215 q 87 522 39 434 q 221 660 136 610 q 409 710 306 710 q 562 676 491 710 q 679 579 633 642 l 679 1073 l 802 1073 l 802 -54 l 679 -54 l 679 69 q 409 -69 586 -69 m 432 54 q 610 128 542 54 q 679 324 679 202 q 610 513 679 440 q 432 586 542 586 q 248 514 318 586 q 177 324 177 441 q 247 128 177 202 q 432 54 316 54 z "},"e":{"ha":818,"x_min":39,"x_max":787,"o":"m 440 -69 q 234 -19 326 -69 q 90 120 142 31 q 39 324 39 210 q 89 519 39 431 q 227 659 139 608 q 424 710 315 710 q 610 664 528 710 q 740 536 693 619 q 787 347 787 454 l 779 278 l 170 278 q 255 108 181 170 q 440 46 329 46 q 565 67 512 46 q 656 139 617 88 l 741 62 q 609 -35 690 -2 q 440 -69 528 -69 m 424 602 q 250 535 319 596 q 170 378 181 475 l 656 378 q 589 542 650 483 q 424 602 528 602 z "},"f":{"ha":594,"x_min":8,"x_max":671,"o":"m 15 579 l 8 694 l 201 694 l 201 810 q 276 1011 201 934 q 478 1088 352 1088 q 671 1003 586 1088 l 594 926 q 545 956 573 948 q 478 965 517 965 q 332 810 332 965 l 332 694 l 579 694 l 579 579 l 332 579 l 332 -54 l 201 -54 l 201 579 l 15 579 z "},"g":{"ha":887,"x_min":39,"x_max":802,"o":"m 409 -46 q 218 3 302 -46 q 86 139 134 52 q 39 332 39 225 q 86 525 39 438 q 215 660 133 611 q 401 710 298 710 q 560 676 489 710 q 671 579 631 642 l 671 694 l 802 694 l 802 -23 q 751 -215 802 -133 q 608 -342 699 -298 q 401 -386 517 -386 q 191 -346 284 -386 q 46 -231 97 -306 l 131 -147 q 401 -262 213 -262 q 598 -200 525 -262 q 671 -23 671 -137 l 671 93 q 560 -8 631 29 q 409 -46 489 -46 m 432 77 q 611 147 543 77 q 679 332 679 216 q 646 468 679 407 q 555 561 613 528 q 424 594 497 594 q 297 559 353 594 q 209 465 241 525 q 177 332 177 404 q 248 149 177 221 q 432 77 318 77 z "},"h":{"ha":826,"x_min":85,"x_max":756,"o":"m 216 1073 l 216 594 q 321 679 258 648 q 463 710 384 710 q 676 627 596 710 q 756 409 756 543 l 756 -54 l 625 -54 l 625 386 q 572 536 625 478 q 432 594 519 594 q 323 566 372 594 q 245 491 273 539 q 216 386 216 443 l 216 -54 l 85 -54 l 85 1073 l 216 1073 z "},"i":{"ha":309,"x_min":69,"x_max":239,"o":"m 154 849 q 93 873 116 849 q 69 934 69 898 q 93 994 69 969 q 154 1019 116 1019 q 215 994 190 1019 q 239 934 239 969 q 215 874 239 900 q 154 849 190 849 m 216 694 l 216 -54 l 85 -54 l 85 694 l 216 694 z "},"j":{"ha":316,"x_min":-224,"x_max":255,"o":"m 162 849 q 103 874 128 849 q 77 934 77 900 q 103 994 77 969 q 162 1019 128 1019 q 228 994 202 1019 q 255 934 255 969 q 228 873 255 898 q 162 849 202 849 m -15 -386 q -224 -301 -151 -386 l -139 -216 q -23 -270 -96 -270 q 64 -237 28 -270 q 100 -139 100 -204 l 100 694 l 231 694 l 231 -139 q 160 -320 231 -255 q -15 -386 88 -386 z "},"k":{"ha":741,"x_min":85,"x_max":741,"o":"m 216 1073 l 216 347 l 563 694 l 725 694 l 355 332 l 741 -54 l 571 -54 l 216 316 l 216 -54 l 85 -54 l 85 1073 l 216 1073 z "},"l":{"ha":301,"x_min":85,"x_max":216,"o":"m 216 1073 l 216 -54 l 85 -54 l 85 1073 l 216 1073 z "},"m":{"ha":1312,"x_min":85,"x_max":1242,"o":"m 216 694 l 216 602 q 316 680 252 650 q 455 710 381 710 q 597 671 535 710 q 694 563 659 633 q 796 671 730 633 q 949 710 863 710 q 1097 674 1031 710 q 1203 570 1164 637 q 1242 417 1242 503 l 1242 -54 l 1111 -54 l 1111 401 q 1057 540 1111 486 q 926 594 1003 594 q 789 540 844 594 q 733 401 733 486 l 733 -54 l 602 -54 l 602 401 q 548 540 602 486 q 417 594 494 594 q 275 540 333 594 q 216 401 216 486 l 216 -54 l 85 -54 l 85 694 l 216 694 z "},"n":{"ha":826,"x_min":85,"x_max":756,"o":"m 216 694 l 216 594 q 325 679 258 648 q 471 710 392 710 q 619 669 554 710 q 720 559 684 628 q 756 409 756 489 l 756 -54 l 625 -54 l 625 386 q 572 536 625 478 q 432 594 519 594 q 323 566 372 594 q 245 491 273 539 q 216 386 216 443 l 216 -54 l 85 -54 l 85 694 l 216 694 z "},"o":{"ha":864,"x_min":39,"x_max":826,"o":"m 432 -69 q 232 -18 323 -69 q 90 124 142 34 q 39 324 39 215 q 90 519 39 431 q 232 659 142 608 q 432 710 323 710 q 629 658 539 710 q 772 519 719 606 q 826 324 826 431 q 772 124 826 215 q 629 -18 719 34 q 432 -69 539 -69 m 432 54 q 565 90 505 54 q 660 187 625 125 q 694 324 694 248 q 660 460 694 400 q 565 553 625 520 q 432 586 505 586 q 296 552 356 586 q 203 457 236 517 q 170 324 170 397 q 243 129 170 204 q 432 54 316 54 z "},"p":{"ha":895,"x_min":85,"x_max":856,"o":"m 216 694 l 216 579 q 327 676 256 642 q 486 710 398 710 q 674 660 590 710 q 808 522 759 610 q 856 324 856 434 q 808 124 856 215 q 674 -18 759 34 q 486 -69 590 -69 q 327 -35 398 -69 q 216 62 256 -2 l 216 -370 l 85 -370 l 85 694 l 216 694 m 463 54 q 593 88 535 54 q 684 183 651 122 q 718 324 718 244 q 684 460 718 400 q 593 553 651 520 q 463 586 535 586 q 279 514 349 586 q 208 324 208 441 q 242 183 208 244 q 333 88 275 122 q 463 54 390 54 z "},"q":{"ha":895,"x_min":39,"x_max":802,"o":"m 417 -69 q 224 -18 310 -69 q 88 123 137 34 q 39 324 39 213 q 88 519 39 431 q 222 659 137 608 q 409 710 307 710 q 566 673 495 710 q 679 571 637 636 l 679 694 l 802 694 l 802 -370 l 679 -370 l 679 69 q 572 -35 639 0 q 417 -69 505 -69 m 432 54 q 610 128 542 54 q 679 324 679 202 q 610 513 679 440 q 432 586 542 586 q 248 514 318 586 q 177 324 177 441 q 247 128 177 202 q 432 54 316 54 z "},"r":{"ha":617,"x_min":85,"x_max":617,"o":"m 216 694 l 216 602 q 307 682 252 654 q 432 710 363 710 q 533 691 489 710 q 617 633 577 673 l 532 540 q 469 580 500 566 q 401 594 438 594 q 267 537 318 594 q 216 378 216 480 l 216 -54 l 85 -54 l 85 694 l 216 694 z "},"s":{"ha":640,"x_min":23,"x_max":610,"o":"m 324 -69 q 23 62 131 -69 l 100 147 q 324 46 179 46 q 438 71 397 46 q 478 147 478 96 q 438 225 478 199 q 309 278 397 250 q 185 321 233 299 q 103 387 137 343 q 69 502 69 431 q 140 653 69 596 q 332 710 211 710 q 492 681 420 710 q 610 594 563 651 l 525 509 q 441 579 491 556 q 332 602 390 602 q 229 573 265 602 q 193 502 193 545 q 234 427 193 452 q 363 378 275 403 q 486 336 438 356 q 568 271 534 315 q 602 154 602 227 q 525 -9 602 51 q 324 -69 448 -69 z "},"t":{"ha":532,"x_min":8,"x_max":517,"o":"m 15 579 l 8 694 l 201 694 l 201 1011 l 332 1011 l 332 694 l 517 694 l 517 579 l 332 579 l 332 -54 l 201 -54 l 201 579 l 15 579 z "},"u":{"ha":779,"x_min":69,"x_max":718,"o":"m 394 -69 q 225 -29 298 -69 q 110 88 151 12 q 69 262 69 164 l 69 694 l 201 694 l 201 262 q 251 109 201 164 q 394 54 301 54 q 534 110 481 54 q 586 262 586 165 l 586 694 l 718 694 l 718 262 q 675 89 718 164 q 559 -28 633 14 q 394 -69 486 -69 z "},"v":{"ha":779,"x_min":0,"x_max":779,"o":"m 147 694 l 394 123 l 640 694 l 779 694 l 440 -54 l 347 -54 l 0 694 l 147 694 z "},"w":{"ha":1157,"x_min":8,"x_max":1150,"o":"m 139 694 l 332 147 l 532 694 l 625 694 l 818 147 l 1011 694 l 1150 694 l 872 -54 l 772 -54 l 579 486 l 378 -54 l 293 -54 l 8 694 l 139 694 z "},"x":{"ha":764,"x_min":8,"x_max":748,"o":"m 23 694 l 185 694 l 386 424 l 586 694 l 741 694 l 463 332 l 748 -54 l 594 -54 l 378 239 l 162 -54 l 8 -54 l 301 332 l 23 694 z "},"y":{"ha":772,"x_min":8,"x_max":764,"o":"m 8 694 l 154 694 l 378 131 l 625 694 l 764 694 l 417 -54 l 278 -370 l 139 -370 l 309 -8 l 8 694 z "},"z":{"ha":671,"x_min":23,"x_max":640,"o":"m 455 586 l 54 586 l 46 694 l 594 694 q 640 648 640 694 l 640 625 l 216 62 l 633 62 l 640 -54 l 69 -54 q 23 -8 23 -54 l 23 15 l 455 586 z "},"ㄱ":{"ha":1250,"x_min":201,"x_max":1057,"o":"m 1057 162 l 934 162 l 934 694 l 201 694 l 201 810 l 1057 810 l 1057 162 z "},"ﾡ":{"ha":1250,"x_min":201,"x_max":1057,"o":"m 1057 162 l 934 162 l 934 694 l 201 694 l 201 810 l 1057 810 l 1057 162 z "},"ㄲ":{"ha":1250,"x_min":139,"x_max":1096,"o":"m 586 162 l 463 162 l 463 694 l 139 694 l 139 810 l 586 810 l 586 162 m 1096 162 l 972 162 l 972 694 l 671 694 l 671 810 l 1096 810 l 1096 162 z "},"ﾢ":{"ha":1250,"x_min":139,"x_max":1096,"o":"m 586 162 l 463 162 l 463 694 l 139 694 l 139 810 l 586 810 l 586 162 m 1096 162 l 972 162 l 972 694 l 671 694 l 671 810 l 1096 810 l 1096 162 z "},"ㄳ":{"ha":1250,"x_min":139,"x_max":1235,"o":"m 586 162 l 463 162 l 463 694 l 139 694 l 139 810 l 586 810 l 586 162 m 980 826 l 980 687 q 1017 498 980 579 q 1107 363 1054 417 q 1235 255 1160 309 l 1150 162 q 1015 284 1071 224 q 917 429 958 344 q 819 282 875 343 q 687 154 764 221 l 602 247 q 786 431 716 330 q 856 687 856 532 l 856 826 l 980 826 z "},"ﾣ":{"ha":1250,"x_min":139,"x_max":1235,"o":"m 586 162 l 463 162 l 463 694 l 139 694 l 139 810 l 586 810 l 586 162 m 980 826 l 980 687 q 1017 498 980 579 q 1107 363 1054 417 q 1235 255 1160 309 l 1150 162 q 1015 284 1071 224 q 917 429 958 344 q 819 282 875 343 q 687 154 764 221 l 602 247 q 786 431 716 330 q 856 687 856 532 l 856 826 l 980 826 z "},"ㄴ":{"ha":1250,"x_min":201,"x_max":1073,"o":"m 324 810 l 324 285 l 1065 285 l 1073 162 l 247 162 q 201 208 201 162 l 201 810 l 324 810 z "},"ﾤ":{"ha":1250,"x_min":201,"x_max":1073,"o":"m 324 810 l 324 285 l 1065 285 l 1073 162 l 247 162 q 201 208 201 162 l 201 810 l 324 810 z "},"ㄵ":{"ha":1250,"x_min":162,"x_max":1188,"o":"m 1111 170 q 989 272 1049 210 q 889 414 929 333 q 785 267 846 330 q 664 162 725 204 l 599 233 l 602 193 q 424 168 517 174 q 208 162 330 162 q 162 208 162 162 l 162 810 l 285 810 l 285 278 q 594 309 449 275 l 597 255 q 763 417 693 319 q 833 633 833 515 l 833 694 l 617 694 l 617 810 l 1157 810 l 1157 694 l 949 694 l 949 633 q 1020 415 949 512 q 1188 255 1091 318 l 1111 170 z "},"ﾥ":{"ha":1250,"x_min":162,"x_max":1188,"o":"m 1111 170 q 989 272 1049 210 q 889 414 929 333 q 785 267 846 330 q 664 162 725 204 l 599 233 l 602 193 q 424 168 517 174 q 208 162 330 162 q 162 208 162 162 l 162 810 l 285 810 l 285 278 q 594 309 449 275 l 597 255 q 763 417 693 319 q 833 633 833 515 l 833 694 l 617 694 l 617 810 l 1157 810 l 1157 694 l 949 694 l 949 633 q 1020 415 949 512 q 1188 255 1091 318 l 1111 170 z "},"ㄶ":{"ha":1250,"x_min":162,"x_max":1165,"o":"m 162 810 l 285 810 l 285 278 q 586 309 454 275 l 594 193 q 208 162 438 165 q 162 208 162 162 l 162 810 m 926 880 l 926 748 l 1165 748 l 1165 640 l 579 640 l 579 748 l 810 748 l 810 880 l 926 880 m 872 147 q 681 205 752 147 q 610 363 610 264 q 681 518 610 457 q 872 579 753 579 q 1002 550 944 579 q 1093 472 1060 522 q 1127 363 1127 423 q 1055 206 1127 265 q 872 147 983 147 m 872 247 q 974 272 935 241 q 1019 363 1012 304 q 974 447 1012 415 q 872 478 935 478 q 761 446 802 478 q 725 363 719 414 q 761 273 719 306 q 872 247 802 241 z "},"ﾦ":{"ha":1250,"x_min":162,"x_max":1165,"o":"m 162 810 l 285 810 l 285 278 q 586 309 454 275 l 594 193 q 208 162 438 165 q 162 208 162 162 l 162 810 m 926 880 l 926 748 l 1165 748 l 1165 640 l 579 640 l 579 748 l 810 748 l 810 880 l 926 880 m 872 147 q 681 205 752 147 q 610 363 610 264 q 681 518 610 457 q 872 579 753 579 q 1002 550 944 579 q 1093 472 1060 522 q 1127 363 1127 423 q 1055 206 1127 265 q 872 147 983 147 m 872 247 q 974 272 935 241 q 1019 363 1012 304 q 974 447 1012 415 q 872 478 935 478 q 761 446 802 478 q 725 363 719 414 q 761 273 719 306 q 872 247 802 241 z "},"ㄷ":{"ha":1250,"x_min":201,"x_max":1065,"o":"m 1057 810 l 1057 694 l 324 694 l 324 278 l 1057 278 l 1065 162 l 247 162 q 201 208 201 162 l 201 810 l 1057 810 z "},"ﾧ":{"ha":1250,"x_min":201,"x_max":1065,"o":"m 1057 810 l 1057 694 l 324 694 l 324 278 l 1057 278 l 1065 162 l 247 162 q 201 208 201 162 l 201 810 l 1057 810 z "},"ㄸ":{"ha":1250,"x_min":131,"x_max":1134,"o":"m 131 810 l 571 810 l 571 694 l 247 694 l 247 278 l 131 278 l 131 810 m 131 278 q 165 277 148 276 q 201 278 182 278 l 239 278 q 586 309 401 278 l 594 193 q 231 162 401 160 q 205 161 219 160 q 177 162 191 162 q 131 208 131 162 l 131 278 m 1127 810 l 1127 694 l 764 694 l 764 285 l 1134 285 l 1134 170 l 648 170 l 648 810 l 1127 810 z "},"ﾨ":{"ha":1250,"x_min":131,"x_max":1134,"o":"m 131 810 l 571 810 l 571 694 l 247 694 l 247 278 l 131 278 l 131 810 m 131 278 q 165 277 148 276 q 201 278 182 278 l 239 278 q 586 309 401 278 l 594 193 q 231 162 401 160 q 205 161 219 160 q 177 162 191 162 q 131 208 131 162 l 131 278 m 1127 810 l 1127 694 l 764 694 l 764 285 l 1134 285 l 1134 170 l 648 170 l 648 810 l 1127 810 z "},"ㄹ":{"ha":1250,"x_min":154,"x_max":1127,"o":"m 1103 810 l 1103 432 l 278 432 l 278 278 l 1119 278 l 1127 162 l 201 162 q 154 208 154 162 l 154 540 l 980 540 l 980 702 l 154 702 l 154 810 l 1103 810 z "},"ﾩ":{"ha":1250,"x_min":154,"x_max":1127,"o":"m 1103 810 l 1103 432 l 278 432 l 278 278 l 1119 278 l 1127 162 l 201 162 q 154 208 154 162 l 154 540 l 980 540 l 980 702 l 154 702 l 154 810 l 1103 810 z "},"ㄺ":{"ha":1250,"x_min":154,"x_max":1088,"o":"m 154 810 l 610 810 l 610 440 l 278 440 l 278 276 q 733 316 563 276 l 748 208 q 201 162 542 164 q 154 208 154 162 l 154 548 l 486 548 l 486 702 l 154 702 l 154 810 m 1088 162 l 965 162 l 965 694 l 671 694 l 671 810 l 1088 810 l 1088 162 z "},"ﾪ":{"ha":1250,"x_min":154,"x_max":1088,"o":"m 154 810 l 610 810 l 610 440 l 278 440 l 278 276 q 733 316 563 276 l 748 208 q 201 162 542 164 q 154 208 154 162 l 154 548 l 486 548 l 486 702 l 154 702 l 154 810 m 1088 162 l 965 162 l 965 694 l 671 694 l 671 810 l 1088 810 l 1088 162 z "},"ㄻ":{"ha":1250,"x_min":154,"x_max":1103,"o":"m 1103 810 l 1103 162 l 687 162 l 687 810 l 1103 810 m 988 278 l 988 702 l 795 702 l 795 278 l 988 278 m 154 810 l 610 810 l 610 440 l 278 440 l 278 275 q 640 301 503 275 l 648 193 q 201 162 491 165 q 154 208 154 162 l 154 548 l 486 548 l 486 702 l 154 702 l 154 810 z "},"ﾫ":{"ha":1250,"x_min":154,"x_max":1103,"o":"m 1103 810 l 1103 162 l 687 162 l 687 810 l 1103 810 m 988 278 l 988 702 l 795 702 l 795 278 l 988 278 m 154 810 l 610 810 l 610 440 l 278 440 l 278 275 q 640 301 503 275 l 648 193 q 201 162 491 165 q 154 208 154 162 l 154 548 l 486 548 l 486 702 l 154 702 l 154 810 z "},"ㄼ":{"ha":1250,"x_min":154,"x_max":1103,"o":"m 154 810 l 610 810 l 610 440 l 278 440 l 278 275 q 640 301 503 275 l 648 193 q 201 162 491 165 q 154 208 154 162 l 154 548 l 486 548 l 486 710 l 154 710 l 154 810 m 795 810 l 795 602 l 988 602 l 988 810 l 1103 810 l 1103 162 l 687 162 l 687 810 l 795 810 m 988 278 l 988 494 l 795 494 l 795 278 l 988 278 z "},"ﾬ":{"ha":1250,"x_min":154,"x_max":1103,"o":"m 154 810 l 610 810 l 610 440 l 278 440 l 278 275 q 640 301 503 275 l 648 193 q 201 162 491 165 q 154 208 154 162 l 154 548 l 486 548 l 486 710 l 154 710 l 154 810 m 795 810 l 795 602 l 988 602 l 988 810 l 1103 810 l 1103 162 l 687 162 l 687 810 l 795 810 m 988 278 l 988 494 l 795 494 l 795 278 l 988 278 z "},"ㄽ":{"ha":1250,"x_min":154,"x_max":1219,"o":"m 980 833 l 980 671 q 1051 425 980 537 q 1219 255 1122 313 l 1127 162 q 1013 270 1071 202 q 917 421 955 338 q 819 263 877 332 q 702 154 761 194 l 627 238 l 633 193 q 451 168 549 174 q 201 162 352 162 q 154 208 154 162 l 154 548 l 486 548 l 486 702 l 154 702 l 154 810 l 610 810 l 610 440 l 278 440 l 278 276 q 617 301 435 276 l 625 252 q 787 424 718 310 q 856 671 856 539 l 856 833 l 980 833 z "},"ﾭ":{"ha":1250,"x_min":154,"x_max":1219,"o":"m 980 833 l 980 671 q 1051 425 980 537 q 1219 255 1122 313 l 1127 162 q 1013 270 1071 202 q 917 421 955 338 q 819 263 877 332 q 702 154 761 194 l 627 238 l 633 193 q 451 168 549 174 q 201 162 352 162 q 154 208 154 162 l 154 548 l 486 548 l 486 702 l 154 702 l 154 810 l 610 810 l 610 440 l 278 440 l 278 276 q 617 301 435 276 l 625 252 q 787 424 718 310 q 856 671 856 539 l 856 833 l 980 833 z "},"ㄾ":{"ha":1250,"x_min":154,"x_max":1127,"o":"m 154 810 l 610 810 l 610 440 l 278 440 l 278 275 q 640 301 503 275 l 648 193 q 456 168 562 174 q 201 162 350 162 q 154 208 154 162 l 154 548 l 486 548 l 486 702 l 154 702 l 154 810 m 1111 810 l 1111 702 l 802 702 l 802 548 l 1103 548 l 1103 440 l 802 440 l 802 278 l 1127 278 l 1127 162 l 687 162 l 687 810 l 1111 810 z "},"ﾮ":{"ha":1250,"x_min":154,"x_max":1127,"o":"m 154 810 l 610 810 l 610 440 l 278 440 l 278 275 q 640 301 503 275 l 648 193 q 456 168 562 174 q 201 162 350 162 q 154 208 154 162 l 154 548 l 486 548 l 486 702 l 154 702 l 154 810 m 1111 810 l 1111 702 l 802 702 l 802 548 l 1103 548 l 1103 440 l 802 440 l 802 278 l 1127 278 l 1127 162 l 687 162 l 687 810 l 1111 810 z "},"ㄿ":{"ha":1250,"x_min":154,"x_max":1134,"o":"m 747 301 l 735 694 l 648 694 l 648 810 l 1127 810 l 1127 694 l 1056 694 l 1043 301 l 1134 301 l 1134 185 l 671 185 l 671 301 l 747 301 m 154 810 l 610 810 l 610 440 l 278 440 l 278 272 l 347 270 q 640 301 514 270 l 648 193 q 461 168 566 174 q 201 162 356 162 q 154 208 154 162 l 154 548 l 486 548 l 486 702 l 154 702 l 154 810 m 941 301 l 949 694 l 841 694 l 849 301 l 941 301 z "},"ﾯ":{"ha":1250,"x_min":154,"x_max":1134,"o":"m 747 301 l 735 694 l 648 694 l 648 810 l 1127 810 l 1127 694 l 1056 694 l 1043 301 l 1134 301 l 1134 185 l 671 185 l 671 301 l 747 301 m 154 810 l 610 810 l 610 440 l 278 440 l 278 272 l 347 270 q 640 301 514 270 l 648 193 q 461 168 566 174 q 201 162 356 162 q 154 208 154 162 l 154 548 l 486 548 l 486 702 l 154 702 l 154 810 m 941 301 l 949 694 l 841 694 l 849 301 l 941 301 z "},"ㅀ":{"ha":1250,"x_min":154,"x_max":1173,"o":"m 965 887 l 965 756 l 1173 756 l 1173 640 l 633 640 l 633 756 l 841 756 l 841 887 l 965 887 m 903 147 q 729 201 795 140 q 664 363 664 262 q 728 514 664 455 q 903 579 793 573 q 1075 513 1008 573 q 1142 363 1142 454 q 1111 247 1142 298 q 1025 170 1080 196 q 903 147 971 144 m 903 247 q 991 279 955 247 q 1026 363 1026 312 q 991 440 1026 409 q 903 471 955 471 q 809 440 846 471 q 772 363 772 409 q 808 279 772 310 q 903 247 844 247 m 154 810 l 610 810 l 610 440 l 278 440 l 278 275 q 340 278 321 275 l 394 278 q 640 301 543 278 l 648 193 q 460 168 566 174 q 201 162 353 162 q 154 208 154 162 l 154 548 l 486 548 l 486 702 l 154 702 l 154 810 z "},"ﾰ":{"ha":1250,"x_min":154,"x_max":1173,"o":"m 965 887 l 965 756 l 1173 756 l 1173 640 l 633 640 l 633 756 l 841 756 l 841 887 l 965 887 m 903 147 q 729 201 795 140 q 664 363 664 262 q 728 514 664 455 q 903 579 793 573 q 1075 513 1008 573 q 1142 363 1142 454 q 1111 247 1142 298 q 1025 170 1080 196 q 903 147 971 144 m 903 247 q 991 279 955 247 q 1026 363 1026 312 q 991 440 1026 409 q 903 471 955 471 q 809 440 846 471 q 772 363 772 409 q 808 279 772 310 q 903 247 844 247 m 154 810 l 610 810 l 610 440 l 278 440 l 278 275 q 340 278 321 275 l 394 278 q 640 301 543 278 l 648 193 q 460 168 566 174 q 201 162 353 162 q 154 208 154 162 l 154 548 l 486 548 l 486 702 l 154 702 l 154 810 z "},"ㅁ":{"ha":1250,"x_min":193,"x_max":1057,"o":"m 1057 810 l 1057 162 l 239 162 q 193 208 193 162 l 193 810 l 1057 810 m 934 278 l 934 694 l 316 694 l 316 278 l 934 278 z "},"ﾱ":{"ha":1250,"x_min":193,"x_max":1057,"o":"m 1057 810 l 1057 162 l 239 162 q 193 208 193 162 l 193 810 l 1057 810 m 934 278 l 934 694 l 316 694 l 316 278 l 934 278 z "},"ㅂ":{"ha":1250,"x_min":201,"x_max":1057,"o":"m 324 810 l 324 602 l 934 602 l 934 810 l 1057 810 l 1057 162 l 247 162 q 201 208 201 162 l 201 810 l 324 810 m 934 278 l 934 494 l 324 494 l 324 278 l 934 278 z "},"ﾲ":{"ha":1250,"x_min":201,"x_max":1057,"o":"m 324 810 l 324 602 l 934 602 l 934 810 l 1057 810 l 1057 162 l 247 162 q 201 208 201 162 l 201 810 l 324 810 m 934 278 l 934 494 l 324 494 l 324 278 l 934 278 z "},"ㅃ":{"ha":1250,"x_min":177,"x_max":1080,"o":"m 293 810 l 293 602 l 571 602 l 571 810 l 687 810 l 687 602 l 965 602 l 965 810 l 1080 810 l 1080 162 l 224 162 q 177 208 177 162 l 177 810 l 293 810 m 571 278 l 571 494 l 293 494 l 293 278 l 571 278 m 965 278 l 965 494 l 687 494 l 687 278 l 965 278 z "},"ﾳ":{"ha":1250,"x_min":177,"x_max":1080,"o":"m 293 810 l 293 602 l 571 602 l 571 810 l 687 810 l 687 602 l 965 602 l 965 810 l 1080 810 l 1080 162 l 224 162 q 177 208 177 162 l 177 810 l 293 810 m 571 278 l 571 494 l 293 494 l 293 278 l 571 278 m 965 278 l 965 494 l 687 494 l 687 278 l 965 278 z "},"ㅄ":{"ha":1250,"x_min":154,"x_max":1219,"o":"m 262 810 l 262 602 l 494 602 l 494 810 l 610 810 l 610 162 l 154 162 l 154 810 l 262 810 m 494 270 l 494 502 l 262 502 l 262 270 l 494 270 m 980 826 l 980 671 q 1050 410 980 522 q 1219 239 1120 299 l 1127 147 q 1008 264 1062 202 q 917 407 955 326 q 702 139 847 256 l 617 231 q 856 671 856 407 l 856 826 l 980 826 z "},"ﾴ":{"ha":1250,"x_min":154,"x_max":1219,"o":"m 262 810 l 262 602 l 494 602 l 494 810 l 610 810 l 610 162 l 154 162 l 154 810 l 262 810 m 494 270 l 494 502 l 262 502 l 262 270 l 494 270 m 980 826 l 980 671 q 1050 410 980 522 q 1219 239 1120 299 l 1127 147 q 1008 264 1062 202 q 917 407 955 326 q 702 139 847 256 l 617 231 q 856 671 856 407 l 856 826 l 980 826 z "},"ㅅ":{"ha":1250,"x_min":162,"x_max":1088,"o":"m 694 826 l 694 702 q 809 444 694 556 q 1088 255 923 333 l 1034 147 q 802 280 912 199 q 627 474 691 361 q 451 275 560 358 q 224 139 341 193 l 162 247 q 443 436 323 316 q 563 702 563 556 l 563 826 l 694 826 z "},"ﾵ":{"ha":1250,"x_min":162,"x_max":1088,"o":"m 694 826 l 694 702 q 809 444 694 556 q 1088 255 923 333 l 1034 147 q 802 280 912 199 q 627 474 691 361 q 451 275 560 358 q 224 139 341 193 l 162 247 q 443 436 323 316 q 563 702 563 556 l 563 826 l 694 826 z "},"ㅆ":{"ha":1250,"x_min":39,"x_max":1219,"o":"m 39 247 q 309 702 309 444 l 309 826 l 432 826 l 432 702 q 489 481 432 585 q 628 306 546 378 q 763 481 708 377 q 818 702 818 585 l 818 826 l 941 826 l 941 702 q 1023 438 941 551 q 1219 255 1105 326 l 1134 154 q 880 446 958 275 q 756 259 830 341 q 625 147 682 177 q 493 262 565 184 q 373 443 421 341 q 265 279 329 347 q 123 147 202 210 l 39 247 z "},"ﾶ":{"ha":1250,"x_min":39,"x_max":1219,"o":"m 39 247 q 309 702 309 444 l 309 826 l 432 826 l 432 702 q 489 481 432 585 q 628 306 546 378 q 763 481 708 377 q 818 702 818 585 l 818 826 l 941 826 l 941 702 q 1023 438 941 551 q 1219 255 1105 326 l 1134 154 q 880 446 958 275 q 756 259 830 341 q 625 147 682 177 q 493 262 565 184 q 373 443 421 341 q 265 279 329 347 q 123 147 202 210 l 39 247 z "},"ㅇ":{"ha":1250,"x_min":174,"x_max":1080,"o":"m 625 147 q 387 188 491 147 q 229 307 284 230 q 177 486 174 384 q 229 665 174 588 q 387 786 284 742 q 625 833 491 830 q 861 787 759 830 q 1020 667 963 744 q 1080 486 1077 590 q 1020 306 1077 383 q 861 188 963 230 q 625 147 759 147 m 625 270 q 853 329 765 270 q 941 486 941 389 q 856 644 941 583 q 625 710 770 704 q 394 644 478 704 q 316 486 310 583 q 351 373 313 421 q 461 297 389 324 q 625 270 532 270 z "},"ﾷ":{"ha":1250,"x_min":174,"x_max":1080,"o":"m 625 147 q 387 188 491 147 q 229 307 284 230 q 177 486 174 384 q 229 665 174 588 q 387 786 284 742 q 625 833 491 830 q 861 787 759 830 q 1020 667 963 744 q 1080 486 1077 590 q 1020 306 1077 383 q 861 188 963 230 q 625 147 759 147 m 625 270 q 853 329 765 270 q 941 486 941 389 q 856 644 941 583 q 625 710 770 704 q 394 644 478 704 q 316 486 310 583 q 351 373 313 421 q 461 297 389 324 q 625 270 532 270 z "},"ㅈ":{"ha":1250,"x_min":100,"x_max":1157,"o":"m 100 239 q 308 329 202 272 q 488 471 414 387 q 563 656 563 556 l 563 694 l 162 694 l 162 810 l 1096 810 l 1096 694 l 694 694 l 694 656 q 769 473 694 556 q 948 335 843 390 q 1157 247 1052 279 l 1088 147 q 830 261 958 187 q 630 448 702 335 q 422 252 556 332 q 170 139 289 173 l 100 239 z "},"ﾸ":{"ha":1250,"x_min":100,"x_max":1157,"o":"m 100 239 q 308 329 202 272 q 488 471 414 387 q 563 656 563 556 l 563 694 l 162 694 l 162 810 l 1096 810 l 1096 694 l 694 694 l 694 656 q 769 473 694 556 q 948 335 843 390 q 1157 247 1052 279 l 1088 147 q 830 261 958 187 q 630 448 702 335 q 422 252 556 332 q 170 139 289 173 l 100 239 z "},"ㅉ":{"ha":1250,"x_min":69,"x_max":1181,"o":"m 69 239 q 255 400 177 299 q 332 631 332 502 l 332 648 l 332 694 l 131 694 l 123 810 l 610 810 l 610 694 l 448 694 l 448 648 l 448 631 q 628 299 449 449 q 810 648 810 454 l 810 694 l 648 694 l 648 810 l 1127 810 l 1127 694 l 918 694 l 918 648 l 918 631 q 997 403 918 503 q 1181 239 1076 302 l 1111 147 q 863 420 937 267 q 755 266 821 335 q 625 154 690 198 q 497 264 560 198 q 390 412 434 330 q 281 262 349 329 q 139 147 213 194 l 69 239 z "},"ﾹ":{"ha":1250,"x_min":69,"x_max":1181,"o":"m 69 239 q 255 400 177 299 q 332 631 332 502 l 332 648 l 332 694 l 131 694 l 123 810 l 610 810 l 610 694 l 448 694 l 448 648 l 448 631 q 628 299 449 449 q 810 648 810 454 l 810 694 l 648 694 l 648 810 l 1127 810 l 1127 694 l 918 694 l 918 648 l 918 631 q 997 403 918 503 q 1181 239 1076 302 l 1111 147 q 863 420 937 267 q 755 266 821 335 q 625 154 690 198 q 497 264 560 198 q 390 412 434 330 q 281 262 349 329 q 139 147 213 194 l 69 239 z "},"ㅊ":{"ha":1250,"x_min":100,"x_max":1157,"o":"m 694 910 l 694 756 l 1096 756 l 1096 640 l 694 640 l 694 625 q 769 465 694 542 q 953 331 844 387 q 1157 255 1062 275 l 1088 147 q 833 258 961 185 q 630 434 704 332 q 422 248 556 324 q 170 139 289 171 l 100 247 q 301 326 191 269 q 487 462 410 383 q 563 625 563 542 l 563 640 l 162 640 l 162 756 l 563 756 l 563 910 l 694 910 z "},"ﾺ":{"ha":1250,"x_min":100,"x_max":1157,"o":"m 694 910 l 694 756 l 1096 756 l 1096 640 l 694 640 l 694 625 q 769 465 694 542 q 953 331 844 387 q 1157 255 1062 275 l 1088 147 q 833 258 961 185 q 630 434 704 332 q 422 248 556 324 q 170 139 289 171 l 100 247 q 301 326 191 269 q 487 462 410 383 q 563 625 563 542 l 563 640 l 162 640 l 162 756 l 563 756 l 563 910 l 694 910 z "},"ㅋ":{"ha":1250,"x_min":154,"x_max":1080,"o":"m 1080 162 l 965 162 l 965 421 q 594 384 816 398 q 162 370 372 370 l 154 486 q 578 498 349 486 q 965 525 807 509 l 965 694 l 177 694 l 177 810 l 1080 810 l 1080 162 z "},"ﾻ":{"ha":1250,"x_min":154,"x_max":1080,"o":"m 1080 162 l 965 162 l 965 421 q 594 384 816 398 q 162 370 372 370 l 154 486 q 578 498 349 486 q 965 525 807 509 l 965 694 l 177 694 l 177 810 l 1080 810 l 1080 162 z "},"ㅌ":{"ha":1250,"x_min":177,"x_max":1103,"o":"m 1080 810 l 1080 702 l 301 702 l 301 540 l 1073 540 l 1073 432 l 301 432 l 301 278 l 1096 278 l 1103 162 l 224 162 q 177 208 177 162 l 177 810 l 1080 810 z "},"ﾼ":{"ha":1250,"x_min":177,"x_max":1103,"o":"m 1080 810 l 1080 702 l 301 702 l 301 540 l 1073 540 l 1073 432 l 301 432 l 301 278 l 1096 278 l 1103 162 l 224 162 q 177 208 177 162 l 177 810 l 1080 810 z "},"ㅍ":{"ha":1250,"x_min":154,"x_max":1103,"o":"m 383 278 l 366 694 l 177 694 l 177 810 l 1080 810 l 1080 694 l 900 694 l 883 278 l 1103 278 l 1103 162 l 154 162 l 154 278 l 383 278 m 759 278 l 776 694 l 489 694 l 506 278 l 759 278 z "},"ﾽ":{"ha":1250,"x_min":154,"x_max":1103,"o":"m 383 278 l 366 694 l 177 694 l 177 810 l 1080 810 l 1080 694 l 900 694 l 883 278 l 1103 278 l 1103 162 l 154 162 l 154 278 l 383 278 m 759 278 l 776 694 l 489 694 l 506 278 l 759 278 z "},"ㅎ":{"ha":1250,"x_min":139,"x_max":1119,"o":"m 625 147 q 288 200 398 147 q 177 363 177 253 q 289 523 177 468 q 625 579 401 579 q 965 523 849 579 q 1080 363 1080 468 q 625 147 1080 147 m 625 239 q 871 272 785 239 q 957 363 957 304 q 870 447 957 415 q 625 478 784 478 q 384 448 468 478 q 301 363 301 417 q 383 272 301 304 q 625 239 466 239 m 687 880 l 687 764 l 1119 764 l 1119 664 l 139 664 l 139 764 l 563 764 l 563 880 l 687 880 z "},"ﾾ":{"ha":1250,"x_min":139,"x_max":1119,"o":"m 625 147 q 288 200 398 147 q 177 363 177 253 q 289 523 177 468 q 625 579 401 579 q 965 523 849 579 q 1080 363 1080 468 q 625 147 1080 147 m 625 239 q 871 272 785 239 q 957 363 957 304 q 870 447 957 415 q 625 478 784 478 q 384 448 468 478 q 301 363 301 417 q 383 272 301 304 q 625 239 466 239 m 687 880 l 687 764 l 1119 764 l 1119 664 l 139 664 l 139 764 l 563 764 l 563 880 l 687 880 z "},"ㅏ":{"ha":1250,"x_min":471,"x_max":795,"o":"m 602 1134 l 602 664 l 795 664 l 795 540 l 602 540 l 602 -147 l 471 -147 l 471 1134 l 602 1134 z "},"ￂ":{"ha":1250,"x_min":471,"x_max":795,"o":"m 602 1134 l 602 664 l 795 664 l 795 540 l 602 540 l 602 -147 l 471 -147 l 471 1134 l 602 1134 z "},"ㅐ":{"ha":1250,"x_min":432,"x_max":833,"o":"m 548 1134 l 548 656 l 710 656 l 710 1134 l 833 1134 l 833 -147 l 710 -147 l 710 532 l 548 532 l 548 -147 l 432 -147 l 432 1134 l 548 1134 z "},"ￃ":{"ha":1250,"x_min":432,"x_max":833,"o":"m 548 1134 l 548 656 l 710 656 l 710 1134 l 833 1134 l 833 -147 l 710 -147 l 710 532 l 548 532 l 548 -147 l 432 -147 l 432 1134 l 548 1134 z "},"ㅑ":{"ha":1250,"x_min":471,"x_max":795,"o":"m 602 1134 l 602 833 l 795 833 l 795 710 l 602 710 l 602 448 l 795 448 l 795 324 l 602 324 l 602 -147 l 471 -147 l 471 1134 l 602 1134 z "},"ￄ":{"ha":1250,"x_min":471,"x_max":795,"o":"m 602 1134 l 602 833 l 795 833 l 795 710 l 602 710 l 602 448 l 795 448 l 795 324 l 602 324 l 602 -147 l 471 -147 l 471 1134 l 602 1134 z "},"ㅒ":{"ha":1250,"x_min":424,"x_max":826,"o":"m 540 1134 l 540 833 l 702 833 l 702 1134 l 826 1134 l 826 -147 l 702 -147 l 702 324 l 540 324 l 540 -147 l 424 -147 l 424 1134 l 540 1134 m 702 440 l 702 718 l 540 718 l 540 440 l 702 440 z "},"ￅ":{"ha":1250,"x_min":424,"x_max":826,"o":"m 540 1134 l 540 833 l 702 833 l 702 1134 l 826 1134 l 826 -147 l 702 -147 l 702 324 l 540 324 l 540 -147 l 424 -147 l 424 1134 l 540 1134 m 702 440 l 702 718 l 540 718 l 540 440 l 702 440 z "},"ㅓ":{"ha":1250,"x_min":394,"x_max":864,"o":"m 733 671 l 733 1134 l 864 1134 l 864 -147 l 733 -147 l 733 548 l 394 548 l 394 671 l 733 671 z "},"ￆ":{"ha":1250,"x_min":394,"x_max":864,"o":"m 733 671 l 733 1134 l 864 1134 l 864 -147 l 733 -147 l 733 548 l 394 548 l 394 671 l 733 671 z "},"ㅔ":{"ha":1250,"x_min":332,"x_max":934,"o":"m 556 671 l 556 1134 l 679 1134 l 679 -147 l 556 -147 l 556 548 l 332 548 l 332 671 l 556 671 m 934 1134 l 934 -147 l 810 -147 l 810 1134 l 934 1134 z "},"ￇ":{"ha":1250,"x_min":332,"x_max":934,"o":"m 556 671 l 556 1134 l 679 1134 l 679 -147 l 556 -147 l 556 548 l 332 548 l 332 671 l 556 671 m 934 1134 l 934 -147 l 810 -147 l 810 1134 l 934 1134 z "},"ㅕ":{"ha":1250,"x_min":401,"x_max":856,"o":"m 856 1134 l 856 -147 l 725 -147 l 725 324 l 401 324 l 401 448 l 725 448 l 725 710 l 401 710 l 401 833 l 725 833 l 725 1134 l 856 1134 z "},"ￊ":{"ha":1250,"x_min":401,"x_max":856,"o":"m 856 1134 l 856 -147 l 725 -147 l 725 324 l 401 324 l 401 448 l 725 448 l 725 710 l 401 710 l 401 833 l 725 833 l 725 1134 l 856 1134 z "},"ㅖ":{"ha":1250,"x_min":332,"x_max":918,"o":"m 918 1134 l 918 -147 l 795 -147 l 795 1134 l 918 1134 m 664 1134 l 664 -147 l 540 -147 l 540 324 l 332 324 l 332 448 l 540 448 l 540 710 l 332 710 l 332 833 l 540 833 l 540 1134 l 664 1134 z "},"ￋ":{"ha":1250,"x_min":332,"x_max":918,"o":"m 918 1134 l 918 -147 l 795 -147 l 795 1134 l 918 1134 m 664 1134 l 664 -147 l 540 -147 l 540 324 l 332 324 l 332 448 l 540 448 l 540 710 l 332 710 l 332 833 l 540 833 l 540 1134 l 664 1134 z "},"ㅗ":{"ha":1250,"x_min":46,"x_max":1211,"o":"m 563 270 l 563 810 l 694 810 l 694 270 l 1211 270 l 1211 162 l 46 162 l 46 270 l 563 270 z "},"ￌ":{"ha":1250,"x_min":46,"x_max":1211,"o":"m 563 270 l 563 810 l 694 810 l 694 270 l 1211 270 l 1211 162 l 46 162 l 46 270 l 563 270 z "},"ㅘ":{"ha":1250,"x_min":46,"x_max":1250,"o":"m 1088 1134 l 1088 640 l 1250 640 l 1250 509 l 1088 509 l 1088 -147 l 972 -147 l 972 1134 l 1088 1134 m 509 471 l 509 139 q 903 177 773 154 l 903 62 q 603 30 798 45 q 270 15 407 15 l 46 15 l 46 131 l 270 131 l 394 134 l 394 471 l 509 471 z "},"ￍ":{"ha":1250,"x_min":46,"x_max":1250,"o":"m 1088 1134 l 1088 640 l 1250 640 l 1250 509 l 1088 509 l 1088 -147 l 972 -147 l 972 1134 l 1088 1134 m 509 471 l 509 139 q 903 177 773 154 l 903 62 q 603 30 798 45 q 270 15 407 15 l 46 15 l 46 131 l 270 131 l 394 134 l 394 471 l 509 471 z "},"ㅙ":{"ha":1250,"x_min":23,"x_max":1181,"o":"m 864 1134 l 864 640 l 1065 640 l 1065 1134 l 1181 1134 l 1181 -147 l 1065 -147 l 1065 509 l 864 509 l 864 -147 l 756 -147 l 756 1134 l 864 1134 m 386 471 l 386 144 q 679 177 557 157 l 679 62 q 407 29 568 43 q 116 15 247 15 l 23 15 l 23 131 l 116 131 q 278 136 193 131 l 278 471 l 386 471 z "},"ￎ":{"ha":1250,"x_min":23,"x_max":1181,"o":"m 864 1134 l 864 640 l 1065 640 l 1065 1134 l 1181 1134 l 1181 -147 l 1065 -147 l 1065 509 l 864 509 l 864 -147 l 756 -147 l 756 1134 l 864 1134 m 386 471 l 386 144 q 679 177 557 157 l 679 62 q 407 29 568 43 q 116 15 247 15 l 23 15 l 23 131 l 116 131 q 278 136 193 131 l 278 471 l 386 471 z "},"ㅚ":{"ha":1250,"x_min":46,"x_max":1134,"o":"m 509 471 l 509 139 q 895 177 765 154 l 895 62 q 601 30 789 45 q 278 15 414 15 l 46 15 l 46 131 l 278 131 l 394 134 l 394 471 l 509 471 m 1134 1134 l 1134 -147 l 1011 -147 l 1011 1134 l 1134 1134 z "},"ￏ":{"ha":1250,"x_min":46,"x_max":1134,"o":"m 509 471 l 509 139 q 895 177 765 154 l 895 62 q 601 30 789 45 q 278 15 414 15 l 46 15 l 46 131 l 278 131 l 394 134 l 394 471 l 509 471 m 1134 1134 l 1134 -147 l 1011 -147 l 1011 1134 l 1134 1134 z "},"ㅛ":{"ha":1250,"x_min":46,"x_max":1211,"o":"m 347 270 l 347 802 l 471 802 l 471 270 l 787 270 l 787 802 l 903 802 l 903 270 l 1211 270 l 1211 162 l 46 162 l 46 270 l 347 270 z "},"ￒ":{"ha":1250,"x_min":46,"x_max":1211,"o":"m 347 270 l 347 802 l 471 802 l 471 270 l 787 270 l 787 802 l 903 802 l 903 270 l 1211 270 l 1211 162 l 46 162 l 46 270 l 347 270 z "},"ㅜ":{"ha":1250,"x_min":46,"x_max":1211,"o":"m 1211 802 l 1211 694 l 694 694 l 694 162 l 563 162 l 563 694 l 46 694 l 46 802 l 1211 802 z "},"ￓ":{"ha":1250,"x_min":46,"x_max":1211,"o":"m 1211 802 l 1211 694 l 694 694 l 694 162 l 563 162 l 563 694 l 46 694 l 46 802 l 1211 802 z "},"ㅝ":{"ha":1250,"x_min":46,"x_max":1134,"o":"m 1011 208 l 1011 1134 l 1134 1134 l 1134 -147 l 1011 -147 l 1011 116 l 640 116 l 640 208 l 1011 208 m 185 463 q 591 477 390 463 q 926 509 792 491 l 926 394 q 514 356 758 370 l 486 -147 l 363 -147 l 390 350 l 185 347 l 46 347 l 46 463 l 185 463 z "},"ￔ":{"ha":1250,"x_min":46,"x_max":1134,"o":"m 1011 208 l 1011 1134 l 1134 1134 l 1134 -147 l 1011 -147 l 1011 116 l 640 116 l 640 208 l 1011 208 m 185 463 q 591 477 390 463 q 926 509 792 491 l 926 394 q 514 356 758 370 l 486 -147 l 363 -147 l 390 350 l 185 347 l 46 347 l 46 463 l 185 463 z "},"ㅞ":{"ha":1250,"x_min":23,"x_max":1181,"o":"m 1181 1134 l 1181 -147 l 1073 -147 l 1073 1134 l 1181 1134 m 903 1134 l 903 -147 l 802 -147 l 802 31 l 525 31 l 525 116 l 802 116 l 802 1134 l 903 1134 m 139 347 q 459 360 285 347 q 741 394 633 372 l 741 293 q 406 256 619 270 l 386 -147 l 278 -147 l 298 250 l 139 247 l 23 247 l 23 347 l 139 347 z "},"ￕ":{"ha":1250,"x_min":23,"x_max":1181,"o":"m 1181 1134 l 1181 -147 l 1073 -147 l 1073 1134 l 1181 1134 m 903 1134 l 903 -147 l 802 -147 l 802 31 l 525 31 l 525 116 l 802 116 l 802 1134 l 903 1134 m 139 347 q 459 360 285 347 q 741 394 633 372 l 741 293 q 406 256 619 270 l 386 -147 l 278 -147 l 298 250 l 139 247 l 23 247 l 23 347 l 139 347 z "},"ㅟ":{"ha":1250,"x_min":46,"x_max":1134,"o":"m 185 463 q 586 476 390 463 q 918 509 782 489 l 918 401 q 508 364 728 375 l 486 -147 l 370 -147 l 392 358 l 185 355 l 46 355 l 46 463 l 185 463 m 1134 1134 l 1134 -147 l 1011 -147 l 1011 1134 l 1134 1134 z "},"ￖ":{"ha":1250,"x_min":46,"x_max":1134,"o":"m 185 463 q 586 476 390 463 q 918 509 782 489 l 918 401 q 508 364 728 375 l 486 -147 l 370 -147 l 392 358 l 185 355 l 46 355 l 46 463 l 185 463 m 1134 1134 l 1134 -147 l 1011 -147 l 1011 1134 l 1134 1134 z "},"ㅠ":{"ha":1250,"x_min":46,"x_max":1211,"o":"m 1211 802 l 1211 687 l 926 687 l 926 162 l 802 162 l 802 687 l 455 687 l 455 162 l 332 162 l 332 687 l 46 687 l 46 802 l 1211 802 z "},"ￗ":{"ha":1250,"x_min":46,"x_max":1211,"o":"m 1211 802 l 1211 687 l 926 687 l 926 162 l 802 162 l 802 687 l 455 687 l 455 162 l 332 162 l 332 687 l 46 687 l 46 802 l 1211 802 z "},"ㅡ":{"ha":1250,"x_min":46,"x_max":1211,"o":"m 1204 548 l 1211 432 l 46 432 l 46 548 l 1204 548 z "},"ￚ":{"ha":1250,"x_min":46,"x_max":1211,"o":"m 1204 548 l 1211 432 l 46 432 l 46 548 l 1204 548 z "},"ㅢ":{"ha":1250,"x_min":62,"x_max":1134,"o":"m 185 116 q 573 130 343 116 q 918 162 802 145 l 918 46 q 573 15 802 29 q 185 0 343 0 l 62 0 l 62 116 l 185 116 m 1134 1134 l 1134 -147 l 1011 -147 l 1011 1134 l 1134 1134 z "},"ￛ":{"ha":1250,"x_min":62,"x_max":1134,"o":"m 185 116 q 573 130 343 116 q 918 162 802 145 l 918 46 q 573 15 802 29 q 185 0 343 0 l 62 0 l 62 116 l 185 116 m 1134 1134 l 1134 -147 l 1011 -147 l 1011 1134 l 1134 1134 z "},"ㅣ":{"ha":1250,"x_min":563,"x_max":694,"o":"m 694 1134 l 694 -147 l 563 -147 l 563 1134 l 694 1134 z "},"ￜ":{"ha":1250,"x_min":563,"x_max":694,"o":"m 694 1134 l 694 -147 l 563 -147 l 563 1134 l 694 1134 z "},"ᄀ":{"ha":1250,"x_min":46,"x_max":710,"o":"m 664 1034 q 710 988 710 1034 q 543 408 693 639 q 123 46 394 177 l 46 139 q 417 449 279 253 q 576 918 556 645 l 85 918 l 77 1034 l 664 1034 z "},"ᄁ":{"ha":1250,"x_min":23,"x_max":810,"o":"m 432 1034 q 352 501 432 730 q 131 93 272 272 l 23 154 q 226 495 150 310 q 315 918 302 681 l 85 918 l 77 1034 l 432 1034 m 764 1034 q 810 988 810 1034 q 728 425 804 682 q 517 0 651 168 l 409 69 q 605 444 529 222 q 687 918 681 665 l 478 918 l 478 1034 l 764 1034 z "},"ᄂ":{"ha":1250,"x_min":100,"x_max":787,"o":"m 231 1049 l 231 230 q 779 285 535 231 l 787 170 q 147 100 526 105 q 100 147 100 100 l 100 1049 l 231 1049 z "},"ᄃ":{"ha":1250,"x_min":100,"x_max":802,"o":"m 718 1034 l 718 918 l 231 918 l 231 215 q 787 270 543 216 l 802 154 q 502 111 673 127 q 147 93 332 96 q 100 139 100 93 l 100 1034 l 718 1034 z "},"ᄄ":{"ha":1250,"x_min":85,"x_max":880,"o":"m 409 1034 l 409 918 l 208 918 l 208 205 q 401 224 309 207 l 409 116 q 131 93 289 96 q 85 139 85 93 l 85 1034 l 409 1034 m 818 1034 l 818 918 l 586 918 l 586 207 q 872 247 753 210 l 880 139 q 463 93 722 93 l 463 1034 l 818 1034 z "},"ᄅ":{"ha":1250,"x_min":77,"x_max":833,"o":"m 648 1034 q 694 988 694 1034 l 694 525 l 208 525 l 208 215 q 542 231 378 216 q 818 270 705 245 l 833 154 q 131 93 576 96 q 85 139 85 93 l 85 640 l 571 640 l 571 918 l 85 918 l 77 1034 l 648 1034 z "},"ᄆ":{"ha":1250,"x_min":85,"x_max":725,"o":"m 679 1034 q 725 988 725 1034 l 725 93 l 131 93 q 85 139 85 93 l 85 1034 l 679 1034 m 208 918 l 208 208 l 602 208 l 602 918 l 208 918 z "},"ᄇ":{"ha":1250,"x_min":85,"x_max":725,"o":"m 208 1049 l 208 687 l 602 687 l 602 1049 l 725 1049 l 725 93 l 131 93 q 85 139 85 93 l 85 1049 l 208 1049 m 602 208 l 602 571 l 208 571 l 208 208 l 602 208 z "},"ᄈ":{"ha":1250,"x_min":85,"x_max":826,"o":"m 201 1049 l 201 687 l 401 687 l 401 1049 l 509 1049 l 509 687 l 710 687 l 710 1049 l 826 1049 l 826 93 l 131 93 q 85 139 85 93 l 85 1049 l 201 1049 m 401 208 l 401 571 l 201 571 l 201 208 l 401 208 m 710 208 l 710 571 l 509 571 l 509 208 l 710 208 z "},"ᄉ":{"ha":1250,"x_min":0,"x_max":810,"o":"m 471 1049 l 471 787 q 571 430 471 600 q 810 147 671 259 l 725 54 q 549 243 634 127 q 409 495 463 360 q 270 242 356 360 q 93 46 184 123 l 0 139 q 169 310 90 208 q 298 535 248 412 q 347 787 347 659 l 347 1049 l 471 1049 z "},"ᄊ":{"ha":1250,"x_min":-15,"x_max":926,"o":"m -15 116 q 144 417 79 235 q 208 787 208 600 l 208 1049 l 316 1049 l 316 787 q 355 508 316 645 q 454 269 394 370 q 554 510 514 373 q 594 787 594 647 l 594 1049 l 702 1049 l 702 787 q 765 427 702 600 q 926 131 827 255 l 833 62 q 648 421 710 221 q 455 54 582 208 q 348 210 398 119 q 262 414 298 301 q 179 205 228 299 q 77 46 130 111 l -15 116 z "},"ᄋ":{"ha":1250,"x_min":39,"x_max":718,"o":"m 378 46 q 124 174 210 46 q 39 556 39 301 q 378 1073 39 1073 q 718 556 718 1073 q 632 174 718 301 q 378 46 546 46 m 378 154 q 539 255 483 154 q 594 556 594 355 q 539 856 594 756 q 378 957 483 957 q 218 856 273 957 q 162 556 162 756 q 218 255 162 355 q 378 154 273 154 z "},"ᄌ":{"ha":1250,"x_min":0,"x_max":810,"o":"m 0 139 q 245 408 144 242 q 347 756 347 574 l 347 918 l 54 918 l 46 1034 l 764 1034 l 764 918 l 471 918 l 471 756 q 570 414 471 576 q 810 147 670 253 l 725 54 q 549 235 636 122 q 409 478 463 347 q 268 231 355 346 q 93 46 181 116 l 0 139 z "},"ᄍ":{"ha":1250,"x_min":-15,"x_max":926,"o":"m -15 108 q 145 400 82 231 q 208 764 208 569 l 208 918 l 23 918 l 15 1034 l 432 1034 l 432 918 l 316 918 l 316 764 q 354 488 316 616 q 454 262 392 360 q 555 489 515 363 q 594 764 594 616 l 594 918 l 478 918 l 478 1034 l 887 1034 l 887 918 l 702 918 l 702 764 q 763 410 702 568 q 926 131 824 252 l 833 62 q 648 403 705 227 q 455 54 586 215 q 262 395 324 202 q 77 46 201 196 l -15 108 z "},"ᄎ":{"ha":1250,"x_min":8,"x_max":810,"o":"m 8 139 q 252 383 156 245 q 347 710 347 522 l 347 833 l 39 833 l 31 949 l 347 949 l 347 1157 l 471 1157 l 471 949 l 779 949 l 779 833 l 471 833 l 471 710 q 565 388 471 522 q 810 147 659 255 l 725 54 q 546 217 631 122 q 407 429 460 312 q 271 213 355 309 q 93 46 187 117 l 8 139 z "},"ᄏ":{"ha":1250,"x_min":39,"x_max":710,"o":"m 39 648 q 294 659 154 648 q 537 691 434 670 q 576 918 569 798 l 85 918 l 77 1034 l 664 1034 q 710 988 710 1034 q 543 402 693 636 q 116 39 394 168 l 46 147 q 495 579 367 293 q 269 545 392 557 q 54 532 145 532 l 39 648 z "},"ᄐ":{"ha":1250,"x_min":100,"x_max":833,"o":"m 748 1034 l 748 918 l 231 918 l 231 640 l 733 640 l 733 525 l 231 525 l 231 215 q 554 231 395 216 q 826 270 713 245 l 833 154 q 522 111 705 127 q 147 93 340 96 q 100 139 100 93 l 100 1034 l 748 1034 z "},"ᄑ":{"ha":1250,"x_min":31,"x_max":872,"o":"m 810 1034 l 810 918 l 664 918 l 650 233 q 856 262 779 245 l 872 154 q 495 110 739 127 q 31 93 250 93 l 31 208 l 224 210 l 208 918 l 46 918 l 39 1034 l 810 1034 m 347 215 q 525 224 438 218 l 540 918 l 332 918 l 347 215 z "},"ᄒ":{"ha":1250,"x_min":15,"x_max":802,"o":"m 471 1173 l 471 965 l 802 965 l 802 849 l 23 849 l 15 965 l 347 965 l 347 1173 l 471 1173 m 409 15 q 167 110 256 15 q 77 370 77 204 q 118 557 77 477 q 235 681 159 637 q 409 725 310 725 q 646 629 559 725 q 733 370 733 532 q 647 110 733 204 q 409 15 560 15 m 409 123 q 559 192 502 123 q 617 370 617 261 q 559 542 617 475 q 409 610 502 610 q 256 543 312 610 q 201 370 201 477 q 256 191 201 259 q 409 123 312 123 z "},"ᅡ":{"ha":1250,"x_min":957,"x_max":1281,"o":"m 1088 1134 l 1088 664 l 1281 664 l 1281 540 l 1088 540 l 1088 -147 l 957 -147 l 957 1134 l 1088 1134 z "},"ᅢ":{"ha":1250,"x_min":756,"x_max":1157,"o":"m 872 1134 l 872 656 l 1034 656 l 1034 1134 l 1157 1134 l 1157 -147 l 1034 -147 l 1034 532 l 872 532 l 872 -147 l 756 -147 l 756 1134 l 872 1134 z "},"ᅣ":{"ha":1250,"x_min":957,"x_max":1281,"o":"m 1088 1134 l 1088 833 l 1281 833 l 1281 710 l 1088 710 l 1088 448 l 1281 448 l 1281 324 l 1088 324 l 1088 -147 l 957 -147 l 957 1134 l 1088 1134 z "},"ᅤ":{"ha":1250,"x_min":756,"x_max":1157,"o":"m 872 1134 l 872 833 l 1034 833 l 1034 1134 l 1157 1134 l 1157 -147 l 1034 -147 l 1034 324 l 872 324 l 872 -147 l 756 -147 l 756 1134 l 872 1134 m 1034 440 l 1034 718 l 872 718 l 872 440 l 1034 440 z "},"ᅥ":{"ha":1250,"x_min":671,"x_max":1134,"o":"m 1003 671 l 1003 1134 l 1134 1134 l 1134 -147 l 1003 -147 l 1003 548 l 671 548 l 671 671 l 1003 671 z "},"ᅦ":{"ha":1250,"x_min":563,"x_max":1157,"o":"m 779 671 l 779 1134 l 903 1134 l 903 -147 l 779 -147 l 779 548 l 563 548 l 563 671 l 779 671 m 1157 1134 l 1157 -147 l 1034 -147 l 1034 1134 l 1157 1134 z "},"ᅧ":{"ha":1250,"x_min":679,"x_max":1134,"o":"m 1134 1134 l 1134 -147 l 1003 -147 l 1003 324 l 679 324 l 679 448 l 1003 448 l 1003 710 l 679 710 l 679 833 l 1003 833 l 1003 1134 l 1134 1134 z "},"ᅨ":{"ha":1250,"x_min":571,"x_max":1157,"o":"m 1157 1134 l 1157 -147 l 1034 -147 l 1034 1134 l 1157 1134 m 903 1134 l 903 -147 l 779 -147 l 779 324 l 571 324 l 571 448 l 779 448 l 779 710 l 571 710 l 571 833 l 779 833 l 779 1134 l 903 1134 z "},"ᅩ":{"ha":1250,"x_min":46,"x_max":1211,"o":"m 563 62 l 563 440 l 694 440 l 694 62 l 1211 62 l 1211 -46 l 46 -46 l 46 62 l 563 62 z "},"ᅪ":{"ha":1250,"x_min":46,"x_max":1250,"o":"m 1088 1134 l 1088 640 l 1250 640 l 1250 509 l 1088 509 l 1088 -147 l 972 -147 l 972 1134 l 1088 1134 m 509 471 l 509 139 q 903 177 773 154 l 903 62 q 603 30 798 45 q 270 15 407 15 l 46 15 l 46 131 l 270 131 l 394 134 l 394 471 l 509 471 z "},"ᅫ":{"ha":1250,"x_min":23,"x_max":1181,"o":"m 864 1134 l 864 640 l 1065 640 l 1065 1134 l 1181 1134 l 1181 -147 l 1065 -147 l 1065 509 l 864 509 l 864 -147 l 756 -147 l 756 1134 l 864 1134 m 386 471 l 386 144 q 679 177 557 157 l 679 62 q 407 29 568 43 q 116 15 247 15 l 23 15 l 23 131 l 116 131 q 278 136 193 131 l 278 471 l 386 471 z "},"ᅬ":{"ha":1250,"x_min":46,"x_max":1134,"o":"m 509 471 l 509 139 q 895 177 765 154 l 895 62 q 601 30 789 45 q 278 15 414 15 l 46 15 l 46 131 l 278 131 l 394 134 l 394 471 l 509 471 m 1134 1134 l 1134 -147 l 1011 -147 l 1011 1134 l 1134 1134 z "},"ᅭ":{"ha":1250,"x_min":46,"x_max":1211,"o":"m 347 62 l 347 440 l 471 440 l 471 62 l 787 62 l 787 440 l 903 440 l 903 62 l 1211 62 l 1211 -46 l 46 -46 l 46 62 l 347 62 z "},"ᅮ":{"ha":1250,"x_min":46,"x_max":1211,"o":"m 1211 324 l 1211 208 l 694 208 l 694 -162 l 563 -162 l 563 208 l 46 208 l 46 324 l 1211 324 z "},"ᅯ":{"ha":1250,"x_min":46,"x_max":1134,"o":"m 1011 208 l 1011 1134 l 1134 1134 l 1134 -147 l 1011 -147 l 1011 116 l 640 116 l 640 208 l 1011 208 m 185 463 q 591 477 390 463 q 926 509 792 491 l 926 394 q 514 356 758 370 l 486 -147 l 363 -147 l 390 350 l 185 347 l 46 347 l 46 463 l 185 463 z "},"ᅰ":{"ha":1250,"x_min":23,"x_max":1181,"o":"m 1181 1134 l 1181 -147 l 1073 -147 l 1073 1134 l 1181 1134 m 903 1134 l 903 -147 l 802 -147 l 802 31 l 525 31 l 525 116 l 802 116 l 802 1134 l 903 1134 m 139 347 q 459 360 285 347 q 741 394 633 372 l 741 293 q 406 256 619 270 l 386 -147 l 278 -147 l 298 250 l 139 247 l 23 247 l 23 347 l 139 347 z "},"ᅱ":{"ha":1250,"x_min":46,"x_max":1134,"o":"m 185 463 q 586 476 390 463 q 918 509 782 489 l 918 401 q 508 364 728 375 l 486 -147 l 370 -147 l 392 358 l 185 355 l 46 355 l 46 463 l 185 463 m 1134 1134 l 1134 -147 l 1011 -147 l 1011 1134 l 1134 1134 z "},"ᅲ":{"ha":1250,"x_min":46,"x_max":1211,"o":"m 1211 324 l 1211 208 l 926 208 l 926 -162 l 802 -162 l 802 208 l 455 208 l 455 -162 l 332 -162 l 332 208 l 46 208 l 46 324 l 1211 324 z "},"ᅳ":{"ha":1250,"x_min":46,"x_max":1211,"o":"m 1204 85 l 1211 -31 l 46 -31 l 46 85 l 1204 85 z "},"ᅴ":{"ha":1250,"x_min":62,"x_max":1134,"o":"m 185 116 q 573 130 343 116 q 918 162 802 145 l 918 46 q 573 15 802 29 q 185 0 343 0 l 62 0 l 62 116 l 185 116 m 1134 1134 l 1134 -147 l 1011 -147 l 1011 1134 l 1134 1134 z "},"ᅵ":{"ha":1250,"x_min":1003,"x_max":1134,"o":"m 1134 1134 l 1134 -147 l 1003 -147 l 1003 1134 l 1134 1134 z "},"ᆨ":{"ha":1250,"x_min":154,"x_max":1080,"o":"m 1080 -162 l 965 -162 l 965 162 l 154 162 l 154 270 l 1080 270 l 1080 -162 z "},"ᆩ":{"ha":1250,"x_min":154,"x_max":1103,"o":"m 594 -147 l 471 -147 l 471 231 l 154 231 l 154 340 l 594 340 l 594 -147 m 1103 -147 l 980 -147 l 980 231 l 664 231 l 664 340 l 1103 340 l 1103 -147 z "},"ᆪ":{"ha":1250,"x_min":154,"x_max":1258,"o":"m 594 -147 l 471 -147 l 471 231 l 154 231 l 154 340 l 594 340 l 594 -147 m 602 -46 q 805 97 738 12 q 872 301 872 182 l 872 340 l 995 340 l 995 301 l 995 281 q 1061 89 995 167 q 1258 -46 1127 11 l 1204 -154 q 932 74 1015 -68 q 664 -154 847 -66 l 602 -46 z "},"ᆫ":{"ha":1250,"x_min":185,"x_max":1103,"o":"m 301 278 l 301 -23 l 1103 -23 l 1103 -131 l 185 -131 l 185 278 l 301 278 z "},"ᆬ":{"ha":1250,"x_min":154,"x_max":1258,"o":"m 270 355 l 270 -39 l 594 -39 l 594 -147 l 154 -147 l 154 355 l 270 355 m 602 -46 q 793 83 727 8 q 870 262 860 157 l 640 262 l 640 355 l 1227 355 l 1227 262 l 995 262 q 1066 82 1002 154 q 1258 -46 1130 9 l 1204 -154 q 932 74 1015 -68 q 664 -154 847 -66 l 602 -46 z "},"ᆭ":{"ha":1250,"x_min":201,"x_max":1157,"o":"m 656 15 q 723 148 656 96 q 895 201 790 201 q 1067 148 1000 201 q 1134 15 1134 96 q 1067 -117 1134 -65 q 895 -170 1000 -170 q 723 -117 790 -170 q 656 15 656 -65 m 756 15 q 791 -65 756 -37 q 895 -93 826 -93 q 995 -64 955 -93 q 1034 15 1034 -35 q 994 93 1034 62 q 895 123 954 123 q 792 93 829 123 q 756 15 756 63 m 833 347 l 833 448 l 957 448 l 957 347 l 1157 347 l 1157 255 l 640 255 l 640 347 l 833 347 m 316 394 l 316 -39 l 640 -39 l 640 -147 l 201 -147 l 201 394 l 316 394 z "},"ᆮ":{"ha":1250,"x_min":170,"x_max":1096,"o":"m 1088 293 l 1088 201 l 285 201 l 285 -54 l 1096 -54 l 1096 -147 l 170 -147 l 170 293 l 1088 293 z "},"ᆯ":{"ha":1250,"x_min":170,"x_max":1103,"o":"m 1088 409 l 1088 85 l 285 85 l 285 -69 l 1103 -69 l 1103 -154 l 170 -154 l 170 170 l 972 170 l 972 324 l 170 324 l 170 409 l 1088 409 z "},"ᆰ":{"ha":1250,"x_min":154,"x_max":1150,"o":"m 594 432 l 594 100 l 255 100 l 255 -62 l 594 -62 l 594 -147 l 154 -147 l 154 185 l 494 185 l 494 347 l 154 347 l 154 432 l 594 432 m 1150 -147 l 1026 -147 l 1026 324 l 710 324 l 710 432 l 1150 432 l 1150 -147 z "},"ᆱ":{"ha":1250,"x_min":154,"x_max":1103,"o":"m 594 432 l 594 100 l 255 100 l 255 -62 l 594 -62 l 594 -147 l 154 -147 l 154 185 l 494 185 l 494 347 l 154 347 l 154 432 l 594 432 m 1103 432 l 1103 -147 l 664 -147 l 664 432 l 1103 432 m 764 340 l 764 -54 l 1003 -54 l 1003 340 l 764 340 z "},"ᆲ":{"ha":1250,"x_min":154,"x_max":1103,"o":"m 594 432 l 594 100 l 255 100 l 255 -62 l 594 -62 l 594 -147 l 154 -147 l 154 185 l 494 185 l 494 347 l 154 347 l 154 432 l 594 432 m 764 432 l 764 239 l 1003 239 l 1003 432 l 1103 432 l 1103 -147 l 664 -147 l 664 432 l 764 432 m 1003 -46 l 1003 139 l 764 139 l 764 -46 l 1003 -46 z "},"ᆳ":{"ha":1250,"x_min":154,"x_max":1296,"o":"m 594 432 l 594 100 l 255 100 l 255 -62 l 594 -62 l 594 -147 l 154 -147 l 154 185 l 494 185 l 494 347 l 154 347 l 154 432 l 594 432 m 656 -46 q 853 97 787 12 q 918 301 918 182 l 918 432 l 1042 432 l 1042 301 q 1104 96 1042 181 q 1296 -46 1167 12 l 1242 -154 q 978 74 1062 -68 q 869 -54 937 5 q 718 -154 801 -113 l 656 -46 z "},"ᆴ":{"ha":1250,"x_min":154,"x_max":1103,"o":"m 594 432 l 594 100 l 255 100 l 255 -62 l 594 -62 l 594 -147 l 154 -147 l 154 185 l 494 185 l 494 347 l 154 347 l 154 432 l 594 432 m 1103 432 l 1103 347 l 756 347 l 756 185 l 1088 185 l 1088 100 l 756 100 l 756 -62 l 1103 -62 l 1103 -147 l 664 -147 l 664 432 l 1103 432 z "},"ᆵ":{"ha":1250,"x_min":154,"x_max":1127,"o":"m 594 432 l 594 100 l 255 100 l 255 -62 l 594 -62 l 594 -147 l 154 -147 l 154 185 l 494 185 l 494 347 l 154 347 l 154 432 l 594 432 m 1127 432 l 1127 347 l 1057 347 l 1057 -62 l 1127 -62 l 1127 -147 l 664 -147 l 664 -62 l 733 -62 l 733 347 l 664 347 l 664 432 l 1127 432 m 818 347 l 818 -62 l 965 -62 l 965 347 l 818 347 z "},"ᆶ":{"ha":1250,"x_min":154,"x_max":1157,"o":"m 656 15 q 723 148 656 96 q 895 201 790 201 q 1067 148 1000 201 q 1134 15 1134 96 q 1067 -117 1134 -65 q 895 -170 1000 -170 q 723 -117 790 -170 q 656 15 656 -65 m 756 15 q 791 -65 756 -37 q 895 -93 826 -93 q 995 -64 955 -93 q 1034 15 1034 -35 q 994 93 1034 62 q 895 123 954 123 q 792 93 829 123 q 756 15 756 63 m 833 347 l 833 448 l 957 448 l 957 347 l 1157 347 l 1157 255 l 640 255 l 640 347 l 833 347 m 594 432 l 594 100 l 255 100 l 255 -62 l 594 -62 l 594 -147 l 154 -147 l 154 185 l 494 185 l 494 347 l 154 347 l 154 432 l 594 432 z "},"ᆷ":{"ha":1250,"x_min":177,"x_max":1080,"o":"m 1080 386 l 1080 -147 l 177 -147 l 177 386 l 1080 386 m 965 -46 l 965 278 l 301 278 l 301 -46 l 965 -46 z "},"ᆸ":{"ha":1250,"x_min":177,"x_max":1080,"o":"m 301 386 l 301 208 l 957 208 l 957 386 l 1080 386 l 1080 -147 l 177 -147 l 177 386 l 301 386 m 957 -54 l 957 116 l 301 116 l 301 -54 l 957 -54 z "},"ᆹ":{"ha":1250,"x_min":154,"x_max":1273,"o":"m 625 -46 q 822 97 756 12 q 887 301 887 182 l 887 386 l 1011 386 l 1011 301 q 1076 97 1011 182 q 1273 -46 1142 12 l 1219 -154 q 949 74 1032 -68 q 679 -154 867 -60 l 625 -46 m 255 386 l 255 208 l 494 208 l 494 386 l 594 386 l 594 -147 l 154 -147 l 154 386 l 255 386 m 494 -54 l 494 116 l 255 116 l 255 -54 l 494 -54 z "},"ᆺ":{"ha":1250,"x_min":85,"x_max":1173,"o":"m 694 340 l 694 293 q 766 140 694 210 q 948 22 838 69 q 1173 -46 1057 -26 l 1134 -154 q 846 -64 988 -131 q 630 103 705 3 q 411 -64 554 3 q 123 -154 269 -131 l 85 -46 q 310 22 201 -26 q 492 140 420 69 q 563 293 563 210 l 563 340 l 694 340 z "},"ᆻ":{"ha":1250,"x_min":54,"x_max":1204,"o":"m 54 -46 q 332 301 332 93 l 332 370 l 440 370 l 440 301 q 486 127 440 202 q 625 -15 532 51 q 764 127 718 51 q 810 301 810 202 l 810 370 l 926 370 l 926 301 q 1204 -46 926 86 l 1142 -154 q 872 83 955 -52 q 775 -39 835 17 q 625 -154 715 -94 q 478 -39 537 -96 q 383 85 418 19 q 116 -154 302 -52 l 54 -46 z "},"ᆼ":{"ha":1250,"x_min":154,"x_max":1103,"o":"m 154 93 q 211 235 154 173 q 374 329 269 296 q 625 363 480 363 q 881 329 773 363 q 1046 235 989 296 q 1103 93 1103 173 q 977 -100 1103 -29 q 625 -170 850 -170 q 280 -100 406 -170 q 154 93 154 -29 m 278 93 q 370 -26 278 17 q 625 -69 463 -69 q 883 -26 787 -69 q 980 93 980 17 q 884 218 980 173 q 625 262 789 262 q 370 218 461 262 q 278 93 278 173 z "},"ᆽ":{"ha":1250,"x_min":116,"x_max":1142,"o":"m 116 -54 q 329 12 227 -34 q 498 126 432 57 q 563 278 563 194 l 177 278 l 177 386 l 1080 386 l 1080 278 l 694 278 q 758 125 694 193 q 925 12 823 57 q 1142 -54 1028 -34 l 1103 -154 q 834 -68 966 -131 q 630 91 702 -5 q 424 -68 557 -5 q 154 -154 290 -131 l 116 -54 z "},"ᆾ":{"ha":1250,"x_min":116,"x_max":1142,"o":"m 687 463 l 687 370 l 1080 370 l 1080 270 l 687 270 q 756 122 690 188 q 925 11 823 56 q 1142 -54 1028 -34 l 1103 -154 q 829 -68 963 -130 q 625 91 696 -6 q 424 -69 554 -8 q 154 -154 295 -130 l 116 -54 q 329 11 228 -34 q 495 122 431 56 q 563 270 560 188 l 177 270 l 177 370 l 563 370 l 563 463 l 687 463 z "},"ᆿ":{"ha":1250,"x_min":177,"x_max":1080,"o":"m 1080 -147 l 949 -147 l 949 46 l 193 46 l 193 139 l 949 139 l 949 293 l 177 293 l 177 386 l 1080 386 l 1080 -147 z "},"ᇀ":{"ha":1250,"x_min":177,"x_max":1080,"o":"m 1080 347 l 301 347 l 301 185 l 1065 185 l 1065 100 l 301 100 l 301 -62 l 1080 -62 l 1080 -147 l 177 -147 l 177 432 l 1080 432 l 1080 347 z "},"ᇁ":{"ha":1250,"x_min":154,"x_max":1103,"o":"m 1080 278 l 926 278 l 926 -46 l 1103 -46 l 1103 -147 l 154 -147 l 154 -46 l 332 -46 l 332 278 l 177 278 l 177 386 l 1080 386 l 1080 278 m 802 -46 l 802 278 l 455 278 l 455 -46 l 802 -46 z "},"ᇂ":{"ha":1250,"x_min":177,"x_max":1080,"o":"m 201 23 q 312 160 201 111 q 625 208 423 208 q 944 160 832 208 q 1057 23 1057 111 q 945 -120 1057 -69 q 625 -170 833 -170 q 312 -120 423 -170 q 201 23 201 -69 m 324 23 q 396 -66 318 -39 q 625 -93 474 -93 q 853 -66 779 -93 q 934 23 927 -39 q 854 103 934 76 q 625 131 775 131 q 398 103 478 131 q 324 23 318 74 m 571 378 l 571 463 l 687 463 l 687 378 l 1080 378 l 1080 278 l 177 278 l 177 378 l 571 378 z "},"가":{"ha":1273,"x_min":62,"x_max":1296,"o":"m 679 1034 q 725 988 725 1034 q 559 408 708 639 q 139 46 409 177 l 62 139 q 433 449 295 253 q 591 918 571 645 l 100 918 l 93 1034 l 679 1034 m 1103 1134 l 1103 664 l 1296 664 l 1296 540 l 1103 540 l 1103 -147 l 972 -147 l 972 1134 l 1103 1134 z "},"각":{"ha":1273,"x_min":62,"x_max":1296,"o":"m 687 1088 q 733 1042 733 1088 q 550 636 716 795 q 108 417 384 477 l 62 540 q 586 972 529 637 l 100 972 l 93 1088 l 687 1088 m 1103 1134 l 1103 872 l 1296 872 l 1296 756 l 1103 756 l 1103 409 l 972 409 l 972 1134 l 1103 1134 m 1103 -162 l 972 -162 l 972 185 l 193 185 l 193 301 l 1103 301 l 1103 -162 z "},"갂":{"ha":1250,"x_min":0,"x_max":0,"o":""},"갃":{"ha":1250,"x_min":0,"x_max":0,"o":""},"간":{"ha":1273,"x_min":62,"x_max":1296,"o":"m 687 1088 q 733 1042 733 1088 q 549 620 716 789 q 108 386 383 452 l 62 502 q 433 681 301 562 q 590 972 565 799 l 100 972 l 93 1088 l 687 1088 m 1103 1134 l 1103 810 l 1296 810 l 1296 694 l 1103 694 l 1103 185 l 972 185 l 972 1134 l 1103 1134 m 340 278 l 340 -8 l 1134 -8 l 1142 -131 l 262 -131 q 216 -85 216 -131 l 216 278 l 340 278 z "},"갅":{"ha":1250,"x_min":0,"x_max":0,"o":""},"갆":{"ha":1250,"x_min":0,"x_max":0,"o":""},"갇":{"ha":1273,"x_min":62,"x_max":1304,"o":"m 687 1088 q 733 1042 733 1088 q 552 660 716 802 q 108 455 389 517 l 62 571 q 431 718 302 622 q 586 972 559 815 l 100 972 l 93 1088 l 687 1088 m 1103 1134 l 1103 880 l 1304 880 l 1304 764 l 1103 764 l 1103 440 l 972 440 l 972 1134 l 1103 1134 m 1103 340 l 1103 224 l 340 224 l 340 -31 l 1119 -31 l 1127 -147 l 262 -147 q 216 -100 216 -147 l 216 340 l 1103 340 z "},"갈":{"ha":1273,"x_min":62,"x_max":1304,"o":"m 687 1088 q 733 1042 733 1088 q 549 689 716 819 q 108 502 381 559 l 62 617 q 419 748 289 662 q 583 972 549 833 l 100 972 l 93 1088 l 687 1088 m 1103 1134 l 1103 918 l 1304 918 l 1304 802 l 1103 802 l 1103 517 l 972 517 l 972 1134 l 1103 1134 m 216 440 l 1103 440 l 1103 93 l 340 93 l 340 -46 l 1119 -46 l 1127 -154 l 262 -154 q 216 -108 216 -154 l 216 193 l 980 193 l 980 332 l 216 332 l 216 440 z "},"갉":{"ha":1273,"x_min":62,"x_max":1304,"o":"m 687 1088 q 733 1042 733 1088 q 549 689 716 819 q 108 502 381 559 l 62 617 q 419 748 289 662 q 583 972 549 833 l 100 972 l 93 1088 l 687 1088 m 1103 1134 l 1103 918 l 1304 918 l 1304 802 l 1103 802 l 1103 517 l 972 517 l 972 1134 l 1103 1134 m 170 440 l 625 440 l 625 93 l 293 93 l 293 -48 q 748 -8 579 -48 l 764 -108 q 216 -154 557 -153 q 170 -108 170 -154 l 170 201 l 502 201 l 502 332 l 170 332 l 170 440 m 1103 -170 l 972 -170 l 972 316 l 687 316 l 687 440 l 1103 440 l 1103 -170 z "},"갊":{"ha":1273,"x_min":62,"x_max":1304,"o":"m 687 1088 q 733 1042 733 1088 q 549 689 716 819 q 108 502 381 559 l 62 617 q 419 748 289 662 q 583 972 549 833 l 100 972 l 93 1088 l 687 1088 m 1103 1134 l 1103 918 l 1304 918 l 1304 802 l 1103 802 l 1103 517 l 972 517 l 972 1134 l 1103 1134 m 1103 440 l 1103 -154 l 687 -154 l 687 440 l 1103 440 m 988 -39 l 988 324 l 802 324 l 802 -39 l 988 -39 m 170 440 l 610 440 l 610 100 l 293 100 l 293 -42 q 633 -15 495 -42 l 648 -123 q 462 -148 560 -142 q 216 -154 364 -154 q 170 -108 170 -154 l 170 201 l 486 201 l 486 332 l 170 332 l 170 440 z "},"갋":{"ha":1273,"x_min":62,"x_max":1304,"o":"m 687 1088 q 733 1042 733 1088 q 549 689 716 819 q 108 502 381 559 l 62 617 q 419 748 289 662 q 583 972 549 833 l 100 972 l 93 1088 l 687 1088 m 1103 1134 l 1103 918 l 1304 918 l 1304 802 l 1103 802 l 1103 517 l 972 517 l 972 1134 l 1103 1134 m 170 440 l 610 440 l 610 100 l 293 100 l 293 -42 q 633 -15 495 -42 l 648 -123 q 462 -148 560 -142 q 216 -154 364 -154 q 170 -108 170 -154 l 170 201 l 486 201 l 486 332 l 170 332 l 170 440 m 802 440 l 802 255 l 988 255 l 988 440 l 1103 440 l 1103 -154 l 687 -154 l 687 440 l 802 440 m 988 -39 l 988 139 l 802 139 l 802 -39 l 988 -39 z "},"갌":{"ha":1250,"x_min":0,"x_max":0,"o":""},"갍":{"ha":1250,"x_min":0,"x_max":0,"o":""},"갎":{"ha":1250,"x_min":0,"x_max":0,"o":""},"갏":{"ha":1250,"x_min":0,"x_max":0,"o":""},"감":{"ha":1273,"x_min":62,"x_max":1304,"o":"m 687 1088 q 733 1042 733 1088 q 552 660 716 802 q 108 455 389 517 l 62 571 q 431 718 302 622 q 586 972 559 815 l 100 972 l 93 1088 l 687 1088 m 1103 1134 l 1103 880 l 1304 880 l 1304 764 l 1103 764 l 1103 440 l 972 440 l 972 1134 l 1103 1134 m 1103 340 l 1103 -147 l 262 -147 q 216 -100 216 -147 l 216 340 l 1103 340 m 972 -31 l 972 224 l 340 224 l 340 -31 l 972 -31 z "},"갑":{"ha":1273,"x_min":62,"x_max":1304,"o":"m 687 1088 q 733 1042 733 1088 q 552 660 716 802 q 108 455 389 517 l 62 571 q 431 718 302 622 q 586 972 559 815 l 100 972 l 93 1088 l 687 1088 m 1103 1134 l 1103 880 l 1304 880 l 1304 764 l 1103 764 l 1103 440 l 972 440 l 972 1134 l 1103 1134 m 340 370 l 340 224 l 972 224 l 972 370 l 1103 370 l 1103 -147 l 262 -147 q 216 -100 216 -147 l 216 370 l 340 370 m 972 -31 l 972 116 l 340 116 l 340 -31 l 972 -31 z "},"값":{"ha":1273,"x_min":62,"x_max":1304,"o":"m 687 1088 q 733 1042 733 1088 q 552 660 716 802 q 108 455 389 517 l 62 571 q 431 718 302 622 q 586 972 559 815 l 100 972 l 93 1088 l 687 1088 m 1103 1134 l 1103 880 l 1304 880 l 1304 764 l 1103 764 l 1103 440 l 972 440 l 972 1134 l 1103 1134 m 278 370 l 278 224 l 509 224 l 509 370 l 625 370 l 625 -147 l 216 -147 q 170 -100 170 -147 l 170 370 l 278 370 m 509 -39 l 509 123 l 278 123 l 278 -39 l 509 -39 m 995 386 l 995 285 q 1063 73 995 162 q 1235 -69 1131 -17 l 1142 -162 q 1027 -74 1083 -128 q 932 54 971 -20 q 834 -79 892 -23 q 718 -170 776 -136 l 633 -77 q 802 69 733 -25 q 872 285 872 164 l 872 386 l 995 386 z "},"갓":{"ha":1273,"x_min":62,"x_max":1296,"o":"m 687 1088 q 733 1042 733 1088 q 549 620 716 789 q 108 386 383 452 l 62 502 q 433 681 301 562 q 590 972 565 799 l 100 972 l 93 1088 l 687 1088 m 1103 1134 l 1103 872 l 1296 872 l 1296 756 l 1103 756 l 1103 324 l 972 324 l 972 1134 l 1103 1134 m 725 440 l 725 363 q 802 182 725 269 q 988 33 878 96 q 1196 -54 1099 -29 l 1134 -162 q 874 -42 1012 -128 q 662 165 736 43 q 524 11 610 80 q 348 -104 438 -59 q 185 -170 258 -150 l 131 -62 q 336 29 225 -35 q 524 181 446 93 q 602 363 602 270 l 602 440 l 725 440 z "},"갔":{"ha":1273,"x_min":62,"x_max":1296,"o":"m 687 1088 q 733 1042 733 1088 q 550 636 716 795 q 108 417 384 477 l 62 540 q 586 972 529 637 l 100 972 l 93 1088 l 687 1088 m 1103 1134 l 1103 872 l 1296 872 l 1296 756 l 1103 756 l 1103 409 l 972 409 l 972 1134 l 1103 1134 m 77 -77 q 274 82 193 -12 q 355 301 355 176 l 355 370 l 471 370 l 471 293 q 528 119 471 201 q 668 -25 585 37 q 807 119 750 37 q 864 293 864 201 l 864 370 l 972 370 l 972 293 q 1057 80 972 173 q 1258 -69 1142 -12 l 1181 -162 q 917 90 994 -57 q 799 -67 870 2 q 664 -170 727 -136 q 529 -65 597 -130 q 414 85 460 0 q 154 -170 333 -62 l 77 -77 z "},"강":{"ha":1273,"x_min":62,"x_max":1296,"o":"m 687 1088 q 733 1042 733 1088 q 550 636 716 795 q 108 417 384 477 l 62 540 q 586 972 529 637 l 100 972 l 93 1088 l 687 1088 m 1103 1134 l 1103 872 l 1296 872 l 1296 756 l 1103 756 l 1103 409 l 972 409 l 972 1134 l 1103 1134 m 664 -170 q 314 -100 435 -170 q 193 93 193 -31 q 314 292 193 221 q 664 363 435 363 q 1007 292 887 363 q 1127 93 1127 221 q 1006 -100 1127 -31 q 664 -170 886 -170 m 664 -54 q 904 -15 819 -54 q 988 93 988 23 q 903 205 988 164 q 664 247 818 247 q 416 205 500 247 q 332 93 332 164 q 415 -16 332 22 q 664 -54 498 -54 z "},"갖":{"ha":1273,"x_min":62,"x_max":1304,"o":"m 687 1088 q 733 1042 733 1088 q 552 660 716 802 q 108 455 389 517 l 62 571 q 431 718 302 622 q 586 972 559 815 l 100 972 l 93 1088 l 687 1088 m 1103 1134 l 1103 880 l 1304 880 l 1304 764 l 1103 764 l 1103 440 l 972 440 l 972 1134 l 1103 1134 m 131 -62 q 327 -1 225 -42 q 506 100 429 40 q 599 231 583 160 l 201 231 l 201 347 l 1134 347 l 1134 231 l 728 231 q 895 56 752 130 q 1196 -54 1039 -19 l 1134 -162 q 867 -63 995 -125 q 665 94 738 -2 q 461 -69 593 -5 q 201 -170 330 -134 l 131 -62 z "},"갗":{"ha":1273,"x_min":62,"x_max":1304,"o":"m 687 1088 q 733 1042 733 1088 q 552 660 716 802 q 108 455 389 517 l 62 571 q 431 718 302 622 q 586 972 559 815 l 100 972 l 93 1088 l 687 1088 m 1103 1134 l 1103 880 l 1304 880 l 1304 764 l 1103 764 l 1103 440 l 972 440 l 972 1134 l 1103 1134 m 725 448 l 725 324 l 1134 324 l 1134 208 l 727 208 q 882 42 744 106 q 1196 -62 1020 -23 l 1127 -162 q 665 68 789 -88 q 468 -82 594 -25 q 208 -170 341 -139 l 131 -69 q 443 36 302 -32 q 600 208 583 105 l 201 208 l 201 324 l 602 324 l 602 448 l 725 448 z "},"갘":{"ha":1250,"x_min":0,"x_max":0,"o":""},"같":{"ha":1273,"x_min":62,"x_max":1304,"o":"m 687 1088 q 733 1042 733 1088 q 549 689 716 819 q 108 502 381 559 l 62 617 q 419 748 289 662 q 583 972 549 833 l 100 972 l 93 1088 l 687 1088 m 1103 1134 l 1103 918 l 1304 918 l 1304 802 l 1103 802 l 1103 517 l 972 517 l 972 1134 l 1103 1134 m 1111 440 l 1111 332 l 340 332 l 340 193 l 1103 193 l 1103 93 l 340 93 l 340 -46 l 1119 -46 l 1127 -154 l 262 -154 q 216 -108 216 -154 l 216 440 l 1111 440 z "},"갚":{"ha":1273,"x_min":62,"x_max":1304,"o":"m 687 1088 q 733 1042 733 1088 q 552 660 716 802 q 108 455 389 517 l 62 571 q 431 718 302 622 q 586 972 559 815 l 100 972 l 93 1088 l 687 1088 m 1103 1134 l 1103 880 l 1304 880 l 1304 764 l 1103 764 l 1103 440 l 972 440 l 972 1134 l 1103 1134 m 398 -31 l 383 231 l 201 231 l 201 347 l 1119 347 l 1119 231 l 944 231 l 929 -31 l 1134 -31 l 1142 -147 l 177 -147 l 177 -31 l 398 -31 m 806 -31 l 821 231 l 506 231 l 522 -31 l 806 -31 z "},"갛":{"ha":1273,"x_min":62,"x_max":1304,"o":"m 687 1088 q 733 1042 733 1088 q 549 689 716 819 q 108 502 381 559 l 62 617 q 419 748 289 662 q 583 972 549 833 l 100 972 l 93 1088 l 687 1088 m 1103 1134 l 1103 918 l 1304 918 l 1304 802 l 1103 802 l 1103 517 l 972 517 l 972 1134 l 1103 1134 m 664 -170 q 345 -118 458 -170 q 231 31 231 -66 q 346 177 231 123 q 664 231 461 231 q 985 177 866 231 q 1103 31 1103 123 q 986 -118 1103 -66 q 664 -170 869 -170 m 664 -69 q 886 -42 807 -69 q 965 31 965 -15 q 885 98 965 73 q 664 123 806 123 q 442 98 522 123 q 363 31 363 73 q 441 -42 363 -15 q 664 -69 520 -69 m 733 509 l 733 409 l 1142 409 l 1142 301 l 193 301 l 193 409 l 602 409 l 602 509 l 733 509 z "},"개":{"ha":1273,"x_min":31,"x_max":1173,"o":"m 571 1034 q 617 988 617 1034 q 472 409 600 633 q 123 46 344 185 l 31 131 q 351 444 228 255 q 491 918 474 634 l 77 918 l 69 1034 l 571 1034 m 887 1134 l 887 656 l 1049 656 l 1049 1134 l 1173 1134 l 1173 -147 l 1049 -147 l 1049 532 l 887 532 l 887 -147 l 772 -147 l 772 1134 l 887 1134 z "},"객":{"ha":1273,"x_min":39,"x_max":1173,"o":"m 571 1088 q 617 1042 617 1088 q 465 624 606 787 q 100 386 323 461 l 39 486 q 347 670 231 546 q 488 972 463 793 l 77 972 l 69 1088 l 571 1088 m 887 1134 l 887 872 l 1049 872 l 1049 1134 l 1173 1134 l 1173 409 l 1049 409 l 1049 756 l 887 756 l 887 409 l 772 409 l 772 1134 l 887 1134 m 1173 -162 l 1049 -162 l 1049 185 l 208 185 l 208 301 l 1173 301 l 1173 -162 z "},"갞":{"ha":1250,"x_min":0,"x_max":0,"o":""},"갟":{"ha":1250,"x_min":0,"x_max":0,"o":""},"갠":{"ha":1273,"x_min":39,"x_max":1196,"o":"m 571 1088 q 617 1042 617 1088 q 539 727 610 867 q 355 491 469 586 q 100 347 241 395 l 39 455 q 346 652 228 515 q 488 972 463 789 l 77 972 l 69 1088 l 571 1088 m 887 1142 l 887 810 l 1049 810 l 1049 1142 l 1173 1142 l 1173 216 l 1049 216 l 1049 694 l 887 694 l 887 216 l 772 216 l 772 1142 l 887 1142 m 363 278 l 363 -8 l 1188 -8 l 1196 -131 l 278 -131 q 231 -85 231 -131 l 231 278 l 363 278 z "},"갡":{"ha":1250,"x_min":0,"x_max":0,"o":""},"갢":{"ha":1250,"x_min":0,"x_max":0,"o":""},"갣":{"ha":1273,"x_min":39,"x_max":1196,"o":"m 571 1088 q 617 1042 617 1088 q 466 640 606 793 q 100 409 326 486 l 39 509 q 488 972 438 636 l 77 972 l 69 1088 l 571 1088 m 887 1142 l 887 880 l 1049 880 l 1049 1142 l 1173 1142 l 1173 448 l 1049 448 l 1049 764 l 887 764 l 887 448 l 772 448 l 772 1142 l 887 1142 m 1173 340 l 1173 224 l 340 224 l 340 -31 l 1188 -31 l 1196 -147 l 262 -147 q 216 -100 216 -147 l 216 340 l 1173 340 z "},"갤":{"ha":1273,"x_min":39,"x_max":1196,"o":"m 617 1088 q 475 683 617 829 q 100 455 333 537 l 39 556 q 485 972 431 690 l 77 972 l 77 1088 l 617 1088 m 887 1134 l 887 918 l 1049 918 l 1049 1134 l 1173 1134 l 1173 517 l 1049 517 l 1049 802 l 887 802 l 887 517 l 772 517 l 772 1134 l 887 1134 m 1173 440 l 1173 93 l 355 93 l 355 -46 l 1188 -46 l 1196 -154 l 278 -154 q 231 -108 231 -154 l 231 193 l 1049 193 l 1049 332 l 231 332 l 231 440 l 1173 440 z "},"갥":{"ha":1250,"x_min":0,"x_max":0,"o":""},"갦":{"ha":1250,"x_min":0,"x_max":0,"o":""},"갧":{"ha":1250,"x_min":0,"x_max":0,"o":""},"갨":{"ha":1250,"x_min":0,"x_max":0,"o":""},"갩":{"ha":1250,"x_min":0,"x_max":0,"o":""},"갪":{"ha":1250,"x_min":0,"x_max":0,"o":""},"갫":{"ha":1250,"x_min":0,"x_max":0,"o":""},"갬":{"ha":1273,"x_min":39,"x_max":1173,"o":"m 571 1088 q 617 1042 617 1088 q 466 640 606 793 q 100 409 326 486 l 39 509 q 488 972 438 636 l 77 972 l 69 1088 l 571 1088 m 887 1142 l 887 880 l 1049 880 l 1049 1142 l 1173 1142 l 1173 448 l 1049 448 l 1049 764 l 887 764 l 887 448 l 772 448 l 772 1142 l 887 1142 m 1173 340 l 1173 -147 l 278 -147 q 231 -100 231 -147 l 231 340 l 1173 340 m 1042 -31 l 1042 224 l 363 224 l 363 -31 l 1042 -31 z "},"갭":{"ha":1273,"x_min":39,"x_max":1173,"o":"m 571 1088 q 617 1042 617 1088 q 466 640 606 793 q 100 409 326 486 l 39 509 q 488 972 438 636 l 77 972 l 69 1088 l 571 1088 m 887 1142 l 887 880 l 1049 880 l 1049 1142 l 1173 1142 l 1173 448 l 1049 448 l 1049 764 l 887 764 l 887 448 l 772 448 l 772 1142 l 887 1142 m 363 370 l 363 224 l 1042 224 l 1042 370 l 1173 370 l 1173 -147 l 278 -147 q 231 -100 231 -147 l 231 370 l 363 370 m 1042 -31 l 1042 116 l 363 116 l 363 -31 l 1042 -31 z "},"갮":{"ha":1250,"x_min":0,"x_max":0,"o":""},"갯":{"ha":1273,"x_min":39,"x_max":1250,"o":"m 571 1088 q 617 1042 617 1088 q 539 727 610 867 q 355 491 469 586 q 100 347 241 395 l 39 455 q 346 652 228 515 q 488 972 463 789 l 77 972 l 69 1088 l 571 1088 m 887 1134 l 887 872 l 1049 872 l 1049 1134 l 1173 1134 l 1173 332 l 1049 332 l 1049 756 l 887 756 l 887 417 l 772 417 l 772 1134 l 887 1134 m 779 386 l 779 309 q 856 153 779 227 q 1041 25 932 79 q 1250 -54 1150 -28 l 1188 -162 q 927 -52 1063 -128 q 716 131 790 23 q 502 -59 640 20 q 239 -170 364 -137 l 185 -62 q 392 20 282 -35 q 579 151 502 76 q 656 309 656 227 l 656 386 l 779 386 z "},"갰":{"ha":1273,"x_min":39,"x_max":1335,"o":"m 571 1088 q 617 1042 617 1088 q 465 624 606 787 q 100 386 323 461 l 39 486 q 347 670 231 546 q 488 972 463 793 l 77 972 l 69 1088 l 571 1088 m 887 1134 l 887 872 l 1049 872 l 1049 1134 l 1173 1134 l 1173 409 l 1049 409 l 1049 756 l 887 756 l 887 409 l 772 409 l 772 1134 l 887 1134 m 108 -77 q 312 81 230 -9 q 394 301 394 171 l 394 370 l 517 370 l 517 301 q 722 -26 517 119 q 861 118 804 34 q 918 301 918 202 l 918 370 l 1042 370 l 1042 301 q 1128 81 1042 171 q 1335 -69 1215 -9 l 1250 -162 q 980 90 1062 -56 q 855 -67 931 2 q 718 -170 779 -136 q 579 -62 651 -128 q 457 88 506 3 q 339 -60 410 5 q 193 -170 267 -125 l 108 -77 z "},"갱":{"ha":1273,"x_min":39,"x_max":1196,"o":"m 571 1088 q 617 1042 617 1088 q 465 624 606 787 q 100 386 323 461 l 39 486 q 347 670 231 546 q 488 972 463 793 l 77 972 l 69 1088 l 571 1088 m 887 1134 l 887 872 l 1049 872 l 1049 1134 l 1173 1134 l 1173 417 l 1049 417 l 1049 756 l 887 756 l 887 448 l 772 448 l 772 1134 l 887 1134 m 702 -170 q 342 -100 468 -170 q 216 93 216 -31 q 342 292 216 221 q 702 363 468 363 q 1067 292 938 363 q 1196 93 1196 221 q 1066 -100 1196 -29 q 702 -170 937 -170 m 702 -54 q 957 -15 864 -54 q 1049 93 1049 23 q 956 204 1049 162 q 702 247 863 247 q 451 205 539 247 q 363 93 363 164 q 449 -15 363 23 q 702 -54 535 -54 z "},"갲":{"ha":1250,"x_min":0,"x_max":0,"o":""},"갳":{"ha":1250,"x_min":0,"x_max":0,"o":""},"갴":{"ha":1250,"x_min":0,"x_max":0,"o":""},"갵":{"ha":1250,"x_min":0,"x_max":0,"o":""},"갶":{"ha":1250,"x_min":0,"x_max":0,"o":""},"갷":{"ha":1250,"x_min":0,"x_max":0,"o":""},"갸":{"ha":1273,"x_min":62,"x_max":1296,"o":"m 679 1034 q 725 988 725 1034 q 559 408 708 639 q 139 46 409 177 l 62 139 q 433 449 295 253 q 591 918 571 645 l 100 918 l 93 1034 l 679 1034 m 1103 1134 l 1103 833 l 1296 833 l 1296 710 l 1103 710 l 1103 448 l 1296 448 l 1296 324 l 1103 324 l 1103 -147 l 972 -147 l 972 1134 l 1103 1134 z "},"갹":{"ha":1273,"x_min":62,"x_max":1304,"o":"m 687 1088 q 733 1042 733 1088 q 550 636 716 795 q 108 417 384 477 l 62 540 q 586 972 529 637 l 100 972 l 93 1088 l 687 1088 m 1103 1134 l 1103 972 l 1304 972 l 1304 856 l 1103 856 l 1103 718 l 1304 718 l 1304 602 l 1103 602 l 1103 409 l 972 409 l 972 1134 l 1103 1134 m 1103 -162 l 972 -162 l 972 185 l 193 185 l 193 301 l 1103 301 l 1103 -162 z "},"갺":{"ha":1250,"x_min":0,"x_max":0,"o":""},"갻":{"ha":1250,"x_min":0,"x_max":0,"o":""},"갼":{"ha":1273,"x_min":62,"x_max":1304,"o":"m 687 1088 q 733 1042 733 1088 q 549 620 716 789 q 108 386 383 452 l 62 502 q 433 681 301 562 q 590 972 565 799 l 100 972 l 93 1088 l 687 1088 m 1103 1134 l 1103 965 l 1304 965 l 1304 849 l 1103 849 l 1103 694 l 1304 694 l 1304 579 l 1103 579 l 1103 185 l 972 185 l 972 1134 l 1103 1134 m 340 278 l 340 -8 l 1134 -8 l 1142 -131 l 262 -131 q 216 -85 216 -131 l 216 278 l 340 278 z "},"갽":{"ha":1250,"x_min":0,"x_max":0,"o":""},"갾":{"ha":1250,"x_min":0,"x_max":0,"o":""},"갿":{"ha":1250,"x_min":0,"x_max":0,"o":""},"걀":{"ha":1273,"x_min":62,"x_max":1304,"o":"m 687 1088 q 733 1042 733 1088 q 549 689 716 819 q 108 502 381 559 l 62 617 q 419 748 289 662 q 583 972 549 833 l 100 972 l 93 1088 l 687 1088 m 1103 1134 l 1103 1003 l 1304 1003 l 1304 895 l 1103 895 l 1103 772 l 1304 772 l 1304 664 l 1103 664 l 1103 517 l 972 517 l 972 1134 l 1103 1134 m 216 440 l 1103 440 l 1103 93 l 340 93 l 340 -46 l 1119 -46 l 1127 -154 l 262 -154 q 216 -108 216 -154 l 216 193 l 980 193 l 980 332 l 216 332 l 216 440 z "},"걁":{"ha":1250,"x_min":0,"x_max":0,"o":""},"걂":{"ha":1250,"x_min":0,"x_max":0,"o":""},"걃":{"ha":1250,"x_min":0,"x_max":0,"o":""},"걄":{"ha":1250,"x_min":0,"x_max":0,"o":""},"걅":{"ha":1250,"x_min":0,"x_max":0,"o":""},"걆":{"ha":1250,"x_min":0,"x_max":0,"o":""},"걇":{"ha":1250,"x_min":0,"x_max":0,"o":""},"걈":{"ha":1250,"x_min":0,"x_max":0,"o":""},"걉":{"ha":1250,"x_min":0,"x_max":0,"o":""},"걊":{"ha":1250,"x_min":0,"x_max":0,"o":""},"걋":{"ha":1273,"x_min":62,"x_max":1304,"o":"m 687 1088 q 733 1042 733 1088 q 549 620 716 789 q 108 386 383 452 l 62 502 q 433 681 301 562 q 590 972 565 799 l 100 972 l 93 1088 l 687 1088 m 1103 1134 l 1103 972 l 1304 972 l 1304 856 l 1103 856 l 1103 718 l 1304 718 l 1304 602 l 1103 602 l 1103 324 l 972 324 l 972 1134 l 1103 1134 m 725 440 l 725 363 q 802 182 725 269 q 988 33 878 96 q 1196 -54 1099 -29 l 1134 -162 q 874 -42 1012 -128 q 662 165 736 43 q 524 11 610 80 q 348 -104 438 -59 q 185 -170 258 -150 l 131 -62 q 336 29 225 -35 q 524 181 446 93 q 602 363 602 270 l 602 440 l 725 440 z "},"걌":{"ha":1250,"x_min":0,"x_max":0,"o":""},"걍":{"ha":1273,"x_min":62,"x_max":1304,"o":"m 687 1088 q 733 1042 733 1088 q 550 636 716 795 q 108 417 384 477 l 62 540 q 586 972 529 637 l 100 972 l 93 1088 l 687 1088 m 1103 1134 l 1103 972 l 1304 972 l 1304 856 l 1103 856 l 1103 718 l 1304 718 l 1304 602 l 1103 602 l 1103 409 l 972 409 l 972 1134 l 1103 1134 m 664 -170 q 314 -100 435 -170 q 193 93 193 -31 q 314 292 193 221 q 664 363 435 363 q 1007 292 887 363 q 1127 93 1127 221 q 1006 -100 1127 -31 q 664 -170 886 -170 m 664 -54 q 904 -15 819 -54 q 988 93 988 23 q 903 205 988 164 q 664 247 818 247 q 416 205 500 247 q 332 93 332 164 q 415 -16 332 22 q 664 -54 498 -54 z "},"걎":{"ha":1250,"x_min":0,"x_max":0,"o":""},"걏":{"ha":1250,"x_min":0,"x_max":0,"o":""},"걐":{"ha":1250,"x_min":0,"x_max":0,"o":""},"걑":{"ha":1250,"x_min":0,"x_max":0,"o":""},"걒":{"ha":1250,"x_min":0,"x_max":0,"o":""},"걓":{"ha":1250,"x_min":0,"x_max":0,"o":""},"걔":{"ha":1273,"x_min":31,"x_max":1173,"o":"m 571 1034 q 617 988 617 1034 q 472 409 600 633 q 123 46 344 185 l 31 131 q 351 444 228 255 q 491 918 474 634 l 77 918 l 69 1034 l 571 1034 m 887 1134 l 887 833 l 1049 833 l 1049 1134 l 1173 1134 l 1173 -147 l 1049 -147 l 1049 324 l 887 324 l 887 -147 l 772 -147 l 772 1134 l 887 1134 m 1049 440 l 1049 718 l 887 718 l 887 440 l 1049 440 z "},"걕":{"ha":1250,"x_min":0,"x_max":0,"o":""},"걖":{"ha":1250,"x_min":0,"x_max":0,"o":""},"걗":{"ha":1250,"x_min":0,"x_max":0,"o":""},"걘":{"ha":1273,"x_min":39,"x_max":1196,"o":"m 571 1088 q 617 1042 617 1088 q 539 727 610 867 q 355 491 469 586 q 100 347 241 395 l 39 455 q 346 652 228 515 q 488 972 463 789 l 77 972 l 69 1088 l 571 1088 m 887 1142 l 887 965 l 1049 965 l 1049 1142 l 1173 1142 l 1173 216 l 1049 216 l 1049 579 l 887 579 l 887 216 l 772 216 l 772 1142 l 887 1142 m 363 278 l 363 -8 l 1188 -8 l 1196 -131 l 278 -131 q 231 -85 231 -131 l 231 278 l 363 278 m 1049 694 l 1049 849 l 887 849 l 887 694 l 1049 694 z "},"걙":{"ha":1250,"x_min":0,"x_max":0,"o":""},"걚":{"ha":1250,"x_min":0,"x_max":0,"o":""},"걛":{"ha":1250,"x_min":0,"x_max":0,"o":""},"걜":{"ha":1273,"x_min":39,"x_max":1196,"o":"m 617 1088 q 475 683 617 829 q 100 455 333 537 l 39 556 q 485 972 431 690 l 77 972 l 77 1088 l 617 1088 m 887 1134 l 887 1003 l 1049 1003 l 1049 1134 l 1173 1134 l 1173 517 l 1049 517 l 1049 664 l 887 664 l 887 517 l 772 517 l 772 1134 l 887 1134 m 1173 440 l 1173 93 l 355 93 l 355 -46 l 1188 -46 l 1196 -154 l 278 -154 q 231 -108 231 -154 l 231 193 l 1049 193 l 1049 332 l 231 332 l 231 440 l 1173 440 m 1049 772 l 1049 895 l 887 895 l 887 772 l 1049 772 z "},"걝":{"ha":1250,"x_min":0,"x_max":0,"o":""},"걞":{"ha":1250,"x_min":0,"x_max":0,"o":""},"걟":{"ha":1250,"x_min":0,"x_max":0,"o":""},"걠":{"ha":1250,"x_min":0,"x_max":0,"o":""},"걡":{"ha":1250,"x_min":0,"x_max":0,"o":""},"걢":{"ha":1250,"x_min":0,"x_max":0,"o":""},"걣":{"ha":1250,"x_min":0,"x_max":0,"o":""},"걤":{"ha":1250,"x_min":0,"x_max":0,"o":""},"걥":{"ha":1273,"x_min":39,"x_max":1173,"o":"m 571 1088 q 617 1042 617 1088 q 466 640 606 793 q 100 409 326 486 l 39 509 q 488 972 438 636 l 77 972 l 69 1088 l 571 1088 m 887 1142 l 887 988 l 1049 988 l 1049 1142 l 1173 1142 l 1173 448 l 1049 448 l 1049 625 l 887 625 l 887 448 l 772 448 l 772 1142 l 887 1142 m 363 370 l 363 224 l 1042 224 l 1042 370 l 1173 370 l 1173 -147 l 278 -147 q 231 -100 231 -147 l 231 370 l 363 370 m 1042 -31 l 1042 116 l 363 116 l 363 -31 l 1042 -31 m 1049 741 l 1049 872 l 887 872 l 887 741 l 1049 741 z "},"걦":{"ha":1250,"x_min":0,"x_max":0,"o":""},"걧":{"ha":1250,"x_min":0,"x_max":0,"o":""},"걨":{"ha":1250,"x_min":0,"x_max":0,"o":""},"걩":{"ha":1250,"x_min":0,"x_max":0,"o":""},"걪":{"ha":1250,"x_min":0,"x_max":0,"o":""},"걫":{"ha":1250,"x_min":0,"x_max":0,"o":""},"걬":{"ha":1250,"x_min":0,"x_max":0,"o":""},"걭":{"ha":1250,"x_min":0,"x_max":0,"o":""},"걮":{"ha":1250,"x_min":0,"x_max":0,"o":""},"걯":{"ha":1250,"x_min":0,"x_max":0,"o":""},"거":{"ha":1273,"x_min":62,"x_max":1150,"o":"m 679 1034 q 725 988 725 1034 q 673 664 716 810 l 1019 664 l 1019 1134 l 1150 1134 l 1150 -147 l 1019 -147 l 1019 540 l 648 540 l 648 590 q 139 46 514 230 l 62 139 q 433 449 295 253 q 591 918 571 645 l 100 918 l 93 1034 l 679 1034 z "},"걱":{"ha":1273,"x_min":62,"x_max":1150,"o":"m 687 1088 q 733 1042 733 1088 q 699 872 727 951 l 1019 872 l 1019 1134 l 1150 1134 l 1150 409 l 1019 409 l 1019 756 l 664 756 l 664 787 q 447 553 590 647 q 108 417 304 460 l 62 540 q 586 972 529 637 l 100 972 l 93 1088 l 687 1088 m 1150 -162 l 1019 -162 l 1019 185 l 208 185 l 208 301 l 1150 301 l 1150 -162 z "},"걲":{"ha":1250,"x_min":0,"x_max":0,"o":""},"걳":{"ha":1250,"x_min":0,"x_max":0,"o":""},"건":{"ha":1273,"x_min":62,"x_max":1188,"o":"m 687 1088 q 733 1042 733 1088 q 688 833 725 931 l 1019 833 l 1019 1134 l 1150 1134 l 1150 185 l 1019 185 l 1019 718 l 664 718 l 664 779 q 447 533 590 633 q 108 386 304 434 l 62 502 q 433 681 301 562 q 590 972 565 799 l 100 972 l 93 1088 l 687 1088 m 363 278 l 363 -8 l 1181 -8 l 1188 -131 l 285 -131 q 239 -85 239 -131 l 239 278 l 363 278 z "},"걵":{"ha":1250,"x_min":0,"x_max":0,"o":""},"걶":{"ha":1250,"x_min":0,"x_max":0,"o":""},"걷":{"ha":1273,"x_min":62,"x_max":1173,"o":"m 687 1088 q 733 1042 733 1088 q 701 880 727 952 l 1019 880 l 1019 1134 l 1150 1134 l 1150 440 l 1019 440 l 1019 764 l 671 764 l 671 813 q 108 455 534 548 l 62 571 q 431 718 302 622 q 586 972 559 815 l 100 972 l 93 1088 l 687 1088 m 1150 340 l 1150 224 l 363 224 l 363 -31 l 1165 -31 l 1173 -147 l 278 -147 q 231 -100 231 -147 l 231 340 l 1150 340 z "},"걸":{"ha":1273,"x_min":62,"x_max":1173,"o":"m 687 1088 q 733 1042 733 1088 q 710 918 728 975 l 1019 918 l 1019 1134 l 1150 1134 l 1150 517 l 1019 517 l 1019 802 l 671 802 l 671 832 q 108 502 534 591 l 62 617 q 419 748 289 662 q 583 972 549 833 l 100 972 l 93 1088 l 687 1088 m 1150 440 l 1150 93 l 355 93 l 355 -46 l 1165 -46 l 1173 -154 l 278 -154 q 231 -108 231 -154 l 231 193 l 1026 193 l 1026 332 l 231 332 l 231 440 l 1150 440 z "},"걹":{"ha":1250,"x_min":0,"x_max":0,"o":""},"걺":{"ha":1273,"x_min":62,"x_max":1150,"o":"m 687 1088 q 733 1042 733 1088 q 710 918 728 975 l 1019 918 l 1019 1134 l 1150 1134 l 1150 517 l 1019 517 l 1019 802 l 671 802 l 671 832 q 108 502 534 591 l 62 617 q 419 748 289 662 q 583 972 549 833 l 100 972 l 93 1088 l 687 1088 m 1150 440 l 1150 -154 l 733 -154 l 733 440 l 1150 440 m 1034 -39 l 1034 324 l 849 324 l 849 -39 l 1034 -39 m 216 440 l 656 440 l 656 100 l 340 100 l 340 -42 q 679 -15 542 -42 l 694 -123 q 508 -148 606 -142 q 262 -154 410 -154 q 216 -108 216 -154 l 216 201 l 532 201 l 532 332 l 216 332 l 216 440 z "},"걻":{"ha":1250,"x_min":0,"x_max":0,"o":""},"걼":{"ha":1250,"x_min":0,"x_max":0,"o":""},"걽":{"ha":1250,"x_min":0,"x_max":0,"o":""},"걾":{"ha":1250,"x_min":0,"x_max":0,"o":""},"걿":{"ha":1250,"x_min":0,"x_max":0,"o":""},"검":{"ha":1273,"x_min":62,"x_max":1150,"o":"m 687 1088 q 733 1042 733 1088 q 701 880 727 952 l 1019 880 l 1019 1134 l 1150 1134 l 1150 440 l 1019 440 l 1019 764 l 671 764 l 671 813 q 108 455 534 548 l 62 571 q 431 718 302 622 q 586 972 559 815 l 100 972 l 93 1088 l 687 1088 m 1150 340 l 1150 -147 l 278 -147 q 231 -100 231 -147 l 231 340 l 1150 340 m 1019 -31 l 1019 224 l 363 224 l 363 -31 l 1019 -31 z "},"겁":{"ha":1273,"x_min":62,"x_max":1150,"o":"m 687 1088 q 733 1042 733 1088 q 701 880 727 952 l 1019 880 l 1019 1134 l 1150 1134 l 1150 440 l 1019 440 l 1019 764 l 671 764 l 671 813 q 108 455 534 548 l 62 571 q 431 718 302 622 q 586 972 559 815 l 100 972 l 93 1088 l 687 1088 m 363 370 l 363 224 l 1019 224 l 1019 370 l 1150 370 l 1150 -147 l 278 -147 q 231 -100 231 -147 l 231 370 l 363 370 m 1019 -39 l 1019 116 l 363 116 l 363 -39 l 1019 -39 z "},"겂":{"ha":1273,"x_min":62,"x_max":1281,"o":"m 687 1088 q 733 1042 733 1088 q 701 880 727 952 l 1019 880 l 1019 1134 l 1150 1134 l 1150 440 l 1019 440 l 1019 764 l 671 764 l 671 813 q 108 455 534 548 l 62 571 q 431 718 302 622 q 586 972 559 815 l 100 972 l 93 1088 l 687 1088 m 324 370 l 324 224 l 556 224 l 556 370 l 671 370 l 671 -147 l 262 -147 q 216 -100 216 -147 l 216 370 l 324 370 m 556 -39 l 556 123 l 324 123 l 324 -39 l 556 -39 m 1042 386 l 1042 285 q 1110 73 1042 162 q 1281 -69 1177 -17 l 1188 -162 q 1073 -74 1130 -128 q 978 54 1017 -20 q 880 -79 938 -23 q 764 -170 823 -136 l 679 -77 q 849 69 779 -25 q 918 285 918 164 l 918 386 l 1042 386 z "},"것":{"ha":1273,"x_min":62,"x_max":1242,"o":"m 687 1088 q 733 1042 733 1088 q 688 833 725 931 l 1019 833 l 1019 1134 l 1150 1134 l 1150 324 l 1019 324 l 1019 718 l 664 718 l 664 779 q 447 533 590 633 q 108 386 304 434 l 62 502 q 433 681 301 562 q 590 972 565 799 l 100 972 l 93 1088 l 687 1088 m 772 440 l 772 363 q 848 182 772 269 q 1035 33 924 96 q 1242 -54 1145 -29 l 1181 -162 q 921 -42 1059 -128 q 708 165 782 43 q 570 11 656 80 q 394 -104 485 -59 q 231 -170 304 -150 l 177 -62 q 382 29 272 -35 q 570 181 492 93 q 648 363 648 270 l 648 440 l 772 440 z "},"겄":{"ha":1273,"x_min":62,"x_max":1304,"o":"m 687 1088 q 733 1042 733 1088 q 699 872 727 951 l 1019 872 l 1019 1134 l 1150 1134 l 1150 409 l 1019 409 l 1019 756 l 664 756 l 664 787 q 447 553 590 647 q 108 417 304 460 l 62 540 q 586 972 529 637 l 100 972 l 93 1088 l 687 1088 m 123 -77 q 320 82 239 -12 q 401 301 401 176 l 401 370 l 517 370 l 517 293 q 574 119 517 201 q 715 -25 631 37 q 853 119 796 37 q 910 293 910 201 l 910 370 l 1019 370 l 1019 293 q 1103 80 1019 173 q 1304 -69 1188 -12 l 1227 -162 q 963 90 1040 -57 q 845 -67 917 2 q 710 -170 773 -136 q 575 -65 644 -130 q 460 85 506 0 q 201 -170 380 -62 l 123 -77 z "},"겅":{"ha":1273,"x_min":62,"x_max":1165,"o":"m 687 1088 q 733 1042 733 1088 q 699 872 727 951 l 1019 872 l 1019 1134 l 1150 1134 l 1150 409 l 1019 409 l 1019 756 l 664 756 l 664 787 q 447 553 590 647 q 108 417 304 460 l 62 540 q 586 972 529 637 l 100 972 l 93 1088 l 687 1088 m 687 -170 q 333 -100 458 -170 q 208 93 208 -31 q 333 292 208 221 q 687 363 457 363 q 1039 292 912 363 q 1165 93 1165 221 q 1039 -100 1165 -29 q 687 -170 912 -170 m 687 -54 q 938 -15 849 -54 q 1026 93 1026 23 q 937 205 1026 164 q 687 247 847 247 q 435 205 523 247 q 347 93 347 164 q 434 -15 347 23 q 687 -54 520 -54 z "},"겆":{"ha":1273,"x_min":62,"x_max":1242,"o":"m 687 1088 q 733 1042 733 1088 q 701 880 727 952 l 1019 880 l 1019 1134 l 1150 1134 l 1150 440 l 1019 440 l 1019 764 l 671 764 l 671 813 q 108 455 534 548 l 62 571 q 431 718 302 622 q 586 972 559 815 l 100 972 l 93 1088 l 687 1088 m 177 -62 q 373 -1 272 -42 q 552 100 475 40 q 645 231 630 160 l 247 231 l 247 347 l 1181 347 l 1181 231 l 775 231 q 941 56 798 130 q 1242 -54 1085 -19 l 1181 -162 q 913 -63 1042 -125 q 711 94 784 -2 q 508 -69 639 -5 q 247 -170 377 -134 l 177 -62 z "},"겇":{"ha":1250,"x_min":0,"x_max":0,"o":""},"겈":{"ha":1250,"x_min":0,"x_max":0,"o":""},"겉":{"ha":1273,"x_min":62,"x_max":1173,"o":"m 687 1088 q 733 1042 733 1088 q 710 918 728 975 l 1019 918 l 1019 1134 l 1150 1134 l 1150 517 l 1019 517 l 1019 802 l 671 802 l 671 832 q 108 502 534 591 l 62 617 q 419 748 289 662 q 583 972 549 833 l 100 972 l 93 1088 l 687 1088 m 1157 440 l 1157 332 l 355 332 l 355 193 l 1150 193 l 1150 93 l 355 93 l 355 -46 l 1165 -46 l 1173 -154 l 278 -154 q 231 -108 231 -154 l 231 440 l 1157 440 z "},"겊":{"ha":1273,"x_min":62,"x_max":1188,"o":"m 687 1088 q 733 1042 733 1088 q 701 880 727 952 l 1019 880 l 1019 1134 l 1150 1134 l 1150 440 l 1019 440 l 1019 764 l 671 764 l 671 813 q 108 455 534 548 l 62 571 q 431 718 302 622 q 586 972 559 815 l 100 972 l 93 1088 l 687 1088 m 437 -31 l 421 231 l 216 231 l 216 347 l 1165 347 l 1165 231 l 968 231 l 952 -31 l 1181 -31 l 1188 -147 l 193 -147 l 193 -31 l 437 -31 m 829 -31 l 844 231 l 545 231 l 560 -31 l 829 -31 z "},"겋":{"ha":1273,"x_min":62,"x_max":1188,"o":"m 687 1088 q 733 1042 733 1088 q 710 918 728 975 l 1019 918 l 1019 1134 l 1150 1134 l 1150 517 l 1019 517 l 1019 802 l 671 802 l 671 832 q 108 502 534 591 l 62 617 q 419 748 289 662 q 583 972 549 833 l 100 972 l 93 1088 l 687 1088 m 710 -170 q 391 -118 505 -170 q 278 31 278 -66 q 393 177 278 123 q 710 231 508 231 q 1031 177 912 231 q 1150 31 1150 123 q 1032 -118 1150 -66 q 710 -170 915 -170 m 710 -69 q 932 -42 853 -69 q 1011 31 1011 -15 q 931 98 1011 73 q 710 123 852 123 q 488 98 568 123 q 409 31 409 73 q 488 -42 409 -15 q 710 -69 566 -69 m 779 509 l 779 409 l 1188 409 l 1188 301 l 239 301 l 239 409 l 648 409 l 648 509 l 779 509 z "},"게":{"ha":1273,"x_min":31,"x_max":1173,"o":"m 571 1034 q 617 988 617 1034 q 580 702 610 832 l 795 702 l 795 1134 l 918 1134 l 918 -147 l 795 -147 l 795 579 l 556 579 l 556 608 q 386 279 495 415 q 123 46 276 144 l 31 131 q 351 444 228 255 q 491 918 474 634 l 77 918 l 69 1034 l 571 1034 m 1173 1134 l 1173 -147 l 1049 -147 l 1049 1134 l 1173 1134 z "},"겍":{"ha":1273,"x_min":39,"x_max":1173,"o":"m 571 1088 q 617 1042 617 1088 q 593 872 613 948 l 795 872 l 795 1134 l 918 1134 l 918 409 l 795 409 l 795 756 l 563 756 l 563 787 q 380 540 502 640 q 100 386 259 440 l 39 486 q 347 670 231 546 q 488 972 463 793 l 77 972 l 69 1088 l 571 1088 m 1173 1134 l 1173 409 l 1049 409 l 1049 1134 l 1173 1134 m 1173 -162 l 1049 -162 l 1049 185 l 208 185 l 208 301 l 1173 301 l 1173 -162 z "},"겎":{"ha":1250,"x_min":0,"x_max":0,"o":""},"겏":{"ha":1250,"x_min":0,"x_max":0,"o":""},"겐":{"ha":1273,"x_min":39,"x_max":1196,"o":"m 571 1088 q 617 1042 617 1088 q 577 818 613 924 l 795 818 l 795 1134 l 918 1134 l 918 208 l 795 208 l 795 702 l 540 702 l 540 728 q 356 493 472 591 q 100 347 241 395 l 39 455 q 346 652 228 515 q 488 972 463 789 l 77 972 l 69 1088 l 571 1088 m 1173 1134 l 1173 208 l 1049 208 l 1049 1134 l 1173 1134 m 363 278 l 363 -8 l 1188 -8 l 1196 -131 l 278 -131 q 231 -85 231 -131 l 231 278 l 363 278 z "},"겑":{"ha":1250,"x_min":0,"x_max":0,"o":""},"겒":{"ha":1250,"x_min":0,"x_max":0,"o":""},"겓":{"ha":1250,"x_min":0,"x_max":0,"o":""},"겔":{"ha":1273,"x_min":39,"x_max":1196,"o":"m 617 1088 q 597 918 617 998 l 795 918 l 795 1134 l 918 1134 l 918 509 l 795 509 l 795 802 l 563 802 l 563 819 q 382 598 502 684 q 100 455 262 512 l 39 556 q 485 972 431 690 l 77 972 l 77 1088 l 617 1088 m 1173 1134 l 1173 509 l 1049 509 l 1049 1134 l 1173 1134 m 1173 440 l 1173 93 l 355 93 l 355 -46 l 1188 -46 l 1196 -154 l 278 -154 q 231 -108 231 -154 l 231 193 l 1049 193 l 1049 332 l 231 332 l 231 440 l 1173 440 z "},"겕":{"ha":1250,"x_min":0,"x_max":0,"o":""},"겖":{"ha":1250,"x_min":0,"x_max":0,"o":""},"겗":{"ha":1250,"x_min":0,"x_max":0,"o":""},"겘":{"ha":1250,"x_min":0,"x_max":0,"o":""},"겙":{"ha":1250,"x_min":0,"x_max":0,"o":""},"겚":{"ha":1250,"x_min":0,"x_max":0,"o":""},"겛":{"ha":1250,"x_min":0,"x_max":0,"o":""},"겜":{"ha":1273,"x_min":39,"x_max":1173,"o":"m 571 1088 q 617 1042 617 1088 q 593 880 613 954 l 795 880 l 795 1134 l 918 1134 l 918 440 l 795 440 l 795 764 l 563 764 l 563 795 q 100 409 449 529 l 39 509 q 488 972 438 636 l 77 972 l 69 1088 l 571 1088 m 1173 1134 l 1173 440 l 1049 440 l 1049 1134 l 1173 1134 m 1173 340 l 1173 -147 l 278 -147 q 231 -100 231 -147 l 231 340 l 1173 340 m 1042 -31 l 1042 224 l 363 224 l 363 -31 l 1042 -31 z "},"겝":{"ha":1273,"x_min":39,"x_max":1173,"o":"m 571 1088 q 617 1042 617 1088 q 593 880 613 954 l 795 880 l 795 1134 l 918 1134 l 918 440 l 795 440 l 795 764 l 563 764 l 563 795 q 100 409 449 529 l 39 509 q 488 972 438 636 l 77 972 l 69 1088 l 571 1088 m 1173 1134 l 1173 440 l 1049 440 l 1049 1134 l 1173 1134 m 363 370 l 363 224 l 1042 224 l 1042 370 l 1173 370 l 1173 -147 l 278 -147 q 231 -100 231 -147 l 231 370 l 363 370 m 1042 -31 l 1042 116 l 363 116 l 363 -31 l 1042 -31 z "},"겞":{"ha":1250,"x_min":0,"x_max":0,"o":""},"겟":{"ha":1273,"x_min":39,"x_max":1250,"o":"m 571 1088 q 617 1042 617 1088 q 585 841 613 934 l 795 841 l 795 1134 l 918 1134 l 918 409 l 795 409 l 795 725 l 540 725 l 540 728 q 356 493 472 591 q 100 347 241 395 l 39 455 q 346 652 228 515 q 488 972 463 789 l 77 972 l 69 1088 l 571 1088 m 1173 1134 l 1173 324 l 1049 324 l 1049 1134 l 1173 1134 m 779 386 l 779 309 q 856 153 779 227 q 1041 25 932 79 q 1250 -54 1150 -28 l 1188 -162 q 927 -52 1063 -128 q 716 131 790 23 q 502 -59 640 20 q 239 -170 364 -137 l 185 -62 q 392 20 282 -35 q 579 151 502 76 q 656 309 656 227 l 656 386 l 779 386 z "},"겠":{"ha":1273,"x_min":39,"x_max":1335,"o":"m 571 1088 q 617 1042 617 1088 q 593 872 613 948 l 795 872 l 795 1134 l 918 1134 l 918 409 l 795 409 l 795 756 l 563 756 l 563 787 q 380 540 502 640 q 100 386 259 440 l 39 486 q 347 670 231 546 q 488 972 463 793 l 77 972 l 69 1088 l 571 1088 m 1173 1134 l 1173 409 l 1049 409 l 1049 1134 l 1173 1134 m 108 -77 q 312 81 230 -9 q 394 301 394 171 l 394 370 l 517 370 l 517 301 q 722 -26 517 119 q 861 118 804 34 q 918 301 918 202 l 918 370 l 1042 370 l 1042 301 q 1128 81 1042 171 q 1335 -69 1215 -9 l 1250 -162 q 980 90 1062 -56 q 855 -67 931 2 q 718 -170 779 -136 q 579 -62 651 -128 q 457 88 506 3 q 339 -60 410 5 q 193 -170 267 -125 l 108 -77 z "},"겡":{"ha":1273,"x_min":39,"x_max":1196,"o":"m 571 1088 q 617 1042 617 1088 q 593 872 613 948 l 795 872 l 795 1134 l 918 1134 l 918 448 l 795 448 l 795 756 l 549 756 q 368 529 485 620 q 100 386 252 438 l 39 486 q 347 670 231 546 q 488 972 463 793 l 77 972 l 69 1088 l 571 1088 m 1173 1134 l 1173 417 l 1049 417 l 1049 1134 l 1173 1134 m 702 -170 q 342 -100 468 -170 q 216 93 216 -31 q 342 292 216 221 q 702 363 468 363 q 1067 292 938 363 q 1196 93 1196 221 q 1066 -100 1196 -29 q 702 -170 937 -170 m 702 -54 q 957 -15 864 -54 q 1049 93 1049 23 q 956 204 1049 162 q 702 247 863 247 q 451 205 539 247 q 363 93 363 164 q 449 -15 363 23 q 702 -54 535 -54 z "},"겢":{"ha":1250,"x_min":0,"x_max":0,"o":""},"겣":{"ha":1250,"x_min":0,"x_max":0,"o":""},"겤":{"ha":1250,"x_min":0,"x_max":0,"o":""},"겥":{"ha":1250,"x_min":0,"x_max":0,"o":""},"겦":{"ha":1250,"x_min":0,"x_max":0,"o":""},"겧":{"ha":1250,"x_min":0,"x_max":0,"o":""},"겨":{"ha":1273,"x_min":62,"x_max":1150,"o":"m 679 1034 q 725 988 725 1034 q 710 833 721 904 l 1019 833 l 1019 1134 l 1150 1134 l 1150 -147 l 1019 -147 l 1019 324 l 610 324 l 610 448 l 1019 448 l 1019 710 l 685 710 q 488 313 627 477 q 139 46 350 150 l 62 139 q 433 449 295 253 q 591 918 571 645 l 100 918 l 93 1034 l 679 1034 z "},"격":{"ha":1273,"x_min":62,"x_max":1150,"o":"m 687 1088 q 733 1042 733 1088 l 725 972 l 1019 972 l 1019 1134 l 1150 1134 l 1150 409 l 1019 409 l 1019 602 l 625 602 l 625 718 l 1019 718 l 1019 856 l 694 856 q 479 576 631 687 q 108 417 327 465 l 62 540 q 586 972 529 637 l 100 972 l 93 1088 l 687 1088 m 1150 -162 l 1019 -162 l 1019 185 l 208 185 l 208 301 l 1150 301 l 1150 -162 z "},"겪":{"ha":1273,"x_min":62,"x_max":1150,"o":"m 687 1088 q 733 1042 733 1088 l 725 972 l 1019 972 l 1019 1134 l 1150 1134 l 1150 409 l 1019 409 l 1019 602 l 625 602 l 625 718 l 1019 718 l 1019 856 l 694 856 q 479 576 631 687 q 108 417 327 465 l 62 540 q 586 972 529 637 l 100 972 l 93 1088 l 687 1088 m 648 -162 l 525 -162 l 525 185 l 193 185 l 193 301 l 648 301 l 648 -162 m 1150 -162 l 1019 -162 l 1019 185 l 710 185 l 710 301 l 1150 301 l 1150 -162 z "},"겫":{"ha":1250,"x_min":0,"x_max":0,"o":""},"견":{"ha":1273,"x_min":62,"x_max":1188,"o":"m 687 1088 q 733 1042 733 1088 q 719 941 731 1002 l 1019 941 l 1019 1134 l 1150 1134 l 1150 185 l 1019 185 l 1019 556 l 602 556 l 602 671 l 1019 671 l 1019 826 l 685 826 q 468 549 617 660 q 108 386 319 437 l 62 502 q 433 681 301 562 q 590 972 565 799 l 100 972 l 93 1088 l 687 1088 m 363 278 l 363 -8 l 1181 -8 l 1188 -131 l 285 -131 q 239 -85 239 -131 l 239 278 l 363 278 z "},"겭":{"ha":1250,"x_min":0,"x_max":0,"o":""},"겮":{"ha":1250,"x_min":0,"x_max":0,"o":""},"겯":{"ha":1273,"x_min":62,"x_max":1173,"o":"m 687 1088 q 733 1042 733 1088 q 727 988 730 1011 l 1019 988 l 1019 1134 l 1150 1134 l 1150 440 l 1019 440 l 1019 625 l 633 625 l 633 741 l 1019 741 l 1019 872 l 698 872 q 108 455 580 559 l 62 571 q 431 718 302 622 q 586 972 559 815 l 100 972 l 93 1088 l 687 1088 m 1150 340 l 1150 224 l 363 224 l 363 -31 l 1165 -31 l 1173 -147 l 278 -147 q 231 -100 231 -147 l 231 340 l 1150 340 z "},"결":{"ha":1273,"x_min":62,"x_max":1173,"o":"m 687 1088 q 733 1042 733 1088 l 728 1003 l 1019 1003 l 1019 1134 l 1150 1134 l 1150 517 l 1019 517 l 1019 664 l 640 664 l 640 772 l 1019 772 l 1019 895 l 701 895 q 486 644 642 741 q 108 502 330 548 l 62 617 q 419 748 289 662 q 583 972 549 833 l 100 972 l 93 1088 l 687 1088 m 1150 440 l 1150 93 l 355 93 l 355 -46 l 1165 -46 l 1173 -154 l 278 -154 q 231 -108 231 -154 l 231 193 l 1026 193 l 1026 332 l 231 332 l 231 440 l 1150 440 z "},"겱":{"ha":1250,"x_min":0,"x_max":0,"o":""},"겲":{"ha":1250,"x_min":0,"x_max":0,"o":""},"겳":{"ha":1250,"x_min":0,"x_max":0,"o":""},"겴":{"ha":1250,"x_min":0,"x_max":0,"o":""},"겵":{"ha":1250,"x_min":0,"x_max":0,"o":""},"겶":{"ha":1250,"x_min":0,"x_max":0,"o":""},"겷":{"ha":1273,"x_min":62,"x_max":1235,"o":"m 687 1088 q 733 1042 733 1088 l 728 1003 l 1019 1003 l 1019 1134 l 1150 1134 l 1150 517 l 1019 517 l 1019 664 l 640 664 l 640 772 l 1019 772 l 1019 895 l 701 895 q 486 644 642 741 q 108 502 330 548 l 62 617 q 419 748 289 662 q 583 972 549 833 l 100 972 l 93 1088 l 687 1088 m 1026 494 l 1026 386 l 1235 386 l 1235 278 l 694 278 l 694 386 l 903 386 l 903 494 l 1026 494 m 965 -170 q 789 -119 853 -170 q 725 23 725 -68 q 790 170 725 116 q 965 224 855 224 q 1139 170 1074 224 q 1204 23 1204 116 q 1140 -119 1204 -68 q 965 -170 1076 -170 m 965 -69 q 1056 -46 1023 -69 q 1088 23 1088 -23 q 1055 96 1088 69 q 965 123 1022 123 q 867 96 901 123 q 833 23 833 69 q 965 -69 833 -69 m 216 440 l 656 440 l 656 100 l 340 100 l 340 -42 q 679 -15 542 -42 l 694 -123 q 508 -148 606 -142 q 262 -154 410 -154 q 216 -108 216 -154 l 216 201 l 532 201 l 532 332 l 216 332 l 216 440 z "},"겸":{"ha":1273,"x_min":62,"x_max":1150,"o":"m 687 1088 q 733 1042 733 1088 q 727 988 730 1011 l 1019 988 l 1019 1134 l 1150 1134 l 1150 440 l 1019 440 l 1019 625 l 633 625 l 633 741 l 1019 741 l 1019 872 l 698 872 q 108 455 580 559 l 62 571 q 431 718 302 622 q 586 972 559 815 l 100 972 l 93 1088 l 687 1088 m 1150 340 l 1150 -147 l 278 -147 q 231 -100 231 -147 l 231 340 l 1150 340 m 1019 -31 l 1019 224 l 363 224 l 363 -31 l 1019 -31 z "},"겹":{"ha":1273,"x_min":62,"x_max":1150,"o":"m 687 1088 q 733 1042 733 1088 q 727 988 730 1011 l 1019 988 l 1019 1134 l 1150 1134 l 1150 440 l 1019 440 l 1019 625 l 633 625 l 633 741 l 1019 741 l 1019 872 l 698 872 q 108 455 580 559 l 62 571 q 431 718 302 622 q 586 972 559 815 l 100 972 l 93 1088 l 687 1088 m 363 370 l 363 224 l 1019 224 l 1019 370 l 1150 370 l 1150 -147 l 278 -147 q 231 -100 231 -147 l 231 370 l 363 370 m 1019 -39 l 1019 116 l 363 116 l 363 -39 l 1019 -39 z "},"겺":{"ha":1250,"x_min":0,"x_max":0,"o":""},"겻":{"ha":1273,"x_min":62,"x_max":1242,"o":"m 687 1088 q 733 1042 733 1088 q 722 957 731 1008 l 1019 957 l 1019 1134 l 1150 1134 l 1150 324 l 1019 324 l 1019 586 l 617 586 l 617 702 q 406 506 537 586 q 108 386 275 426 l 62 502 q 433 681 301 562 q 590 972 565 799 l 100 972 l 93 1088 l 687 1088 m 1019 702 l 1019 841 l 690 841 q 617 702 660 764 l 1019 702 m 772 440 l 772 363 q 848 182 772 269 q 1035 33 924 96 q 1242 -54 1145 -29 l 1181 -162 q 921 -42 1059 -128 q 708 165 782 43 q 570 11 656 80 q 394 -104 485 -59 q 231 -170 304 -150 l 177 -62 q 382 29 272 -35 q 570 181 492 93 q 648 363 648 270 l 648 440 l 772 440 z "},"겼":{"ha":1273,"x_min":62,"x_max":1304,"o":"m 687 1088 q 733 1042 733 1088 l 725 972 l 1019 972 l 1019 1134 l 1150 1134 l 1150 409 l 1019 409 l 1019 602 l 625 602 l 625 718 l 1019 718 l 1019 856 l 694 856 q 479 576 631 687 q 108 417 327 465 l 62 540 q 586 972 529 637 l 100 972 l 93 1088 l 687 1088 m 123 -77 q 320 82 239 -12 q 401 301 401 176 l 401 370 l 517 370 l 517 293 q 574 119 517 201 q 715 -25 631 37 q 853 119 796 37 q 910 293 910 201 l 910 370 l 1019 370 l 1019 293 q 1103 80 1019 173 q 1304 -69 1188 -12 l 1227 -162 q 963 90 1040 -57 q 845 -67 917 2 q 710 -170 773 -136 q 575 -65 644 -130 q 460 85 506 0 q 201 -170 380 -62 l 123 -77 z "},"경":{"ha":1273,"x_min":62,"x_max":1165,"o":"m 687 1088 q 733 1042 733 1088 l 725 972 l 1019 972 l 1019 1134 l 1150 1134 l 1150 409 l 1019 409 l 1019 602 l 625 602 l 625 718 l 1019 718 l 1019 856 l 694 856 q 479 576 631 687 q 108 417 327 465 l 62 540 q 586 972 529 637 l 100 972 l 93 1088 l 687 1088 m 687 -170 q 333 -100 458 -170 q 208 93 208 -31 q 333 292 208 221 q 687 363 457 363 q 1039 292 912 363 q 1165 93 1165 221 q 1039 -100 1165 -29 q 687 -170 912 -170 m 687 -54 q 938 -15 849 -54 q 1026 93 1026 23 q 937 205 1026 164 q 687 247 847 247 q 435 205 523 247 q 347 93 347 164 q 434 -15 347 23 q 687 -54 520 -54 z "},"겾":{"ha":1250,"x_min":0,"x_max":0,"o":""},"겿":{"ha":1273,"x_min":62,"x_max":1242,"o":"m 687 1088 q 733 1042 733 1088 q 727 988 730 1011 l 1019 988 l 1019 1134 l 1150 1134 l 1150 440 l 1019 440 l 1019 625 l 633 625 l 633 741 l 1019 741 l 1019 872 l 698 872 q 108 455 580 559 l 62 571 q 431 718 302 622 q 586 972 559 815 l 100 972 l 93 1088 l 687 1088 m 772 448 l 772 324 l 1181 324 l 1181 208 l 773 208 q 928 42 790 106 q 1242 -62 1066 -23 l 1173 -162 q 711 68 835 -88 q 514 -82 640 -25 q 255 -170 387 -139 l 177 -69 q 489 36 349 -32 q 647 208 630 105 l 247 208 l 247 324 l 648 324 l 648 448 l 772 448 z "},"곀":{"ha":1250,"x_min":0,"x_max":0,"o":""},"곁":{"ha":1273,"x_min":62,"x_max":1173,"o":"m 687 1088 q 733 1042 733 1088 l 728 1003 l 1019 1003 l 1019 1134 l 1150 1134 l 1150 517 l 1019 517 l 1019 664 l 640 664 l 640 772 l 1019 772 l 1019 895 l 701 895 q 486 644 642 741 q 108 502 330 548 l 62 617 q 419 748 289 662 q 583 972 549 833 l 100 972 l 93 1088 l 687 1088 m 1157 440 l 1157 332 l 355 332 l 355 193 l 1150 193 l 1150 93 l 355 93 l 355 -46 l 1165 -46 l 1173 -154 l 278 -154 q 231 -108 231 -154 l 231 440 l 1157 440 z "},"곂":{"ha":1250,"x_min":0,"x_max":0,"o":""},"곃":{"ha":1250,"x_min":0,"x_max":0,"o":""},"계":{"ha":1273,"x_min":31,"x_max":1173,"o":"m 571 1034 q 617 988 617 1034 q 603 833 613 906 l 795 833 l 795 1134 l 918 1134 l 918 -147 l 795 -147 l 795 324 l 532 324 l 532 448 l 795 448 l 795 710 l 582 710 q 414 316 531 475 q 123 46 298 156 l 31 131 q 351 444 228 255 q 491 918 474 634 l 77 918 l 69 1034 l 571 1034 m 1173 1134 l 1173 -147 l 1049 -147 l 1049 1134 l 1173 1134 z "},"곅":{"ha":1250,"x_min":0,"x_max":0,"o":""},"곆":{"ha":1250,"x_min":0,"x_max":0,"o":""},"곇":{"ha":1250,"x_min":0,"x_max":0,"o":""},"곈":{"ha":1273,"x_min":39,"x_max":1196,"o":"m 571 1088 q 617 1042 617 1088 q 610 957 614 989 l 795 957 l 795 1134 l 918 1134 l 918 208 l 795 208 l 795 571 l 525 571 l 525 687 l 795 687 l 795 841 l 585 841 q 400 532 531 659 q 100 347 270 406 l 39 455 q 346 652 228 515 q 488 972 463 789 l 77 972 l 69 1088 l 571 1088 m 1173 1134 l 1173 208 l 1049 208 l 1049 1134 l 1173 1134 m 363 278 l 363 -8 l 1188 -8 l 1196 -131 l 278 -131 q 231 -85 231 -131 l 231 278 l 363 278 z "},"곉":{"ha":1250,"x_min":0,"x_max":0,"o":""},"곊":{"ha":1250,"x_min":0,"x_max":0,"o":""},"곋":{"ha":1250,"x_min":0,"x_max":0,"o":""},"곌":{"ha":1273,"x_min":39,"x_max":1196,"o":"m 617 1088 q 613 1003 617 1045 l 795 1003 l 795 1134 l 918 1134 l 918 509 l 795 509 l 795 664 l 540 664 l 540 772 l 795 772 l 795 895 l 591 895 q 414 624 542 727 q 100 455 285 522 l 39 556 q 485 972 431 690 l 77 972 l 77 1088 l 617 1088 m 1173 1134 l 1173 509 l 1049 509 l 1049 1134 l 1173 1134 m 1173 440 l 1173 93 l 355 93 l 355 -46 l 1188 -46 l 1196 -154 l 278 -154 q 231 -108 231 -154 l 231 193 l 1049 193 l 1049 332 l 231 332 l 231 440 l 1173 440 z "},"곍":{"ha":1250,"x_min":0,"x_max":0,"o":""},"곎":{"ha":1250,"x_min":0,"x_max":0,"o":""},"곏":{"ha":1250,"x_min":0,"x_max":0,"o":""},"곐":{"ha":1250,"x_min":0,"x_max":0,"o":""},"곑":{"ha":1250,"x_min":0,"x_max":0,"o":""},"곒":{"ha":1250,"x_min":0,"x_max":0,"o":""},"곓":{"ha":1250,"x_min":0,"x_max":0,"o":""},"곔":{"ha":1250,"x_min":0,"x_max":0,"o":""},"곕":{"ha":1273,"x_min":39,"x_max":1173,"o":"m 571 1088 q 617 1042 617 1088 l 613 988 l 795 988 l 795 1134 l 918 1134 l 918 440 l 795 440 l 795 625 l 540 625 l 540 741 l 795 741 l 795 872 l 591 872 q 100 409 498 546 l 39 509 q 488 972 438 636 l 77 972 l 69 1088 l 571 1088 m 1173 1134 l 1173 440 l 1049 440 l 1049 1134 l 1173 1134 m 363 370 l 363 224 l 1042 224 l 1042 370 l 1173 370 l 1173 -147 l 278 -147 q 231 -100 231 -147 l 231 370 l 363 370 m 1042 -31 l 1042 116 l 363 116 l 363 -31 l 1042 -31 z "},"곖":{"ha":1250,"x_min":0,"x_max":0,"o":""},"곗":{"ha":1273,"x_min":39,"x_max":1250,"o":"m 571 1088 q 617 1042 617 1088 l 611 972 l 795 972 l 795 1134 l 918 1134 l 918 409 l 795 409 l 795 602 l 517 602 l 517 685 q 339 478 448 563 q 100 347 230 392 l 39 455 q 346 652 228 515 q 488 972 463 789 l 77 972 l 69 1088 l 571 1088 m 1173 1134 l 1173 324 l 1049 324 l 1049 1134 l 1173 1134 m 779 386 l 779 309 q 856 153 779 227 q 1041 25 932 79 q 1250 -54 1150 -28 l 1188 -162 q 927 -52 1063 -128 q 716 131 790 23 q 502 -59 640 20 q 239 -170 364 -137 l 185 -62 q 392 20 282 -35 q 579 151 502 76 q 656 309 656 227 l 656 386 l 779 386 m 795 718 l 795 856 l 588 856 q 534 718 568 784 l 795 718 z "},"곘":{"ha":1273,"x_min":39,"x_max":1335,"o":"m 571 1088 q 617 1042 617 1088 l 611 972 l 795 972 l 795 1134 l 918 1134 l 918 409 l 795 409 l 795 602 l 517 602 l 517 698 q 341 508 449 586 q 100 386 233 431 l 39 486 q 347 670 231 546 q 488 972 463 793 l 77 972 l 69 1088 l 571 1088 m 1173 1134 l 1173 409 l 1049 409 l 1049 1134 l 1173 1134 m 108 -77 q 312 81 230 -9 q 394 301 394 171 l 394 370 l 517 370 l 517 301 q 722 -26 517 119 q 861 118 804 34 q 918 301 918 202 l 918 370 l 1042 370 l 1042 301 q 1128 81 1042 171 q 1335 -69 1215 -9 l 1250 -162 q 980 90 1062 -56 q 855 -67 931 2 q 718 -170 779 -136 q 579 -62 651 -128 q 457 88 506 3 q 339 -60 410 5 q 193 -170 267 -125 l 108 -77 m 795 718 l 795 856 l 588 856 q 529 718 565 779 l 795 718 z "},"곙":{"ha":1250,"x_min":0,"x_max":0,"o":""},"곚":{"ha":1250,"x_min":0,"x_max":0,"o":""},"곛":{"ha":1250,"x_min":0,"x_max":0,"o":""},"곜":{"ha":1250,"x_min":0,"x_max":0,"o":""},"곝":{"ha":1250,"x_min":0,"x_max":0,"o":""},"곞":{"ha":1250,"x_min":0,"x_max":0,"o":""},"곟":{"ha":1250,"x_min":0,"x_max":0,"o":""},"고":{"ha":1273,"x_min":62,"x_max":1227,"o":"m 1065 1057 q 1111 1011 1111 1057 q 1093 636 1111 804 q 1042 278 1076 468 l 918 301 q 968 615 949 465 q 989 941 988 765 l 154 941 l 147 1057 l 1065 1057 m 602 633 l 602 62 l 1219 62 l 1227 -54 l 62 -54 l 62 62 l 478 62 l 478 633 l 602 633 z "},"곡":{"ha":1273,"x_min":62,"x_max":1227,"o":"m 1065 1111 q 1111 1065 1111 1111 q 1065 694 1100 869 l 941 702 q 988 995 981 852 l 154 995 l 147 1111 l 1065 1111 m 525 579 l 525 802 l 656 802 l 656 579 l 1227 579 l 1227 463 l 62 463 l 62 579 l 525 579 m 1111 -162 l 988 -162 l 988 162 l 154 162 l 154 278 l 1111 278 l 1111 -162 z "},"곢":{"ha":1250,"x_min":0,"x_max":0,"o":""},"곣":{"ha":1250,"x_min":0,"x_max":0,"o":""},"곤":{"ha":1273,"x_min":62,"x_max":1227,"o":"m 1065 1111 q 1111 1065 1111 1111 q 1065 640 1111 861 l 941 648 q 988 995 981 863 l 154 995 l 147 1111 l 1065 1111 m 525 540 l 525 810 l 656 810 l 656 540 l 1227 540 l 1227 424 l 62 424 l 62 540 l 525 540 m 301 301 l 301 -8 l 1134 -8 l 1142 -131 l 224 -131 q 177 -85 177 -131 l 177 301 l 301 301 z "},"곥":{"ha":1250,"x_min":0,"x_max":0,"o":""},"곦":{"ha":1250,"x_min":0,"x_max":0,"o":""},"곧":{"ha":1273,"x_min":62,"x_max":1227,"o":"m 1065 1111 q 1111 1065 1111 1111 q 1101 900 1111 974 q 1065 702 1091 826 l 941 718 q 973 873 963 815 q 988 995 983 932 l 154 995 l 147 1111 l 1065 1111 m 525 586 l 525 810 l 656 810 l 656 586 l 1227 586 l 1227 471 l 62 471 l 62 586 l 525 586 m 1119 316 l 1119 201 l 293 201 l 293 -31 l 1119 -31 l 1127 -147 l 216 -147 q 170 -100 170 -147 l 170 316 l 1119 316 z "},"골":{"ha":1273,"x_min":62,"x_max":1227,"o":"m 1065 1111 q 1111 1065 1111 1111 q 1096 893 1103 961 q 1073 756 1088 824 l 949 764 q 986 995 977 878 l 154 995 l 147 1111 l 1065 1111 m 525 671 l 525 864 l 656 864 l 656 671 l 1227 671 l 1227 556 l 62 556 l 62 671 l 525 671 m 1119 424 l 1119 85 l 293 85 l 293 -46 l 1134 -46 l 1142 -154 l 216 -154 q 170 -108 170 -154 l 170 185 l 995 185 l 995 316 l 170 316 l 170 424 l 1119 424 z "},"곩":{"ha":1250,"x_min":0,"x_max":0,"o":""},"곪":{"ha":1273,"x_min":62,"x_max":1227,"o":"m 1065 1111 q 1111 1065 1111 1111 q 1096 893 1103 961 q 1073 756 1088 824 l 949 764 q 986 995 977 878 l 154 995 l 147 1111 l 1065 1111 m 525 671 l 525 864 l 656 864 l 656 671 l 1227 671 l 1227 556 l 62 556 l 62 671 l 525 671 m 1119 417 l 1119 -154 l 702 -154 l 702 417 l 1119 417 m 1003 -39 l 1003 309 l 810 309 l 810 -39 l 1003 -39 m 170 417 l 625 417 l 625 93 l 293 93 l 293 -42 q 656 -15 519 -42 l 664 -123 q 216 -154 506 -151 q 170 -108 170 -154 l 170 193 l 502 193 l 502 316 l 170 316 l 170 417 z "},"곫":{"ha":1250,"x_min":0,"x_max":0,"o":""},"곬":{"ha":1273,"x_min":62,"x_max":1235,"o":"m 1065 1111 q 1111 1065 1111 1111 q 1096 893 1103 961 q 1073 756 1088 824 l 949 764 q 986 995 977 878 l 154 995 l 147 1111 l 1065 1111 m 525 671 l 525 864 l 656 864 l 656 671 l 1227 671 l 1227 556 l 62 556 l 62 671 l 525 671 m 995 440 l 995 324 q 1064 93 995 187 q 1235 -54 1133 0 l 1142 -147 q 934 80 1006 -60 q 836 -59 894 0 q 718 -154 779 -117 l 640 -69 l 648 -123 q 462 -148 560 -142 q 216 -154 364 -154 q 170 -108 170 -154 l 170 193 l 502 193 l 502 316 l 170 316 l 170 417 l 625 417 l 625 93 l 293 93 l 293 -48 q 633 -23 451 -48 l 639 -59 q 804 94 736 -2 q 872 324 872 190 l 872 440 l 995 440 z "},"곭":{"ha":1250,"x_min":0,"x_max":0,"o":""},"곮":{"ha":1250,"x_min":0,"x_max":0,"o":""},"곯":{"ha":1273,"x_min":62,"x_max":1227,"o":"m 1065 1111 q 1111 1065 1111 1111 q 1096 893 1103 961 q 1073 756 1088 824 l 949 764 q 986 995 977 878 l 154 995 l 147 1111 l 1065 1111 m 525 671 l 525 864 l 656 864 l 656 671 l 1227 671 l 1227 556 l 62 556 l 62 671 l 525 671 m 980 463 l 980 363 l 1188 363 l 1188 262 l 648 262 l 648 363 l 856 363 l 856 463 l 980 463 m 918 -177 q 744 -125 809 -177 q 679 15 679 -73 q 745 149 679 97 q 918 201 810 201 q 1092 149 1026 201 q 1157 15 1157 97 q 1093 -125 1157 -73 q 918 -177 1028 -177 m 918 -77 q 1009 -54 977 -77 q 1042 15 1042 -31 q 1009 78 1042 56 q 918 100 977 100 q 821 78 855 100 q 787 15 787 56 q 918 -77 787 -77 m 170 417 l 625 417 l 625 93 l 293 93 l 293 -42 q 656 -15 519 -42 l 664 -123 q 216 -154 506 -151 q 170 -108 170 -154 l 170 193 l 502 193 l 502 316 l 170 316 l 170 417 z "},"곰":{"ha":1273,"x_min":62,"x_max":1227,"o":"m 1065 1111 q 1111 1065 1111 1111 q 1101 900 1111 974 q 1065 702 1091 826 l 941 718 q 973 873 963 815 q 988 995 983 932 l 154 995 l 147 1111 l 1065 1111 m 525 586 l 525 810 l 656 810 l 656 586 l 1227 586 l 1227 471 l 62 471 l 62 586 l 525 586 m 1119 324 l 1119 -147 l 216 -147 q 170 -100 170 -147 l 170 324 l 1119 324 m 995 -31 l 995 208 l 293 208 l 293 -31 l 995 -31 z "},"곱":{"ha":1273,"x_min":62,"x_max":1227,"o":"m 1065 1111 q 1111 1065 1111 1111 q 1101 900 1111 974 q 1065 702 1091 826 l 941 718 q 973 873 963 815 q 988 995 983 932 l 154 995 l 147 1111 l 1065 1111 m 525 586 l 525 810 l 656 810 l 656 586 l 1227 586 l 1227 471 l 62 471 l 62 586 l 525 586 m 293 363 l 293 216 l 995 216 l 995 363 l 1119 363 l 1119 -147 l 216 -147 q 170 -100 170 -147 l 170 363 l 293 363 m 995 -39 l 995 108 l 293 108 l 293 -39 l 995 -39 z "},"곲":{"ha":1250,"x_min":0,"x_max":0,"o":""},"곳":{"ha":1273,"x_min":62,"x_max":1227,"o":"m 1065 1111 q 1111 1065 1111 1111 q 1065 640 1111 861 l 941 648 q 988 995 981 863 l 154 995 l 147 1111 l 1065 1111 m 525 540 l 525 810 l 656 810 l 656 540 l 1227 540 l 1227 424 l 62 424 l 62 540 l 525 540 m 710 324 l 710 262 q 859 64 710 140 q 1196 -54 1008 -12 l 1134 -162 q 865 -76 1008 -139 q 645 86 722 -12 q 424 -82 566 -17 q 154 -170 281 -147 l 93 -62 q 308 -1 196 -43 q 499 109 420 42 q 579 262 579 176 l 579 324 l 710 324 z "},"곴":{"ha":1250,"x_min":0,"x_max":0,"o":""},"공":{"ha":1273,"x_min":62,"x_max":1227,"o":"m 1065 1111 q 1111 1065 1111 1111 q 1101 900 1111 974 q 1065 702 1091 826 l 941 718 q 973 873 963 815 q 988 995 983 932 l 154 995 l 147 1111 l 1065 1111 m 525 586 l 525 810 l 656 810 l 656 586 l 1227 586 l 1227 471 l 62 471 l 62 586 l 525 586 m 640 -170 q 275 -103 404 -170 q 147 85 147 -37 q 275 273 147 207 q 640 340 404 340 q 1010 273 878 340 q 1142 85 1142 207 q 1010 -103 1142 -37 q 640 -170 878 -170 m 640 -62 q 904 -23 813 -62 q 995 85 995 15 q 904 187 995 150 q 640 224 812 224 q 380 187 474 224 q 285 85 285 150 q 379 -23 285 15 q 640 -62 472 -62 z "},"곶":{"ha":1273,"x_min":62,"x_max":1227,"o":"m 1065 1111 q 1111 1065 1111 1111 q 1101 900 1111 974 q 1065 702 1091 826 l 941 718 q 973 873 963 815 q 988 995 983 932 l 154 995 l 147 1111 l 1065 1111 m 525 586 l 525 810 l 656 810 l 656 586 l 1227 586 l 1227 471 l 62 471 l 62 586 l 525 586 m 93 -69 q 296 -19 185 -57 q 487 79 406 20 q 577 208 568 137 l 154 208 l 154 324 l 1134 324 l 1134 208 l 711 208 q 800 81 721 137 q 989 -12 880 25 q 1196 -62 1099 -49 l 1127 -162 q 855 -86 991 -139 q 644 59 719 -32 q 423 -94 565 -35 q 162 -170 281 -153 l 93 -69 z "},"곷":{"ha":1250,"x_min":0,"x_max":0,"o":""},"곸":{"ha":1250,"x_min":0,"x_max":0,"o":""},"곹":{"ha":1273,"x_min":62,"x_max":1227,"o":"m 1065 1111 q 1111 1065 1111 1111 q 1096 893 1103 961 q 1073 756 1088 824 l 949 764 q 986 995 977 878 l 154 995 l 147 1111 l 1065 1111 m 525 671 l 525 864 l 656 864 l 656 671 l 1227 671 l 1227 556 l 62 556 l 62 671 l 525 671 m 1127 424 l 1127 316 l 293 316 l 293 185 l 1119 185 l 1119 85 l 293 85 l 293 -46 l 1134 -46 l 1142 -154 l 216 -154 q 170 -108 170 -154 l 170 424 l 1127 424 z "},"곺":{"ha":1250,"x_min":0,"x_max":0,"o":""},"곻":{"ha":1250,"x_min":0,"x_max":0,"o":""},"과":{"ha":1273,"x_min":54,"x_max":1296,"o":"m 741 1042 q 787 995 787 1042 q 725 293 787 602 l 602 301 q 665 926 664 605 l 100 926 l 93 1042 l 741 1042 m 386 671 l 386 97 q 671 115 528 103 q 903 139 813 127 l 903 23 q 563 -9 778 5 q 185 -23 349 -23 l 54 -23 l 54 93 l 185 93 l 270 94 l 270 671 l 386 671 m 1103 1134 l 1103 664 l 1296 664 l 1296 540 l 1103 540 l 1103 -147 l 980 -147 l 980 1134 l 1103 1134 z "},"곽":{"ha":1273,"x_min":54,"x_max":1296,"o":"m 756 1088 q 802 1042 802 1088 q 792 848 802 951 q 764 664 781 745 l 640 679 q 676 972 667 798 l 100 972 l 93 1088 l 756 1088 m 417 833 l 417 551 q 903 594 710 560 l 903 478 q 585 444 773 455 q 193 432 397 432 l 54 432 l 54 548 l 193 548 l 293 548 l 293 833 l 417 833 m 1103 1134 l 1103 872 l 1296 872 l 1296 756 l 1103 756 l 1103 386 l 980 386 l 980 1134 l 1103 1134 m 1103 -162 l 980 -162 l 980 177 l 170 177 l 170 293 l 1103 293 l 1103 -162 z "},"곾":{"ha":1250,"x_min":0,"x_max":0,"o":""},"곿":{"ha":1250,"x_min":0,"x_max":0,"o":""},"관":{"ha":1273,"x_min":54,"x_max":1296,"o":"m 756 1088 q 802 1042 802 1088 q 792 833 802 948 q 764 633 781 719 l 640 640 q 676 972 668 792 l 100 972 l 93 1088 l 756 1088 m 1103 1134 l 1103 872 l 1296 872 l 1296 756 l 1103 756 l 1103 208 l 980 208 l 980 1134 l 1103 1134 m 417 833 l 417 505 q 903 548 710 514 l 903 432 q 585 397 773 409 q 193 386 397 386 l 54 386 l 54 502 l 193 502 l 293 502 l 293 833 l 417 833 m 316 255 l 316 -8 l 1134 -8 l 1142 -131 l 239 -131 q 193 -85 193 -131 l 193 255 l 316 255 z "},"괁":{"ha":1250,"x_min":0,"x_max":0,"o":""},"괂":{"ha":1250,"x_min":0,"x_max":0,"o":""},"괃":{"ha":1250,"x_min":0,"x_max":0,"o":""},"괄":{"ha":1273,"x_min":54,"x_max":1304,"o":"m 756 1088 q 802 1042 802 1088 q 786 858 793 927 q 764 718 779 789 l 640 733 q 674 972 667 856 l 100 972 l 93 1088 l 756 1088 m 1103 1134 l 1103 918 l 1304 918 l 1304 802 l 1103 802 l 1103 478 l 980 478 l 980 1134 l 1103 1134 m 417 864 l 417 636 q 903 679 710 645 l 903 563 q 585 529 773 540 q 193 517 397 517 l 54 517 l 54 633 l 193 633 l 293 633 l 293 864 l 417 864 m 1103 409 l 1103 77 l 316 77 l 316 -46 l 1119 -46 l 1127 -154 l 239 -154 q 193 -108 193 -154 l 193 177 l 980 177 l 980 301 l 193 301 l 193 409 l 1103 409 z "},"괅":{"ha":1250,"x_min":0,"x_max":0,"o":""},"괆":{"ha":1273,"x_min":54,"x_max":1304,"o":"m 756 1088 q 802 1042 802 1088 q 786 858 793 927 q 764 718 779 789 l 640 733 q 674 972 667 856 l 100 972 l 93 1088 l 756 1088 m 1103 1134 l 1103 918 l 1304 918 l 1304 802 l 1103 802 l 1103 478 l 980 478 l 980 1134 l 1103 1134 m 417 864 l 417 636 q 903 679 710 645 l 903 563 q 585 529 773 540 q 193 517 397 517 l 54 517 l 54 633 l 193 633 l 293 633 l 293 864 l 417 864 m 1103 409 l 1103 -154 l 687 -154 l 687 409 l 1103 409 m 988 -39 l 988 293 l 802 293 l 802 -39 l 988 -39 m 170 409 l 610 409 l 610 77 l 285 77 l 285 -42 q 633 -15 502 -42 l 648 -123 q 462 -148 560 -142 q 216 -154 364 -154 q 170 -108 170 -154 l 170 185 l 494 185 l 494 301 l 170 301 l 170 409 z "},"괇":{"ha":1250,"x_min":0,"x_max":0,"o":""},"괈":{"ha":1250,"x_min":0,"x_max":0,"o":""},"괉":{"ha":1250,"x_min":0,"x_max":0,"o":""},"괊":{"ha":1250,"x_min":0,"x_max":0,"o":""},"괋":{"ha":1250,"x_min":0,"x_max":0,"o":""},"괌":{"ha":1273,"x_min":54,"x_max":1304,"o":"m 756 1088 q 802 1042 802 1088 q 764 687 802 867 l 640 694 q 676 972 667 829 l 100 972 l 93 1088 l 756 1088 m 1103 1134 l 1103 880 l 1304 880 l 1304 764 l 1103 764 l 1103 401 l 980 401 l 980 1134 l 1103 1134 m 417 833 l 417 574 q 903 617 710 583 l 903 502 q 585 467 773 478 q 193 455 397 455 l 54 455 l 54 571 l 193 571 l 293 571 l 293 833 l 417 833 m 1103 301 l 1103 -147 l 239 -147 q 193 -100 193 -147 l 193 301 l 1103 301 m 980 -31 l 980 185 l 316 185 l 316 -31 l 980 -31 z "},"괍":{"ha":1273,"x_min":54,"x_max":1304,"o":"m 756 1088 q 802 1042 802 1088 q 764 687 802 867 l 640 694 q 676 972 667 829 l 100 972 l 93 1088 l 756 1088 m 1103 1134 l 1103 880 l 1304 880 l 1304 764 l 1103 764 l 1103 401 l 980 401 l 980 1134 l 1103 1134 m 417 833 l 417 574 q 903 617 710 583 l 903 502 q 585 467 773 478 q 193 455 397 455 l 54 455 l 54 571 l 193 571 l 293 571 l 293 833 l 417 833 m 316 332 l 316 208 l 980 208 l 980 332 l 1103 332 l 1103 -147 l 239 -147 q 193 -100 193 -147 l 193 332 l 316 332 m 980 -39 l 980 100 l 316 100 l 316 -39 l 980 -39 z "},"괎":{"ha":1250,"x_min":0,"x_max":0,"o":""},"괏":{"ha":1273,"x_min":54,"x_max":1296,"o":"m 756 1088 q 802 1042 802 1088 q 792 833 802 948 q 764 633 781 719 l 640 640 q 676 972 668 792 l 100 972 l 93 1088 l 756 1088 m 1103 1134 l 1103 872 l 1296 872 l 1296 756 l 1103 756 l 1103 208 l 980 208 l 980 1134 l 1103 1134 m 417 833 l 417 505 q 903 548 710 514 l 903 432 q 585 397 773 409 q 193 386 397 386 l 54 386 l 54 502 l 193 502 l 293 502 l 293 833 l 417 833 m 702 316 l 702 255 q 779 115 702 179 q 967 7 856 51 q 1173 -54 1077 -37 l 1119 -162 q 856 -75 995 -140 q 642 90 718 -9 q 429 -80 568 -12 q 170 -170 290 -148 l 108 -62 q 316 1 205 -45 q 502 113 426 46 q 579 255 579 179 l 579 316 l 702 316 z "},"괐":{"ha":1273,"x_min":54,"x_max":1296,"o":"m 756 1088 q 802 1042 802 1088 q 792 848 802 951 q 764 664 781 745 l 640 679 q 676 972 667 798 l 100 972 l 93 1088 l 756 1088 m 417 833 l 417 551 q 903 594 710 560 l 903 478 q 585 444 773 455 q 193 432 397 432 l 54 432 l 54 548 l 193 548 l 293 548 l 293 833 l 417 833 m 1103 1134 l 1103 872 l 1296 872 l 1296 756 l 1103 756 l 1103 386 l 980 386 l 980 1134 l 1103 1134 m 62 -77 q 187 -1 125 -52 q 290 123 248 51 q 332 278 332 194 l 332 340 l 455 340 l 455 278 q 511 110 455 187 q 650 -23 566 34 q 786 111 731 34 q 841 278 841 188 l 841 340 l 965 340 l 965 278 q 1006 124 965 194 q 1111 5 1048 54 q 1242 -69 1174 -45 l 1157 -162 q 1017 -76 1088 -136 q 900 71 946 -15 q 781 -72 850 -11 q 648 -170 711 -133 q 514 -69 582 -128 q 398 66 446 -9 q 281 -79 352 -19 q 139 -170 210 -139 l 62 -77 z "},"광":{"ha":1273,"x_min":54,"x_max":1304,"o":"m 756 1088 q 802 1042 802 1088 q 764 687 802 867 l 640 694 q 676 972 667 829 l 100 972 l 93 1088 l 756 1088 m 1103 1134 l 1103 880 l 1304 880 l 1304 764 l 1103 764 l 1103 401 l 980 401 l 980 1134 l 1103 1134 m 417 833 l 417 574 q 903 617 710 583 l 903 502 q 585 467 773 478 q 193 455 397 455 l 54 455 l 54 571 l 193 571 l 293 571 l 293 833 l 417 833 m 640 -170 q 285 -106 407 -170 q 162 77 162 -43 q 286 265 162 199 q 640 332 410 332 q 999 265 872 332 q 1127 77 1127 199 q 1000 -106 1127 -43 q 640 -170 873 -170 m 640 -62 q 901 -25 807 -62 q 995 77 995 12 q 901 179 995 142 q 640 216 807 216 q 384 179 475 216 q 293 77 293 142 q 384 -25 293 12 q 640 -62 475 -62 z "},"괒":{"ha":1273,"x_min":54,"x_max":1304,"o":"m 756 1088 q 802 1042 802 1088 q 764 687 802 867 l 640 694 q 676 972 667 829 l 100 972 l 93 1088 l 756 1088 m 1103 1134 l 1103 880 l 1304 880 l 1304 764 l 1103 764 l 1103 401 l 980 401 l 980 1134 l 1103 1134 m 417 833 l 417 574 q 903 617 710 583 l 903 502 q 585 467 773 478 q 193 455 397 455 l 54 455 l 54 571 l 193 571 l 293 571 l 293 833 l 417 833 m 116 -69 q 309 -17 207 -52 q 487 71 410 19 q 576 185 563 123 l 177 185 l 177 301 l 1119 301 l 1119 185 l 713 185 q 870 36 731 97 q 1181 -62 1008 -25 l 1111 -162 q 854 -85 988 -139 q 645 56 721 -31 q 439 -90 573 -32 q 185 -170 306 -148 l 116 -69 z "},"괓":{"ha":1250,"x_min":0,"x_max":0,"o":""},"괔":{"ha":1250,"x_min":0,"x_max":0,"o":""},"괕":{"ha":1250,"x_min":0,"x_max":0,"o":""},"괖":{"ha":1250,"x_min":0,"x_max":0,"o":""},"괗":{"ha":1250,"x_min":0,"x_max":0,"o":""},"괘":{"ha":1273,"x_min":54,"x_max":1188,"o":"m 633 1042 l 633 1040 q 664 995 664 1032 q 664 956 665 975 q 664 918 664 937 l 664 880 q 617 301 664 628 l 502 316 q 549 926 546 693 l 77 926 l 69 1042 l 633 1042 m 347 694 l 347 97 q 741 139 596 108 l 741 23 q 477 -11 636 2 q 170 -23 318 -23 l 54 -23 l 54 93 l 170 93 l 239 93 l 239 694 l 347 694 m 926 1134 l 926 656 l 1073 656 l 1073 1134 l 1188 1134 l 1188 -147 l 1073 -147 l 1073 532 l 926 532 l 926 -147 l 810 -147 l 810 1134 l 926 1134 z "},"괙":{"ha":1250,"x_min":0,"x_max":0,"o":""},"괚":{"ha":1250,"x_min":0,"x_max":0,"o":""},"괛":{"ha":1250,"x_min":0,"x_max":0,"o":""},"괜":{"ha":1273,"x_min":39,"x_max":1211,"o":"m 625 1088 q 664 1042 664 1083 q 625 610 664 764 l 502 625 q 545 980 534 752 l 77 980 l 69 1088 l 625 1088 m 926 1142 l 926 810 l 1073 810 l 1073 1142 l 1188 1142 l 1188 185 l 1073 185 l 1073 694 l 926 694 l 926 193 l 810 193 l 810 1142 l 926 1142 m 239 509 l 239 841 l 355 841 l 355 512 q 756 556 574 522 l 756 432 q 507 398 647 407 q 185 386 367 389 l 39 386 l 39 509 l 185 509 l 239 509 m 324 255 l 324 -8 l 1204 -8 l 1211 -131 l 247 -131 q 201 -85 201 -131 l 201 255 l 324 255 z "},"괝":{"ha":1250,"x_min":0,"x_max":0,"o":""},"괞":{"ha":1250,"x_min":0,"x_max":0,"o":""},"괟":{"ha":1250,"x_min":0,"x_max":0,"o":""},"괠":{"ha":1273,"x_min":39,"x_max":1211,"o":"m 625 1088 q 664 1042 664 1083 q 655 880 664 955 q 625 718 647 806 l 502 725 q 543 980 535 869 l 77 980 l 69 1088 l 625 1088 m 926 1134 l 926 918 l 1073 918 l 1073 1134 l 1188 1134 l 1188 478 l 1073 478 l 1073 802 l 926 802 l 926 478 l 810 478 l 810 1134 l 926 1134 m 355 864 l 355 636 q 756 679 576 645 l 756 556 q 185 517 554 517 l 39 517 l 39 633 l 185 633 l 239 633 l 239 864 l 355 864 m 1188 409 l 1188 77 l 324 77 l 324 -46 l 1204 -46 l 1211 -154 l 247 -154 q 201 -108 201 -154 l 201 177 l 1057 177 l 1057 301 l 201 301 l 201 409 l 1188 409 z "},"괡":{"ha":1250,"x_min":0,"x_max":0,"o":""},"괢":{"ha":1273,"x_min":39,"x_max":1188,"o":"m 625 1088 q 664 1042 664 1083 q 655 880 664 955 q 625 718 647 806 l 502 725 q 543 980 535 869 l 77 980 l 69 1088 l 625 1088 m 926 1134 l 926 918 l 1073 918 l 1073 1134 l 1188 1134 l 1188 478 l 1073 478 l 1073 802 l 926 802 l 926 478 l 810 478 l 810 1134 l 926 1134 m 355 864 l 355 636 q 756 679 576 645 l 756 556 q 185 517 554 517 l 39 517 l 39 633 l 185 633 l 239 633 l 239 864 l 355 864 m 1188 409 l 1188 -154 l 733 -154 l 733 409 l 1188 409 m 1073 -39 l 1073 293 l 849 293 l 849 -39 l 1073 -39 m 177 409 l 656 409 l 656 77 l 293 77 l 293 -42 q 679 -15 535 -45 l 694 -123 q 495 -148 608 -142 q 224 -154 381 -154 q 177 -108 177 -154 l 177 185 l 532 185 l 532 301 l 177 301 l 177 409 z "},"괣":{"ha":1250,"x_min":0,"x_max":0,"o":""},"괤":{"ha":1250,"x_min":0,"x_max":0,"o":""},"괥":{"ha":1250,"x_min":0,"x_max":0,"o":""},"괦":{"ha":1250,"x_min":0,"x_max":0,"o":""},"괧":{"ha":1250,"x_min":0,"x_max":0,"o":""},"괨":{"ha":1250,"x_min":0,"x_max":0,"o":""},"괩":{"ha":1273,"x_min":39,"x_max":1188,"o":"m 625 1088 q 664 1042 664 1083 q 625 671 664 826 l 502 679 q 545 980 535 819 l 77 980 l 69 1088 l 625 1088 m 926 1142 l 926 880 l 1073 880 l 1073 1142 l 1188 1142 l 1188 401 l 1073 401 l 1073 764 l 926 764 l 926 409 l 810 409 l 810 1142 l 926 1142 m 239 571 l 239 833 l 355 833 l 355 574 q 756 617 576 583 l 756 494 q 185 455 554 455 l 39 455 l 39 571 l 185 571 l 239 571 m 324 332 l 324 208 l 1065 208 l 1065 332 l 1188 332 l 1188 -147 l 247 -147 q 201 -100 201 -147 l 201 332 l 324 332 m 1065 -39 l 1065 100 l 324 100 l 324 -39 l 1065 -39 z "},"괪":{"ha":1250,"x_min":0,"x_max":0,"o":""},"괫":{"ha":1250,"x_min":0,"x_max":0,"o":""},"괬":{"ha":1273,"x_min":39,"x_max":1327,"o":"m 617 1088 q 664 1042 664 1088 q 625 656 664 810 l 502 671 q 545 980 534 802 l 77 980 l 69 1088 l 617 1088 m 239 548 l 239 833 l 355 833 l 355 551 q 756 594 576 560 l 756 471 q 185 432 554 432 l 39 432 l 39 548 l 185 548 l 239 548 m 926 1134 l 926 872 l 1073 872 l 1073 1134 l 1188 1134 l 1188 370 l 1073 370 l 1073 756 l 926 756 l 926 378 l 810 378 l 810 1134 l 926 1134 m 62 -77 q 273 62 184 -23 q 363 270 363 147 l 363 324 l 486 324 l 486 270 q 696 -25 486 106 q 910 270 910 108 l 910 324 l 1034 324 l 1034 270 q 1123 59 1034 145 q 1327 -69 1211 -26 l 1242 -162 q 1090 -76 1165 -133 q 968 65 1015 -19 q 840 -73 915 -14 q 694 -170 765 -131 q 545 -65 613 -119 q 426 68 477 -11 q 301 -76 377 -17 q 147 -170 225 -136 l 62 -77 z "},"괭":{"ha":1273,"x_min":39,"x_max":1211,"o":"m 625 1088 q 664 1042 664 1083 q 625 671 664 826 l 502 679 q 545 980 535 819 l 77 980 l 69 1088 l 625 1088 m 926 1142 l 926 880 l 1073 880 l 1073 1142 l 1188 1142 l 1188 401 l 1073 401 l 1073 764 l 926 764 l 926 409 l 810 409 l 810 1142 l 926 1142 m 239 571 l 239 833 l 355 833 l 355 574 q 756 617 576 583 l 756 494 q 185 455 554 455 l 39 455 l 39 571 l 185 571 l 239 571 m 687 -170 q 303 -106 437 -170 q 170 77 170 -43 q 304 265 170 199 q 687 332 438 332 q 1074 265 937 332 q 1211 77 1211 199 q 1075 -106 1211 -43 q 687 -170 938 -170 m 687 -62 q 975 -25 870 -62 q 1080 77 1080 12 q 975 179 1080 142 q 687 216 870 216 q 400 179 498 216 q 301 77 301 142 q 400 -25 301 12 q 687 -62 498 -62 z "},"괮":{"ha":1250,"x_min":0,"x_max":0,"o":""},"괯":{"ha":1250,"x_min":0,"x_max":0,"o":""},"괰":{"ha":1250,"x_min":0,"x_max":0,"o":""},"괱":{"ha":1250,"x_min":0,"x_max":0,"o":""},"괲":{"ha":1250,"x_min":0,"x_max":0,"o":""},"괳":{"ha":1250,"x_min":0,"x_max":0,"o":""},"괴":{"ha":1273,"x_min":77,"x_max":1150,"o":"m 764 1042 q 810 995 810 1042 q 748 293 810 602 l 625 301 q 688 926 687 605 l 123 926 l 116 1042 l 764 1042 m 409 671 l 409 97 q 713 115 560 103 q 949 139 866 127 l 949 23 q 597 -8 835 6 q 201 -23 360 -23 l 77 -23 l 77 93 l 201 93 l 293 94 l 293 671 l 409 671 m 1150 1134 l 1150 -147 l 1026 -147 l 1026 1134 l 1150 1134 z "},"괵":{"ha":1273,"x_min":77,"x_max":1150,"o":"m 779 1088 q 826 1042 826 1088 q 815 848 826 951 q 787 664 804 745 l 664 679 q 699 972 690 798 l 123 972 l 116 1088 l 779 1088 m 1150 1134 l 1150 370 l 1026 370 l 1026 1134 l 1150 1134 m 316 549 l 316 833 l 440 833 l 440 551 q 949 594 776 565 l 949 478 q 618 444 821 457 q 208 432 415 432 l 77 432 l 77 548 l 208 548 l 316 549 m 1150 -162 l 1026 -162 l 1026 177 l 193 177 l 193 293 l 1150 293 l 1150 -162 z "},"괶":{"ha":1250,"x_min":0,"x_max":0,"o":""},"괷":{"ha":1250,"x_min":0,"x_max":0,"o":""},"괸":{"ha":1273,"x_min":77,"x_max":1173,"o":"m 779 1088 q 826 1042 826 1088 q 815 833 826 948 q 787 633 804 719 l 664 640 q 699 972 691 792 l 123 972 l 116 1088 l 779 1088 m 1150 1134 l 1150 208 l 1026 208 l 1026 1134 l 1150 1134 m 440 833 l 440 505 q 949 548 776 519 l 949 432 q 618 398 821 410 q 208 386 415 386 l 77 386 l 77 502 l 208 502 l 316 503 l 316 833 l 440 833 m 340 255 l 340 -8 l 1173 -8 l 1173 -131 l 262 -131 q 216 -85 216 -131 l 216 255 l 340 255 z "},"괹":{"ha":1250,"x_min":0,"x_max":0,"o":""},"괺":{"ha":1250,"x_min":0,"x_max":0,"o":""},"괻":{"ha":1250,"x_min":0,"x_max":0,"o":""},"괼":{"ha":1273,"x_min":77,"x_max":1173,"o":"m 779 1088 q 826 1042 826 1088 q 809 858 816 927 q 787 718 802 789 l 664 733 q 698 972 690 856 l 123 972 l 116 1088 l 779 1088 m 1150 1134 l 1150 478 l 1026 478 l 1026 1134 l 1150 1134 m 440 864 l 440 634 q 949 679 772 645 l 949 563 q 621 529 823 540 q 208 517 420 517 l 77 517 l 77 633 l 208 633 l 316 633 l 316 864 l 440 864 m 1150 409 l 1150 77 l 347 77 l 347 -46 l 1165 -46 l 1173 -154 l 262 -154 q 216 -108 216 -154 l 216 177 l 1019 177 l 1019 301 l 216 301 l 216 409 l 1150 409 z "},"괽":{"ha":1250,"x_min":0,"x_max":0,"o":""},"괾":{"ha":1250,"x_min":0,"x_max":0,"o":""},"괿":{"ha":1250,"x_min":0,"x_max":0,"o":""},"굀":{"ha":1250,"x_min":0,"x_max":0,"o":""},"굁":{"ha":1250,"x_min":0,"x_max":0,"o":""},"굂":{"ha":1250,"x_min":0,"x_max":0,"o":""},"굃":{"ha":1250,"x_min":0,"x_max":0,"o":""},"굄":{"ha":1273,"x_min":77,"x_max":1150,"o":"m 779 1088 q 826 1042 826 1088 q 787 687 826 867 l 664 694 q 699 972 690 829 l 123 972 l 116 1088 l 779 1088 m 1150 1134 l 1150 394 l 1026 394 l 1026 1134 l 1150 1134 m 440 833 l 440 574 q 949 617 776 588 l 949 502 q 618 468 821 480 q 208 455 415 455 l 77 455 l 77 571 l 208 571 l 316 573 l 316 833 l 440 833 m 1150 301 l 1150 -147 l 262 -147 q 216 -100 216 -147 l 216 301 l 1150 301 m 1026 -31 l 1026 185 l 340 185 l 340 -31 l 1026 -31 z "},"굅":{"ha":1273,"x_min":77,"x_max":1150,"o":"m 779 1088 q 826 1042 826 1088 q 787 687 826 867 l 664 694 q 699 972 690 829 l 123 972 l 116 1088 l 779 1088 m 1150 1134 l 1150 394 l 1026 394 l 1026 1134 l 1150 1134 m 440 833 l 440 574 q 949 617 776 588 l 949 502 q 618 468 821 480 q 208 455 415 455 l 77 455 l 77 571 l 208 571 l 316 573 l 316 833 l 440 833 m 340 332 l 340 201 l 1026 201 l 1026 332 l 1150 332 l 1150 -147 l 262 -147 q 216 -100 216 -147 l 216 332 l 340 332 m 1026 -39 l 1026 93 l 340 93 l 340 -39 l 1026 -39 z "},"굆":{"ha":1250,"x_min":0,"x_max":0,"o":""},"굇":{"ha":1273,"x_min":77,"x_max":1204,"o":"m 779 1088 q 826 1042 826 1088 q 815 833 826 948 q 787 633 804 719 l 664 640 q 699 972 691 792 l 123 972 l 116 1088 l 779 1088 m 1150 1134 l 1150 208 l 1026 208 l 1026 1134 l 1150 1134 m 440 833 l 440 505 q 949 548 776 519 l 949 432 q 618 398 821 410 q 208 386 415 386 l 77 386 l 77 502 l 208 502 l 316 503 l 316 833 l 440 833 m 733 316 l 733 255 q 810 115 733 179 q 998 7 887 51 q 1204 -54 1108 -37 l 1150 -162 q 887 -75 1026 -140 q 673 90 748 -9 q 460 -80 599 -12 q 201 -170 321 -148 l 139 -62 q 346 1 236 -45 q 533 113 457 46 q 610 255 610 179 l 610 316 l 733 316 z "},"굈":{"ha":1250,"x_min":0,"x_max":0,"o":""},"굉":{"ha":1273,"x_min":77,"x_max":1173,"o":"m 779 1088 q 826 1042 826 1088 q 787 687 826 867 l 664 694 q 699 972 690 829 l 123 972 l 116 1088 l 779 1088 m 1150 1134 l 1150 394 l 1026 394 l 1026 1134 l 1150 1134 m 440 833 l 440 574 q 949 617 776 588 l 949 502 q 618 468 821 480 q 208 455 415 455 l 77 455 l 77 571 l 208 571 l 316 573 l 316 833 l 440 833 m 679 -170 q 317 -107 441 -170 q 193 77 193 -45 q 318 265 193 199 q 679 332 443 332 q 1045 265 917 332 q 1173 77 1173 199 q 1046 -106 1173 -43 q 679 -170 918 -170 m 679 -62 q 946 -25 850 -62 q 1042 77 1042 12 q 946 179 1042 142 q 679 216 850 216 q 416 179 508 216 q 324 77 324 142 q 416 -25 324 12 q 679 -62 508 -62 z "},"굊":{"ha":1250,"x_min":0,"x_max":0,"o":""},"굋":{"ha":1250,"x_min":0,"x_max":0,"o":""},"굌":{"ha":1250,"x_min":0,"x_max":0,"o":""},"굍":{"ha":1250,"x_min":0,"x_max":0,"o":""},"굎":{"ha":1250,"x_min":0,"x_max":0,"o":""},"굏":{"ha":1250,"x_min":0,"x_max":0,"o":""},"교":{"ha":1273,"x_min":62,"x_max":1227,"o":"m 1065 1057 q 1111 1011 1111 1057 q 1093 636 1111 804 q 1042 278 1076 468 l 918 301 q 968 615 949 465 q 989 941 988 765 l 154 941 l 147 1057 l 1065 1057 m 432 625 l 432 62 l 640 62 l 640 625 l 764 625 l 764 62 l 1219 62 l 1227 -54 l 62 -54 l 62 62 l 316 62 l 316 625 l 432 625 z "},"굑":{"ha":1250,"x_min":0,"x_max":0,"o":""},"굒":{"ha":1250,"x_min":0,"x_max":0,"o":""},"굓":{"ha":1250,"x_min":0,"x_max":0,"o":""},"굔":{"ha":1273,"x_min":62,"x_max":1227,"o":"m 1065 1111 q 1111 1065 1111 1111 q 1065 640 1111 861 l 941 648 q 988 995 981 863 l 154 995 l 147 1111 l 1065 1111 m 332 540 l 332 833 l 448 833 l 448 540 l 664 540 l 664 833 l 779 833 l 779 540 l 1227 540 l 1227 424 l 62 424 l 62 540 l 332 540 m 301 301 l 301 -8 l 1134 -8 l 1142 -131 l 224 -131 q 177 -85 177 -131 l 177 301 l 301 301 z "},"굕":{"ha":1250,"x_min":0,"x_max":0,"o":""},"굖":{"ha":1250,"x_min":0,"x_max":0,"o":""},"굗":{"ha":1250,"x_min":0,"x_max":0,"o":""},"굘":{"ha":1273,"x_min":62,"x_max":1227,"o":"m 1065 1111 q 1111 1065 1111 1111 q 1096 893 1103 961 q 1073 756 1088 824 l 949 764 q 986 995 977 878 l 154 995 l 147 1111 l 1065 1111 m 332 671 l 332 887 l 448 887 l 448 671 l 664 671 l 664 887 l 779 887 l 779 671 l 1227 671 l 1227 556 l 62 556 l 62 671 l 332 671 m 1119 424 l 1119 85 l 293 85 l 293 -46 l 1134 -46 l 1142 -154 l 216 -154 q 170 -108 170 -154 l 170 185 l 995 185 l 995 316 l 170 316 l 170 424 l 1119 424 z "},"굙":{"ha":1250,"x_min":0,"x_max":0,"o":""},"굚":{"ha":1250,"x_min":0,"x_max":0,"o":""},"굛":{"ha":1250,"x_min":0,"x_max":0,"o":""},"굜":{"ha":1250,"x_min":0,"x_max":0,"o":""},"굝":{"ha":1250,"x_min":0,"x_max":0,"o":""},"굞":{"ha":1250,"x_min":0,"x_max":0,"o":""},"굟":{"ha":1250,"x_min":0,"x_max":0,"o":""},"굠":{"ha":1273,"x_min":62,"x_max":1227,"o":"m 1065 1111 q 1111 1065 1111 1111 q 1101 900 1111 974 q 1065 702 1091 826 l 941 718 q 973 873 963 815 q 988 995 983 932 l 154 995 l 147 1111 l 1065 1111 m 332 586 l 332 856 l 448 856 l 448 586 l 664 586 l 664 856 l 779 856 l 779 586 l 1227 586 l 1227 471 l 62 471 l 62 586 l 332 586 m 1119 324 l 1119 -147 l 216 -147 q 170 -100 170 -147 l 170 324 l 1119 324 m 995 -31 l 995 208 l 293 208 l 293 -31 l 995 -31 z "},"굡":{"ha":1273,"x_min":62,"x_max":1227,"o":"m 1065 1111 q 1111 1065 1111 1111 q 1101 900 1111 974 q 1065 702 1091 826 l 941 718 q 973 873 963 815 q 988 995 983 932 l 154 995 l 147 1111 l 1065 1111 m 332 586 l 332 856 l 448 856 l 448 586 l 664 586 l 664 856 l 779 856 l 779 586 l 1227 586 l 1227 471 l 62 471 l 62 586 l 332 586 m 293 363 l 293 216 l 995 216 l 995 363 l 1119 363 l 1119 -147 l 216 -147 q 170 -100 170 -147 l 170 363 l 293 363 m 995 -39 l 995 108 l 293 108 l 293 -39 l 995 -39 z "},"굢":{"ha":1250,"x_min":0,"x_max":0,"o":""},"굣":{"ha":1273,"x_min":62,"x_max":1227,"o":"m 1065 1111 q 1111 1065 1111 1111 q 1065 640 1111 861 l 941 648 q 988 995 981 863 l 154 995 l 147 1111 l 1065 1111 m 332 540 l 332 833 l 448 833 l 448 540 l 664 540 l 664 833 l 779 833 l 779 540 l 1227 540 l 1227 424 l 62 424 l 62 540 l 332 540 m 710 324 l 710 262 q 859 64 710 140 q 1196 -54 1008 -12 l 1134 -162 q 865 -76 1008 -139 q 645 86 722 -12 q 424 -82 566 -17 q 154 -170 281 -147 l 93 -62 q 308 -1 196 -43 q 499 109 420 42 q 579 262 579 176 l 579 324 l 710 324 z "},"굤":{"ha":1250,"x_min":0,"x_max":0,"o":""},"굥":{"ha":1273,"x_min":62,"x_max":1227,"o":"m 1065 1111 q 1111 1065 1111 1111 q 1101 900 1111 974 q 1065 702 1091 826 l 941 718 q 973 873 963 815 q 988 995 983 932 l 154 995 l 147 1111 l 1065 1111 m 332 586 l 332 856 l 448 856 l 448 586 l 664 586 l 664 856 l 779 856 l 779 586 l 1227 586 l 1227 471 l 62 471 l 62 586 l 332 586 m 640 -170 q 275 -103 404 -170 q 147 85 147 -37 q 275 273 147 207 q 640 340 404 340 q 1010 273 878 340 q 1142 85 1142 207 q 1010 -103 1142 -37 q 640 -170 878 -170 m 640 -62 q 904 -23 813 -62 q 995 85 995 15 q 904 187 995 150 q 640 224 812 224 q 380 187 474 224 q 285 85 285 150 q 379 -23 285 15 q 640 -62 472 -62 z "},"굦":{"ha":1250,"x_min":0,"x_max":0,"o":""},"굧":{"ha":1250,"x_min":0,"x_max":0,"o":""},"굨":{"ha":1250,"x_min":0,"x_max":0,"o":""},"굩":{"ha":1250,"x_min":0,"x_max":0,"o":""},"굪":{"ha":1250,"x_min":0,"x_max":0,"o":""},"굫":{"ha":1250,"x_min":0,"x_max":0,"o":""},"구":{"ha":1273,"x_min":62,"x_max":1219,"o":"m 1057 1080 q 1103 1034 1103 1080 q 1042 532 1088 711 l 910 548 q 951 753 934 642 q 972 965 968 864 l 154 965 l 147 1080 l 1057 1080 m 1219 432 l 1219 316 l 702 316 l 702 -162 l 579 -162 l 579 316 l 62 316 l 62 432 l 1219 432 z "},"국":{"ha":1273,"x_min":62,"x_max":1227,"o":"m 1065 1111 q 1111 1065 1111 1111 q 1065 694 1100 869 l 941 702 q 988 995 981 852 l 154 995 l 147 1111 l 1065 1111 m 1227 617 l 1227 502 l 710 502 l 710 278 l 1111 278 l 1111 -162 l 988 -162 l 988 162 l 154 162 l 154 278 l 579 278 l 579 502 l 62 502 l 62 617 l 1227 617 z "},"굮":{"ha":1250,"x_min":0,"x_max":0,"o":""},"굯":{"ha":1250,"x_min":0,"x_max":0,"o":""},"군":{"ha":1273,"x_min":62,"x_max":1227,"o":"m 1065 1111 q 1111 1065 1111 1111 q 1065 640 1111 861 l 941 648 q 988 995 981 863 l 154 995 l 147 1111 l 1065 1111 m 1227 579 l 1227 463 l 718 463 l 718 177 l 586 177 l 586 463 l 62 463 l 62 579 l 1227 579 m 301 301 l 301 -8 l 1134 -8 l 1142 -131 l 224 -131 q 177 -85 177 -131 l 177 301 l 301 301 z "},"굱":{"ha":1250,"x_min":0,"x_max":0,"o":""},"굲":{"ha":1250,"x_min":0,"x_max":0,"o":""},"굳":{"ha":1273,"x_min":62,"x_max":1227,"o":"m 1065 1111 q 1111 1065 1111 1111 q 1101 900 1111 974 q 1065 702 1091 826 l 941 718 q 973 873 963 815 q 988 995 983 932 l 154 995 l 147 1111 l 1065 1111 m 1227 625 l 1227 509 l 710 509 l 710 316 l 1119 316 l 1119 201 l 293 201 l 293 -31 l 1119 -31 l 1127 -147 l 216 -147 q 170 -100 170 -147 l 170 316 l 579 316 l 579 509 l 62 509 l 62 625 l 1227 625 z "},"굴":{"ha":1273,"x_min":62,"x_max":1227,"o":"m 1065 1111 q 1111 1065 1111 1111 q 1096 893 1103 961 q 1073 756 1088 824 l 949 764 q 986 995 977 878 l 154 995 l 147 1111 l 1065 1111 m 1227 702 l 1227 586 l 710 586 l 710 424 l 1119 424 l 1119 85 l 293 85 l 293 -46 l 1134 -46 l 1142 -154 l 216 -154 q 170 -108 170 -154 l 170 185 l 995 185 l 995 316 l 170 316 l 170 424 l 579 424 l 579 586 l 62 586 l 62 702 l 1227 702 z "},"굵":{"ha":1273,"x_min":62,"x_max":1227,"o":"m 1065 1111 q 1111 1065 1111 1111 q 1096 893 1103 961 q 1073 756 1088 824 l 949 764 q 986 995 977 878 l 154 995 l 147 1111 l 1065 1111 m 1227 702 l 1227 586 l 710 586 l 710 424 l 1103 424 l 1103 -170 l 980 -170 l 980 309 l 687 309 l 687 401 l 625 401 l 625 100 l 293 100 l 293 -45 q 748 -8 566 -40 l 764 -108 q 216 -154 557 -153 q 170 -108 170 -154 l 170 201 l 502 201 l 502 316 l 170 316 l 170 424 l 579 424 l 579 586 l 62 586 l 62 702 l 1227 702 z "},"굶":{"ha":1273,"x_min":62,"x_max":1227,"o":"m 1065 1111 q 1111 1065 1111 1111 q 1096 893 1103 961 q 1073 756 1088 824 l 949 764 q 986 995 977 878 l 154 995 l 147 1111 l 1065 1111 m 1227 702 l 1227 586 l 710 586 l 710 417 l 1119 417 l 1119 -154 l 702 -154 l 702 401 l 625 401 l 625 93 l 293 93 l 293 -42 q 656 -15 519 -42 l 664 -123 q 216 -154 506 -151 q 170 -108 170 -154 l 170 193 l 502 193 l 502 316 l 170 316 l 170 417 l 579 417 l 579 586 l 62 586 l 62 702 l 1227 702 m 1003 -39 l 1003 309 l 810 309 l 810 -39 l 1003 -39 z "},"굷":{"ha":1250,"x_min":0,"x_max":0,"o":""},"굸":{"ha":1250,"x_min":0,"x_max":0,"o":""},"굹":{"ha":1250,"x_min":0,"x_max":0,"o":""},"굺":{"ha":1250,"x_min":0,"x_max":0,"o":""},"굻":{"ha":1273,"x_min":62,"x_max":1227,"o":"m 1065 1111 q 1111 1065 1111 1111 q 1096 893 1103 961 q 1073 756 1088 824 l 949 764 q 986 995 977 878 l 154 995 l 147 1111 l 1065 1111 m 1227 702 l 1227 586 l 710 586 l 710 401 l 625 401 l 625 93 l 293 93 l 293 -42 q 656 -15 519 -42 l 664 -123 q 216 -154 506 -151 q 170 -108 170 -154 l 170 193 l 502 193 l 502 316 l 170 316 l 170 417 l 579 417 l 579 586 l 62 586 l 62 702 l 1227 702 m 980 463 l 980 363 l 1188 363 l 1188 262 l 648 262 l 648 363 l 856 363 l 856 463 l 980 463 m 918 -177 q 744 -125 809 -177 q 679 15 679 -73 q 745 149 679 97 q 918 201 810 201 q 1092 149 1026 201 q 1157 15 1157 97 q 1093 -125 1157 -73 q 918 -177 1028 -177 m 918 -77 q 1009 -54 977 -77 q 1042 15 1042 -31 q 1009 78 1042 56 q 918 100 977 100 q 821 78 855 100 q 787 15 787 56 q 918 -77 787 -77 z "},"굼":{"ha":1273,"x_min":62,"x_max":1227,"o":"m 1065 1111 q 1111 1065 1111 1111 q 1101 900 1111 974 q 1065 702 1091 826 l 941 718 q 973 873 963 815 q 988 995 983 932 l 154 995 l 147 1111 l 1065 1111 m 1227 625 l 1227 509 l 710 509 l 710 324 l 1119 324 l 1119 -147 l 216 -147 q 170 -100 170 -147 l 170 324 l 579 324 l 579 509 l 62 509 l 62 625 l 1227 625 m 995 -31 l 995 208 l 293 208 l 293 -31 l 995 -31 z "},"굽":{"ha":1273,"x_min":62,"x_max":1227,"o":"m 1065 1111 q 1111 1065 1111 1111 q 1101 900 1111 974 q 1065 702 1091 826 l 941 718 q 973 873 963 815 q 988 995 983 932 l 154 995 l 147 1111 l 1065 1111 m 1227 625 l 1227 509 l 710 509 l 710 309 l 579 309 l 579 509 l 62 509 l 62 625 l 1227 625 m 293 363 l 293 216 l 995 216 l 995 363 l 1119 363 l 1119 -147 l 216 -147 q 170 -100 170 -147 l 170 363 l 293 363 m 995 -39 l 995 108 l 293 108 l 293 -39 l 995 -39 z "},"굾":{"ha":1250,"x_min":0,"x_max":0,"o":""},"굿":{"ha":1273,"x_min":62,"x_max":1227,"o":"m 1065 1111 q 1111 1065 1111 1111 q 1101 900 1111 974 q 1065 702 1091 826 l 941 718 q 973 873 963 815 q 988 995 983 932 l 154 995 l 147 1111 l 1065 1111 m 1227 625 l 1227 509 l 710 509 l 710 347 l 579 347 l 579 509 l 62 509 l 62 625 l 1227 625 m 710 301 l 710 247 q 1196 -62 710 60 l 1134 -162 q 867 -77 1009 -139 q 645 80 724 -15 q 424 -83 566 -20 q 154 -170 281 -147 l 93 -69 q 310 -3 199 -46 q 500 104 421 40 q 579 247 579 168 l 579 301 l 710 301 z "},"궀":{"ha":1250,"x_min":0,"x_max":0,"o":""},"궁":{"ha":1273,"x_min":62,"x_max":1227,"o":"m 1065 1111 q 1111 1065 1111 1111 q 1101 900 1111 974 q 1065 702 1091 826 l 941 718 q 973 873 963 815 q 988 995 983 932 l 154 995 l 147 1111 l 1065 1111 m 1227 625 l 1227 509 l 710 509 l 710 338 q 1029 263 915 329 q 1142 85 1142 198 q 1010 -103 1142 -37 q 640 -170 878 -170 q 275 -103 404 -170 q 147 85 147 -37 q 259 264 147 198 q 579 338 372 330 l 579 509 l 62 509 l 62 625 l 1227 625 m 640 -62 q 904 -23 813 -62 q 995 85 995 15 q 904 187 995 150 q 640 224 812 224 q 380 187 474 224 q 285 85 285 150 q 379 -23 285 15 q 640 -62 472 -62 z "},"궂":{"ha":1273,"x_min":62,"x_max":1227,"o":"m 1065 1111 q 1111 1065 1111 1111 q 1101 900 1111 974 q 1065 702 1091 826 l 941 718 q 973 873 963 815 q 988 995 983 932 l 154 995 l 147 1111 l 1065 1111 m 1227 633 l 1227 525 l 710 525 l 710 370 l 579 370 l 579 525 l 62 525 l 62 633 l 1227 633 m 93 -69 q 296 -19 185 -57 q 487 79 406 20 q 577 208 568 137 l 154 208 l 154 324 l 1134 324 l 1134 208 l 711 208 q 800 81 721 137 q 989 -12 880 25 q 1196 -62 1099 -49 l 1127 -162 q 855 -86 991 -139 q 644 59 719 -32 q 423 -94 565 -35 q 162 -170 281 -153 l 93 -69 z "},"궃":{"ha":1273,"x_min":62,"x_max":1227,"o":"m 1065 1111 q 1111 1065 1111 1111 q 1096 893 1103 961 q 1073 756 1088 824 l 949 764 q 986 995 977 878 l 154 995 l 147 1111 l 1065 1111 m 1227 710 l 1227 594 l 710 594 l 710 448 l 579 448 l 579 594 l 62 594 l 62 710 l 1227 710 m 710 401 l 710 301 l 1134 301 l 1134 185 l 713 185 q 883 20 736 80 q 1196 -62 1029 -40 l 1127 -162 q 860 -94 997 -145 q 645 48 722 -43 q 428 -100 568 -46 q 162 -170 289 -153 l 93 -69 q 404 16 255 -48 q 576 185 552 80 l 154 185 l 154 301 l 579 301 l 579 401 l 710 401 z "},"궄":{"ha":1250,"x_min":0,"x_max":0,"o":""},"궅":{"ha":1250,"x_min":0,"x_max":0,"o":""},"궆":{"ha":1250,"x_min":0,"x_max":0,"o":""},"궇":{"ha":1250,"x_min":0,"x_max":0,"o":""},"궈":{"ha":1273,"x_min":62,"x_max":1150,"o":"m 764 1080 q 810 1034 810 1080 q 798 813 810 931 q 764 602 785 696 l 648 610 q 688 965 684 765 l 123 965 l 116 1080 l 764 1080 m 1026 224 l 1026 1134 l 1150 1134 l 1150 -147 l 1026 -147 l 1026 108 l 656 108 l 656 224 l 1026 224 m 216 486 q 610 500 412 486 q 941 532 809 514 l 941 417 q 508 378 773 392 l 478 -147 l 355 -147 l 383 373 l 216 370 l 62 370 l 62 486 l 216 486 z "},"궉":{"ha":1273,"x_min":62,"x_max":1150,"o":"m 779 1088 q 826 1042 826 1088 q 779 748 815 915 l 656 764 q 696 972 684 860 l 123 972 l 116 1088 l 779 1088 m 1150 1134 l 1150 278 l 1026 278 l 1026 386 l 671 386 l 671 502 l 1026 502 l 1026 1134 l 1150 1134 m 239 679 q 606 693 409 679 q 934 725 804 707 l 934 610 q 497 571 755 583 l 478 285 l 355 285 l 373 565 l 239 563 l 62 563 l 62 679 l 239 679 m 1150 -162 l 1026 -162 l 1026 108 l 177 108 l 177 224 l 1150 224 l 1150 -162 z "},"궊":{"ha":1250,"x_min":0,"x_max":0,"o":""},"궋":{"ha":1250,"x_min":0,"x_max":0,"o":""},"권":{"ha":1273,"x_min":62,"x_max":1173,"o":"m 779 1088 q 826 1042 826 1088 q 779 718 815 910 l 656 725 q 698 972 685 840 l 123 972 l 116 1088 l 779 1088 m 1150 1134 l 1150 139 l 1026 139 l 1026 309 l 671 309 l 671 424 l 1026 424 l 1026 1134 l 1150 1134 m 239 640 q 606 654 409 640 q 934 687 804 668 l 934 571 q 512 532 781 548 l 494 247 l 370 247 l 389 528 l 239 525 l 62 525 l 62 640 l 239 640 m 324 270 l 324 -8 l 1165 -8 l 1173 -131 l 247 -131 q 201 -85 201 -131 l 201 270 l 324 270 z "},"궍":{"ha":1250,"x_min":0,"x_max":0,"o":""},"궎":{"ha":1250,"x_min":0,"x_max":0,"o":""},"궏":{"ha":1250,"x_min":0,"x_max":0,"o":""},"궐":{"ha":1273,"x_min":62,"x_max":1173,"o":"m 779 1088 q 826 1042 826 1088 q 816 929 826 983 q 787 795 807 875 l 664 810 q 698 972 688 890 l 123 972 l 116 1088 l 779 1088 m 1026 571 l 1026 1134 l 1150 1134 l 1150 401 l 1026 401 l 1026 463 l 671 463 l 671 571 l 1026 571 m 239 725 q 606 739 409 725 q 934 772 804 753 l 934 656 q 497 619 776 634 l 478 394 l 355 394 l 372 613 l 239 610 l 62 610 l 62 725 l 239 725 m 1150 347 l 1150 54 l 316 54 l 316 -54 l 1165 -54 l 1173 -154 l 247 -154 q 201 -108 201 -154 l 201 147 l 1026 147 l 1026 247 l 201 247 l 201 347 l 1150 347 z "},"궑":{"ha":1250,"x_min":0,"x_max":0,"o":""},"궒":{"ha":1250,"x_min":0,"x_max":0,"o":""},"궓":{"ha":1250,"x_min":0,"x_max":0,"o":""},"궔":{"ha":1250,"x_min":0,"x_max":0,"o":""},"궕":{"ha":1250,"x_min":0,"x_max":0,"o":""},"궖":{"ha":1250,"x_min":0,"x_max":0,"o":""},"궗":{"ha":1250,"x_min":0,"x_max":0,"o":""},"궘":{"ha":1250,"x_min":0,"x_max":0,"o":""},"궙":{"ha":1250,"x_min":0,"x_max":0,"o":""},"궚":{"ha":1250,"x_min":0,"x_max":0,"o":""},"궛":{"ha":1250,"x_min":0,"x_max":0,"o":""},"궜":{"ha":1273,"x_min":62,"x_max":1289,"o":"m 779 1088 q 826 1042 826 1088 q 779 748 815 915 l 656 764 q 696 972 684 860 l 123 972 l 116 1088 l 779 1088 m 1150 1134 l 1150 278 l 1026 278 l 1026 386 l 671 386 l 671 502 l 1026 502 l 1026 1134 l 1150 1134 m 239 679 q 606 693 409 679 q 934 725 804 707 l 934 610 q 497 571 755 583 l 478 285 l 355 285 l 373 565 l 239 563 l 62 563 l 62 679 l 239 679 m 62 -77 q 274 52 185 -23 q 363 224 363 127 l 363 262 l 471 262 l 471 224 q 677 -31 471 90 q 880 224 880 91 l 880 270 l 995 270 l 995 224 q 1085 52 995 127 q 1289 -69 1174 -23 l 1219 -162 q 1063 -79 1139 -133 q 937 51 986 -26 q 821 -73 889 -20 q 679 -170 753 -127 q 418 52 498 -74 q 299 -79 372 -28 q 139 -170 225 -131 l 62 -77 z "},"궝":{"ha":1273,"x_min":62,"x_max":1181,"o":"m 779 1088 q 826 1042 826 1088 q 779 764 815 915 l 656 772 q 696 972 684 869 l 123 972 l 116 1088 l 779 1088 m 1150 1134 l 1150 316 l 1026 316 l 1026 401 l 671 401 l 671 517 l 1026 517 l 1026 1134 l 1150 1134 m 239 687 q 606 701 409 687 q 934 733 804 715 l 934 617 q 497 579 755 591 l 478 309 l 355 309 l 372 573 l 239 571 l 62 571 l 62 687 l 239 687 m 671 -170 q 380 -147 491 -170 q 215 -76 269 -125 q 162 54 162 -28 q 284 224 162 170 q 671 278 406 278 q 1059 224 937 278 q 1181 54 1181 170 q 1127 -76 1181 -28 q 963 -147 1074 -125 q 671 -170 852 -170 m 671 -62 q 960 -35 870 -62 q 1049 54 1049 -9 q 958 141 1049 113 q 671 170 866 170 q 293 54 293 170 q 384 -35 293 -8 q 671 -62 475 -62 z "},"궞":{"ha":1250,"x_min":0,"x_max":0,"o":""},"궟":{"ha":1250,"x_min":0,"x_max":0,"o":""},"궠":{"ha":1250,"x_min":0,"x_max":0,"o":""},"궡":{"ha":1250,"x_min":0,"x_max":0,"o":""},"궢":{"ha":1250,"x_min":0,"x_max":0,"o":""},"궣":{"ha":1250,"x_min":0,"x_max":0,"o":""},"궤":{"ha":1273,"x_min":54,"x_max":1188,"o":"m 617 1080 q 664 1034 664 1080 q 617 625 650 789 l 494 640 q 540 965 532 847 l 77 965 l 69 1080 l 617 1080 m 818 224 l 818 1134 l 941 1134 l 941 -147 l 818 -147 l 818 108 l 540 108 l 540 224 l 818 224 m 154 486 q 733 532 455 486 l 733 417 q 431 378 603 389 l 401 -147 l 278 -147 l 306 372 l 154 370 l 54 370 l 54 486 l 154 486 m 1188 1134 l 1188 -147 l 1065 -147 l 1065 1134 l 1188 1134 z "},"궥":{"ha":1250,"x_min":0,"x_max":0,"o":""},"궦":{"ha":1250,"x_min":0,"x_max":0,"o":""},"궧":{"ha":1250,"x_min":0,"x_max":0,"o":""},"궨":{"ha":1250,"x_min":0,"x_max":0,"o":""},"궩":{"ha":1250,"x_min":0,"x_max":0,"o":""},"궪":{"ha":1250,"x_min":0,"x_max":0,"o":""},"궫":{"ha":1250,"x_min":0,"x_max":0,"o":""},"궬":{"ha":1250,"x_min":0,"x_max":0,"o":""},"궭":{"ha":1250,"x_min":0,"x_max":0,"o":""},"궮":{"ha":1250,"x_min":0,"x_max":0,"o":""},"궯":{"ha":1250,"x_min":0,"x_max":0,"o":""},"궰":{"ha":1250,"x_min":0,"x_max":0,"o":""},"궱":{"ha":1250,"x_min":0,"x_max":0,"o":""},"궲":{"ha":1250,"x_min":0,"x_max":0,"o":""},"궳":{"ha":1250,"x_min":0,"x_max":0,"o":""},"궴":{"ha":1250,"x_min":0,"x_max":0,"o":""},"궵":{"ha":1250,"x_min":0,"x_max":0,"o":""},"궶":{"ha":1250,"x_min":0,"x_max":0,"o":""},"궷":{"ha":1273,"x_min":39,"x_max":1204,"o":"m 617 1088 q 664 1042 664 1088 q 617 748 651 875 l 494 764 q 523 879 512 833 q 539 980 534 924 l 77 980 l 69 1088 l 617 1088 m 1188 1134 l 1188 201 l 1065 201 l 1065 1134 l 1188 1134 m 941 1134 l 941 255 l 818 255 l 818 370 l 540 370 l 540 486 l 818 486 l 818 1134 l 941 1134 m 154 679 q 756 725 537 679 l 756 610 q 426 569 616 580 l 401 231 l 278 231 l 302 565 l 154 563 l 39 563 l 39 679 l 154 679 m 733 278 l 733 224 q 880 47 733 116 q 1204 -54 1028 -22 l 1150 -162 q 882 -83 1019 -139 q 671 65 745 -26 q 463 -89 597 -31 q 201 -170 329 -147 l 139 -62 q 460 42 310 -31 q 610 224 610 116 l 610 278 l 733 278 z "},"궸":{"ha":1273,"x_min":39,"x_max":1312,"o":"m 617 1088 q 664 1042 664 1088 q 617 748 651 875 l 494 764 q 523 879 512 833 q 539 980 534 924 l 77 980 l 69 1088 l 617 1088 m 1188 1134 l 1188 278 l 1065 278 l 1065 1134 l 1188 1134 m 941 1134 l 941 278 l 1019 278 l 1019 224 q 1108 53 1019 127 q 1312 -69 1198 -20 l 1250 -162 q 1090 -78 1170 -131 q 960 51 1009 -25 q 694 -170 880 -71 q 429 49 511 -71 q 139 -170 349 -79 l 62 -77 q 370 224 370 59 l 370 262 l 486 262 l 486 224 q 693 -31 486 90 q 843 86 784 23 q 903 224 903 148 l 903 278 l 818 278 l 818 386 l 540 386 l 540 502 l 818 502 l 818 1134 l 941 1134 m 154 679 q 756 725 537 679 l 756 610 q 426 569 616 580 l 401 278 l 278 278 l 302 565 l 154 563 l 39 563 l 39 679 l 154 679 z "},"궹":{"ha":1250,"x_min":0,"x_max":0,"o":""},"궺":{"ha":1250,"x_min":0,"x_max":0,"o":""},"궻":{"ha":1250,"x_min":0,"x_max":0,"o":""},"궼":{"ha":1250,"x_min":0,"x_max":0,"o":""},"궽":{"ha":1250,"x_min":0,"x_max":0,"o":""},"궾":{"ha":1250,"x_min":0,"x_max":0,"o":""},"궿":{"ha":1250,"x_min":0,"x_max":0,"o":""},"귀":{"ha":1273,"x_min":62,"x_max":1150,"o":"m 764 1080 q 810 1034 810 1080 q 798 813 810 931 q 764 602 785 696 l 648 610 q 688 965 684 765 l 123 965 l 116 1080 l 764 1080 m 201 463 q 606 477 406 463 q 941 509 807 491 l 941 394 q 529 356 773 370 l 502 -147 l 378 -147 l 406 350 l 201 347 l 62 347 l 62 463 l 201 463 m 1150 1134 l 1150 -147 l 1026 -147 l 1026 1134 l 1150 1134 z "},"귁":{"ha":1273,"x_min":62,"x_max":1150,"o":"m 779 1088 q 826 1042 826 1088 q 779 733 812 872 l 656 741 q 698 980 684 841 l 123 980 l 116 1088 l 779 1088 m 239 648 q 606 662 409 648 q 934 694 804 676 l 934 579 q 543 542 782 556 l 525 301 l 401 301 l 420 535 l 239 532 l 62 532 l 62 648 l 239 648 m 1150 1134 l 1150 301 l 1026 301 l 1026 1134 l 1150 1134 m 1150 -162 l 1026 -162 l 1026 131 l 177 131 l 177 247 l 1150 247 l 1150 -162 z "},"귂":{"ha":1250,"x_min":0,"x_max":0,"o":""},"귃":{"ha":1250,"x_min":0,"x_max":0,"o":""},"귄":{"ha":1273,"x_min":62,"x_max":1173,"o":"m 779 1088 q 826 1042 826 1088 q 779 702 813 884 l 656 718 q 698 972 688 843 l 123 972 l 116 1088 l 779 1088 m 1150 1134 l 1150 139 l 1026 139 l 1026 1134 l 1150 1134 m 239 610 q 606 623 409 610 q 934 656 804 637 l 934 540 q 542 503 784 517 l 525 231 l 401 231 l 418 497 l 239 494 l 62 494 l 62 610 l 239 610 m 324 270 l 324 -8 l 1165 -8 l 1173 -131 l 247 -131 q 201 -85 201 -131 l 201 270 l 324 270 z "},"귅":{"ha":1250,"x_min":0,"x_max":0,"o":""},"귆":{"ha":1250,"x_min":0,"x_max":0,"o":""},"귇":{"ha":1250,"x_min":0,"x_max":0,"o":""},"귈":{"ha":1273,"x_min":62,"x_max":1173,"o":"m 779 1088 q 826 1042 826 1088 q 787 787 826 941 l 664 802 q 698 980 690 881 l 123 980 l 116 1088 l 779 1088 m 239 710 q 610 724 414 710 q 934 756 807 738 l 934 640 q 540 605 776 617 l 525 424 l 401 424 l 417 599 q 239 594 324 594 l 62 594 l 62 710 l 239 710 m 1150 1142 l 1150 424 l 1026 424 l 1026 1142 l 1150 1142 m 1150 386 l 1150 69 l 316 69 l 316 -46 l 1165 -46 l 1173 -154 l 247 -154 q 201 -108 201 -154 l 201 162 l 1026 162 l 1026 278 l 201 278 l 201 386 l 1150 386 z "},"귉":{"ha":1250,"x_min":0,"x_max":0,"o":""},"귊":{"ha":1250,"x_min":0,"x_max":0,"o":""},"귋":{"ha":1250,"x_min":0,"x_max":0,"o":""},"귌":{"ha":1250,"x_min":0,"x_max":0,"o":""},"귍":{"ha":1250,"x_min":0,"x_max":0,"o":""},"귎":{"ha":1250,"x_min":0,"x_max":0,"o":""},"귏":{"ha":1250,"x_min":0,"x_max":0,"o":""},"귐":{"ha":1273,"x_min":62,"x_max":1150,"o":"m 779 1088 q 826 1042 826 1088 q 779 741 812 894 l 656 756 q 698 980 685 852 l 123 980 l 116 1088 l 779 1088 m 1150 1142 l 1150 340 l 1026 340 l 1026 1142 l 1150 1142 m 239 656 q 606 670 409 656 q 934 702 804 684 l 934 586 q 542 549 782 563 l 525 332 l 401 332 l 418 543 l 239 540 l 62 540 l 62 656 l 239 656 m 1150 278 l 1150 -147 l 247 -147 q 201 -100 201 -147 l 201 278 l 1150 278 m 1026 -39 l 1026 162 l 324 162 l 324 -39 l 1026 -39 z "},"귑":{"ha":1273,"x_min":62,"x_max":1150,"o":"m 779 1088 q 826 1042 826 1088 q 779 741 812 894 l 656 756 q 698 980 685 852 l 123 980 l 116 1088 l 779 1088 m 1150 1142 l 1150 340 l 1026 340 l 1026 1142 l 1150 1142 m 239 656 q 606 670 409 656 q 934 702 804 684 l 934 586 q 542 549 782 563 l 525 332 l 401 332 l 418 543 l 239 540 l 62 540 l 62 656 l 239 656 m 324 301 l 324 177 l 1026 177 l 1026 301 l 1150 301 l 1150 -147 l 247 -147 q 201 -100 201 -147 l 201 301 l 324 301 m 1026 -46 l 1026 77 l 324 77 l 324 -46 l 1026 -46 z "},"귒":{"ha":1250,"x_min":0,"x_max":0,"o":""},"귓":{"ha":1273,"x_min":62,"x_max":1219,"o":"m 779 1088 q 826 1042 826 1088 q 779 733 812 872 l 656 741 q 698 980 684 841 l 123 980 l 116 1088 l 779 1088 m 239 640 q 606 654 409 640 q 934 687 804 668 l 934 571 q 468 531 756 543 l 448 239 l 324 239 l 343 526 l 239 525 l 62 525 l 62 640 l 239 640 m 1150 1142 l 1150 193 l 1026 193 l 1026 1142 l 1150 1142 m 748 340 l 748 278 q 826 124 748 196 q 1015 5 904 52 q 1219 -54 1127 -42 l 1165 -162 q 901 -73 1040 -140 q 687 102 762 -5 q 475 -77 613 -6 q 216 -170 336 -148 l 154 -62 q 357 -1 245 -49 q 547 121 469 48 q 625 278 625 194 l 625 340 l 748 340 z "},"귔":{"ha":1250,"x_min":0,"x_max":0,"o":""},"귕":{"ha":1273,"x_min":62,"x_max":1181,"o":"m 779 1088 q 826 1042 826 1088 q 779 741 812 894 l 656 756 q 698 980 685 852 l 123 980 l 116 1088 l 779 1088 m 1150 1142 l 1150 340 l 1026 340 l 1026 1142 l 1150 1142 m 239 656 q 606 670 409 656 q 934 702 804 684 l 934 586 q 542 549 782 563 l 525 332 l 401 332 l 418 543 l 239 540 l 62 540 l 62 656 l 239 656 m 671 -170 q 283 -115 404 -170 q 162 62 162 -60 q 285 236 162 179 q 671 293 407 293 q 1058 236 935 293 q 1181 62 1181 179 q 1059 -115 1181 -60 q 671 -170 938 -170 m 671 -62 q 958 -32 867 -62 q 1049 62 1049 -2 q 958 155 1049 125 q 671 185 867 185 q 387 155 480 185 q 293 62 293 125 q 387 -32 293 -2 q 671 -62 480 -62 z "},"귖":{"ha":1250,"x_min":0,"x_max":0,"o":""},"귗":{"ha":1250,"x_min":0,"x_max":0,"o":""},"귘":{"ha":1250,"x_min":0,"x_max":0,"o":""},"귙":{"ha":1250,"x_min":0,"x_max":0,"o":""},"귚":{"ha":1250,"x_min":0,"x_max":0,"o":""},"귛":{"ha":1250,"x_min":0,"x_max":0,"o":""},"규":{"ha":1273,"x_min":62,"x_max":1219,"o":"m 1057 1080 q 1103 1034 1103 1080 q 1042 532 1088 711 l 910 548 q 951 753 934 642 q 972 965 968 864 l 154 965 l 147 1080 l 1057 1080 m 1219 432 l 1219 316 l 918 316 l 918 -162 l 802 -162 l 802 316 l 486 316 l 486 -162 l 363 -162 l 363 316 l 62 316 l 62 432 l 1219 432 z "},"귝":{"ha":1250,"x_min":0,"x_max":0,"o":""},"귞":{"ha":1250,"x_min":0,"x_max":0,"o":""},"귟":{"ha":1250,"x_min":0,"x_max":0,"o":""},"균":{"ha":1273,"x_min":62,"x_max":1227,"o":"m 1065 1111 q 1111 1065 1111 1111 q 1065 640 1111 861 l 941 648 q 988 995 981 863 l 154 995 l 147 1111 l 1065 1111 m 1227 579 l 1227 463 l 926 463 l 926 177 l 802 177 l 802 463 l 571 463 l 571 177 l 448 177 l 448 463 l 62 463 l 62 579 l 1227 579 m 301 301 l 301 -8 l 1134 -8 l 1142 -131 l 224 -131 q 177 -85 177 -131 l 177 301 l 301 301 z "},"귡":{"ha":1250,"x_min":0,"x_max":0,"o":""},"귢":{"ha":1250,"x_min":0,"x_max":0,"o":""},"귣":{"ha":1250,"x_min":0,"x_max":0,"o":""},"귤":{"ha":1273,"x_min":62,"x_max":1227,"o":"m 1065 1111 q 1111 1065 1111 1111 q 1096 893 1103 961 q 1073 756 1088 824 l 949 764 q 986 995 977 878 l 154 995 l 147 1111 l 1065 1111 m 1227 702 l 1227 586 l 934 586 l 934 424 l 1119 424 l 1119 85 l 293 85 l 293 -46 l 1134 -46 l 1142 -154 l 216 -154 q 170 -108 170 -154 l 170 185 l 995 185 l 995 316 l 170 316 l 170 424 l 347 424 l 347 586 l 62 586 l 62 702 l 1227 702 m 810 424 l 810 586 l 471 586 l 471 424 l 810 424 z "},"귥":{"ha":1250,"x_min":0,"x_max":0,"o":""},"귦":{"ha":1250,"x_min":0,"x_max":0,"o":""},"귧":{"ha":1250,"x_min":0,"x_max":0,"o":""},"귨":{"ha":1250,"x_min":0,"x_max":0,"o":""},"귩":{"ha":1250,"x_min":0,"x_max":0,"o":""},"귪":{"ha":1250,"x_min":0,"x_max":0,"o":""},"귫":{"ha":1250,"x_min":0,"x_max":0,"o":""},"귬":{"ha":1273,"x_min":62,"x_max":1227,"o":"m 1065 1111 q 1111 1065 1111 1111 q 1101 900 1111 974 q 1065 702 1091 826 l 941 718 q 973 873 963 815 q 988 995 983 932 l 154 995 l 147 1111 l 1065 1111 m 1227 625 l 1227 509 l 903 509 l 903 324 l 1119 324 l 1119 -147 l 216 -147 q 170 -100 170 -147 l 170 324 l 386 324 l 386 509 l 62 509 l 62 625 l 1227 625 m 995 -31 l 995 208 l 293 208 l 293 -31 l 995 -31 m 779 324 l 779 509 l 509 509 l 509 324 l 779 324 z "},"귭":{"ha":1273,"x_min":62,"x_max":1227,"o":"m 1065 1111 q 1111 1065 1111 1111 q 1101 900 1111 974 q 1065 702 1091 826 l 941 718 q 973 873 963 815 q 988 995 983 932 l 154 995 l 147 1111 l 1065 1111 m 1227 625 l 1227 509 l 903 509 l 903 301 l 779 301 l 779 509 l 509 509 l 509 301 l 386 301 l 386 509 l 62 509 l 62 625 l 1227 625 m 293 363 l 293 216 l 995 216 l 995 363 l 1119 363 l 1119 -147 l 216 -147 q 170 -100 170 -147 l 170 363 l 293 363 m 995 -39 l 995 108 l 293 108 l 293 -39 l 995 -39 z "},"귮":{"ha":1250,"x_min":0,"x_max":0,"o":""},"귯":{"ha":1250,"x_min":0,"x_max":0,"o":""},"귰":{"ha":1250,"x_min":0,"x_max":0,"o":""},"귱":{"ha":1250,"x_min":0,"x_max":0,"o":""},"귲":{"ha":1250,"x_min":0,"x_max":0,"o":""},"귳":{"ha":1250,"x_min":0,"x_max":0,"o":""},"귴":{"ha":1250,"x_min":0,"x_max":0,"o":""},"귵":{"ha":1250,"x_min":0,"x_max":0,"o":""},"귶":{"ha":1250,"x_min":0,"x_max":0,"o":""},"귷":{"ha":1250,"x_min":0,"x_max":0,"o":""},"그":{"ha":1273,"x_min":62,"x_max":1227,"o":"m 1065 1057 q 1111 1011 1111 1057 q 1093 636 1111 804 q 1042 278 1076 468 l 918 301 q 968 615 949 465 q 989 941 988 765 l 154 941 l 147 1057 l 1065 1057 m 1219 85 l 1227 -31 l 62 -31 l 62 85 l 1219 85 z "},"극":{"ha":1273,"x_min":62,"x_max":1227,"o":"m 1065 1111 q 1111 1065 1111 1111 q 1065 694 1100 869 l 941 702 q 988 995 981 852 l 154 995 l 147 1111 l 1065 1111 m 1227 594 l 1227 478 l 62 478 l 62 594 l 1227 594 m 1111 -162 l 988 -162 l 988 162 l 154 162 l 154 278 l 1111 278 l 1111 -162 z "},"귺":{"ha":1250,"x_min":0,"x_max":0,"o":""},"귻":{"ha":1250,"x_min":0,"x_max":0,"o":""},"근":{"ha":1273,"x_min":62,"x_max":1227,"o":"m 1065 1111 q 1111 1065 1111 1111 q 1065 640 1111 861 l 941 648 q 988 995 981 863 l 154 995 l 147 1111 l 1065 1111 m 1227 556 l 1227 440 l 62 440 l 62 556 l 1227 556 m 301 301 l 301 -8 l 1134 -8 l 1142 -131 l 224 -131 q 177 -85 177 -131 l 177 301 l 301 301 z "},"귽":{"ha":1250,"x_min":0,"x_max":0,"o":""},"귾":{"ha":1250,"x_min":0,"x_max":0,"o":""},"귿":{"ha":1273,"x_min":62,"x_max":1227,"o":"m 1065 1111 q 1111 1065 1111 1111 q 1101 900 1111 974 q 1065 702 1091 826 l 941 718 q 973 873 963 815 q 988 995 983 932 l 154 995 l 147 1111 l 1065 1111 m 1227 602 l 1227 486 l 62 486 l 62 602 l 1227 602 m 1119 316 l 1119 201 l 293 201 l 293 -31 l 1119 -31 l 1127 -147 l 216 -147 q 170 -100 170 -147 l 170 316 l 1119 316 z "},"글":{"ha":1273,"x_min":62,"x_max":1227,"o":"m 1065 1111 q 1111 1065 1111 1111 q 1096 893 1103 961 q 1073 756 1088 824 l 949 764 q 986 995 977 878 l 154 995 l 147 1111 l 1065 1111 m 1227 687 l 1227 571 l 62 571 l 62 687 l 1227 687 m 1119 424 l 1119 85 l 293 85 l 293 -46 l 1134 -46 l 1142 -154 l 216 -154 q 170 -108 170 -154 l 170 185 l 995 185 l 995 316 l 170 316 l 170 424 l 1119 424 z "},"긁":{"ha":1273,"x_min":62,"x_max":1227,"o":"m 1065 1111 q 1111 1065 1111 1111 q 1096 893 1103 961 q 1073 756 1088 824 l 949 764 q 986 995 977 878 l 154 995 l 147 1111 l 1065 1111 m 1227 687 l 1227 571 l 62 571 l 62 687 l 1227 687 m 170 424 l 625 424 l 625 100 l 293 100 l 293 -45 q 748 -8 566 -40 l 764 -108 q 216 -154 557 -153 q 170 -108 170 -154 l 170 201 l 502 201 l 502 316 l 170 316 l 170 424 m 1103 -170 l 980 -170 l 980 309 l 687 309 l 687 424 l 1103 424 l 1103 -170 z "},"긂":{"ha":1273,"x_min":62,"x_max":1227,"o":"m 1065 1111 q 1111 1065 1111 1111 q 1096 893 1103 961 q 1073 756 1088 824 l 949 764 q 986 995 977 878 l 154 995 l 147 1111 l 1065 1111 m 1227 687 l 1227 571 l 62 571 l 62 687 l 1227 687 m 1119 417 l 1119 -154 l 702 -154 l 702 417 l 1119 417 m 1003 -39 l 1003 309 l 810 309 l 810 -39 l 1003 -39 m 170 417 l 625 417 l 625 93 l 293 93 l 293 -42 q 656 -15 519 -42 l 664 -123 q 216 -154 506 -151 q 170 -108 170 -154 l 170 193 l 502 193 l 502 316 l 170 316 l 170 417 z "},"긃":{"ha":1250,"x_min":0,"x_max":0,"o":""},"긄":{"ha":1250,"x_min":0,"x_max":0,"o":""},"긅":{"ha":1250,"x_min":0,"x_max":0,"o":""},"긆":{"ha":1250,"x_min":0,"x_max":0,"o":""},"긇":{"ha":1273,"x_min":62,"x_max":1227,"o":"m 1065 1111 q 1111 1065 1111 1111 q 1096 893 1103 961 q 1073 756 1088 824 l 949 764 q 986 995 977 878 l 154 995 l 147 1111 l 1065 1111 m 1227 687 l 1227 571 l 62 571 l 62 687 l 1227 687 m 980 463 l 980 363 l 1188 363 l 1188 262 l 648 262 l 648 363 l 856 363 l 856 463 l 980 463 m 918 -177 q 744 -125 809 -177 q 679 15 679 -73 q 745 149 679 97 q 918 201 810 201 q 1092 149 1026 201 q 1157 15 1157 97 q 1093 -125 1157 -73 q 918 -177 1028 -177 m 918 -77 q 1009 -54 977 -77 q 1042 15 1042 -31 q 1009 78 1042 56 q 918 100 977 100 q 821 78 855 100 q 787 15 787 56 q 918 -77 787 -77 m 170 417 l 625 417 l 625 93 l 293 93 l 293 -42 q 656 -15 519 -42 l 664 -123 q 216 -154 506 -151 q 170 -108 170 -154 l 170 193 l 502 193 l 502 316 l 170 316 l 170 417 z "},"금":{"ha":1273,"x_min":62,"x_max":1227,"o":"m 1065 1111 q 1111 1065 1111 1111 q 1101 900 1111 974 q 1065 702 1091 826 l 941 718 q 973 873 963 815 q 988 995 983 932 l 154 995 l 147 1111 l 1065 1111 m 1227 602 l 1227 486 l 62 486 l 62 602 l 1227 602 m 1119 324 l 1119 -147 l 216 -147 q 170 -100 170 -147 l 170 324 l 1119 324 m 995 -31 l 995 208 l 293 208 l 293 -31 l 995 -31 z "},"급":{"ha":1273,"x_min":62,"x_max":1227,"o":"m 1065 1111 q 1111 1065 1111 1111 q 1101 900 1111 974 q 1065 702 1091 826 l 941 718 q 973 873 963 815 q 988 995 983 932 l 154 995 l 147 1111 l 1065 1111 m 1227 602 l 1227 486 l 62 486 l 62 602 l 1227 602 m 293 363 l 293 216 l 995 216 l 995 363 l 1119 363 l 1119 -147 l 216 -147 q 170 -100 170 -147 l 170 363 l 293 363 m 995 -39 l 995 108 l 293 108 l 293 -39 l 995 -39 z "},"긊":{"ha":1250,"x_min":0,"x_max":0,"o":""},"긋":{"ha":1273,"x_min":62,"x_max":1227,"o":"m 1065 1111 q 1111 1065 1111 1111 q 1065 640 1111 861 l 941 648 q 988 995 981 863 l 154 995 l 147 1111 l 1065 1111 m 1227 556 l 1227 440 l 62 440 l 62 556 l 1227 556 m 710 324 l 710 262 q 859 64 710 140 q 1196 -54 1008 -12 l 1134 -162 q 865 -76 1008 -139 q 645 86 722 -12 q 424 -82 566 -17 q 154 -170 281 -147 l 93 -62 q 308 -1 196 -43 q 499 109 420 42 q 579 262 579 176 l 579 324 l 710 324 z "},"긌":{"ha":1250,"x_min":0,"x_max":0,"o":""},"긍":{"ha":1273,"x_min":62,"x_max":1227,"o":"m 1065 1111 q 1111 1065 1111 1111 q 1101 900 1111 974 q 1065 702 1091 826 l 941 718 q 973 873 963 815 q 988 995 983 932 l 154 995 l 147 1111 l 1065 1111 m 1227 602 l 1227 486 l 62 486 l 62 602 l 1227 602 m 640 -170 q 275 -103 404 -170 q 147 85 147 -37 q 275 273 147 207 q 640 340 404 340 q 1010 273 878 340 q 1142 85 1142 207 q 1010 -103 1142 -37 q 640 -170 878 -170 m 640 -62 q 904 -23 813 -62 q 995 85 995 15 q 904 187 995 150 q 640 224 812 224 q 380 187 474 224 q 285 85 285 150 q 379 -23 285 15 q 640 -62 472 -62 z "},"긎":{"ha":1250,"x_min":0,"x_max":0,"o":""},"긏":{"ha":1273,"x_min":62,"x_max":1227,"o":"m 1065 1111 q 1111 1065 1111 1111 q 1096 893 1103 961 q 1073 756 1088 824 l 949 764 q 986 995 977 878 l 154 995 l 147 1111 l 1065 1111 m 1227 687 l 1227 571 l 62 571 l 62 687 l 1227 687 m 710 448 l 710 324 l 1134 324 l 1134 208 l 713 208 q 809 79 728 136 q 996 -14 890 22 q 1196 -62 1102 -49 l 1127 -162 q 863 -89 1003 -145 q 645 65 722 -32 q 426 -93 568 -34 q 162 -170 284 -153 l 93 -69 q 292 -20 185 -57 q 479 76 398 17 q 576 208 560 136 l 154 208 l 154 324 l 579 324 l 579 448 l 710 448 z "},"긐":{"ha":1250,"x_min":0,"x_max":0,"o":""},"긑":{"ha":1273,"x_min":62,"x_max":1227,"o":"m 1065 1111 q 1111 1065 1111 1111 q 1096 893 1103 961 q 1073 756 1088 824 l 949 764 q 986 995 977 878 l 154 995 l 147 1111 l 1065 1111 m 1227 687 l 1227 571 l 62 571 l 62 687 l 1227 687 m 1127 424 l 1127 316 l 293 316 l 293 185 l 1119 185 l 1119 85 l 293 85 l 293 -46 l 1134 -46 l 1142 -154 l 216 -154 q 170 -108 170 -154 l 170 424 l 1127 424 z "},"긒":{"ha":1250,"x_min":0,"x_max":0,"o":""},"긓":{"ha":1273,"x_min":62,"x_max":1227,"o":"m 1065 1111 q 1111 1065 1111 1111 q 1096 893 1103 961 q 1073 756 1088 824 l 949 764 q 986 995 977 878 l 154 995 l 147 1111 l 1065 1111 m 1227 687 l 1227 571 l 62 571 l 62 687 l 1227 687 m 640 -170 q 282 -126 395 -170 q 170 15 170 -82 q 285 155 170 110 q 640 201 400 201 q 1001 154 883 201 q 1119 15 1119 108 q 1002 -126 1119 -82 q 640 -170 886 -170 m 640 -77 q 910 -54 824 -77 q 995 15 995 -31 q 911 81 995 62 q 640 100 827 100 q 373 81 454 100 q 293 15 293 62 q 376 -55 293 -32 q 640 -77 458 -77 m 702 471 l 702 378 l 1157 378 l 1157 278 l 131 278 l 131 378 l 579 378 l 579 471 l 702 471 z "},"긔":{"ha":1273,"x_min":77,"x_max":1150,"o":"m 764 1019 q 810 972 810 1019 q 748 270 810 579 l 625 278 q 688 903 687 582 l 123 903 l 116 1019 l 764 1019 m 201 116 q 588 130 358 116 q 934 162 818 145 l 934 46 q 588 15 818 29 q 201 0 358 0 l 77 0 l 77 116 l 201 116 m 1150 1134 l 1150 -147 l 1026 -147 l 1026 1134 l 1150 1134 z "},"긕":{"ha":1250,"x_min":0,"x_max":0,"o":""},"긖":{"ha":1250,"x_min":0,"x_max":0,"o":""},"긗":{"ha":1250,"x_min":0,"x_max":0,"o":""},"긘":{"ha":1273,"x_min":77,"x_max":1173,"o":"m 779 1088 q 826 1042 826 1088 q 815 833 826 948 q 787 633 804 719 l 664 640 q 699 972 691 792 l 123 972 l 116 1088 l 779 1088 m 1150 1134 l 1150 208 l 1026 208 l 1026 1134 l 1150 1134 m 208 525 q 618 537 415 525 q 949 571 821 549 l 949 455 q 618 421 821 434 q 208 409 415 409 l 77 409 l 77 525 l 208 525 m 340 255 l 340 -8 l 1173 -8 l 1173 -131 l 262 -131 q 216 -85 216 -131 l 216 255 l 340 255 z "},"긙":{"ha":1250,"x_min":0,"x_max":0,"o":""},"긚":{"ha":1250,"x_min":0,"x_max":0,"o":""},"긛":{"ha":1250,"x_min":0,"x_max":0,"o":""},"긜":{"ha":1250,"x_min":0,"x_max":0,"o":""},"긝":{"ha":1250,"x_min":0,"x_max":0,"o":""},"긞":{"ha":1250,"x_min":0,"x_max":0,"o":""},"긟":{"ha":1250,"x_min":0,"x_max":0,"o":""},"긠":{"ha":1250,"x_min":0,"x_max":0,"o":""},"긡":{"ha":1250,"x_min":0,"x_max":0,"o":""},"긢":{"ha":1250,"x_min":0,"x_max":0,"o":""},"긣":{"ha":1250,"x_min":0,"x_max":0,"o":""},"긤":{"ha":1250,"x_min":0,"x_max":0,"o":""},"긥":{"ha":1250,"x_min":0,"x_max":0,"o":""},"긦":{"ha":1250,"x_min":0,"x_max":0,"o":""},"긧":{"ha":1250,"x_min":0,"x_max":0,"o":""},"긨":{"ha":1250,"x_min":0,"x_max":0,"o":""},"긩":{"ha":1273,"x_min":77,"x_max":1173,"o":"m 779 1088 q 826 1042 826 1088 q 787 687 826 867 l 664 694 q 699 972 690 829 l 123 972 l 116 1088 l 779 1088 m 1150 1134 l 1150 394 l 1026 394 l 1026 1134 l 1150 1134 m 208 571 q 618 583 415 571 q 949 617 821 596 l 949 502 q 618 468 821 480 q 208 455 415 455 l 77 455 l 77 571 l 208 571 m 679 -170 q 317 -107 441 -170 q 193 77 193 -45 q 318 265 193 199 q 679 332 443 332 q 1045 265 917 332 q 1173 77 1173 199 q 1046 -106 1173 -43 q 679 -170 918 -170 m 679 -62 q 946 -25 850 -62 q 1042 77 1042 12 q 946 179 1042 142 q 679 216 850 216 q 416 179 508 216 q 324 77 324 142 q 416 -25 324 12 q 679 -62 508 -62 z "},"긪":{"ha":1250,"x_min":0,"x_max":0,"o":""},"긫":{"ha":1250,"x_min":0,"x_max":0,"o":""},"긬":{"ha":1250,"x_min":0,"x_max":0,"o":""},"긭":{"ha":1250,"x_min":0,"x_max":0,"o":""},"긮":{"ha":1250,"x_min":0,"x_max":0,"o":""},"긯":{"ha":1250,"x_min":0,"x_max":0,"o":""},"기":{"ha":1273,"x_min":85,"x_max":1150,"o":"m 702 1034 q 748 988 748 1034 q 582 408 731 639 q 162 46 432 177 l 85 139 q 456 449 318 253 q 614 918 594 645 l 123 918 l 116 1034 l 702 1034 m 1150 1134 l 1150 -147 l 1019 -147 l 1019 1134 l 1150 1134 z "},"긱":{"ha":1273,"x_min":85,"x_max":1150,"o":"m 710 1088 q 756 1042 756 1088 q 573 636 739 795 q 131 417 407 477 l 85 540 q 610 972 552 637 l 123 972 l 116 1088 l 710 1088 m 1150 1134 l 1150 409 l 1019 409 l 1019 1134 l 1150 1134 m 1150 -162 l 1019 -162 l 1019 185 l 239 185 l 239 301 l 1150 301 l 1150 -162 z "},"긲":{"ha":1250,"x_min":0,"x_max":0,"o":""},"긳":{"ha":1250,"x_min":0,"x_max":0,"o":""},"긴":{"ha":1273,"x_min":85,"x_max":1188,"o":"m 710 1088 q 756 1042 756 1088 q 573 620 739 789 q 131 386 406 452 l 85 502 q 456 681 324 562 q 613 972 588 799 l 123 972 l 116 1088 l 710 1088 m 1150 1134 l 1150 185 l 1019 185 l 1019 1134 l 1150 1134 m 386 278 l 386 -8 l 1181 -8 l 1188 -131 l 309 -131 q 262 -85 262 -131 l 262 278 l 386 278 z "},"긵":{"ha":1250,"x_min":0,"x_max":0,"o":""},"긶":{"ha":1250,"x_min":0,"x_max":0,"o":""},"긷":{"ha":1273,"x_min":85,"x_max":1173,"o":"m 710 1088 q 756 1042 756 1088 q 576 660 739 802 q 131 455 412 517 l 85 571 q 454 718 326 622 q 610 972 582 815 l 123 972 l 116 1088 l 710 1088 m 1150 1134 l 1150 440 l 1019 440 l 1019 1134 l 1150 1134 m 1150 340 l 1150 224 l 386 224 l 386 -31 l 1165 -31 l 1173 -147 l 309 -147 q 262 -100 262 -147 l 262 340 l 1150 340 z "},"길":{"ha":1273,"x_min":85,"x_max":1173,"o":"m 710 1088 q 756 1042 756 1088 q 572 689 739 819 q 131 502 404 559 l 85 617 q 442 748 312 662 q 606 972 573 833 l 123 972 l 116 1088 l 710 1088 m 1150 1134 l 1150 517 l 1019 517 l 1019 1134 l 1150 1134 m 262 440 l 1150 440 l 1150 93 l 386 93 l 386 -46 l 1165 -46 l 1173 -154 l 309 -154 q 262 -108 262 -154 l 262 193 l 1026 193 l 1026 332 l 262 332 l 262 440 z "},"긹":{"ha":1250,"x_min":0,"x_max":0,"o":""},"긺":{"ha":1273,"x_min":85,"x_max":1150,"o":"m 710 1088 q 756 1042 756 1088 q 572 689 739 819 q 131 502 404 559 l 85 617 q 442 748 312 662 q 606 972 573 833 l 123 972 l 116 1088 l 710 1088 m 1150 1134 l 1150 517 l 1019 517 l 1019 1134 l 1150 1134 m 1150 440 l 1150 -154 l 733 -154 l 733 440 l 1150 440 m 1034 -39 l 1034 324 l 849 324 l 849 -39 l 1034 -39 m 216 440 l 656 440 l 656 100 l 340 100 l 340 -42 q 679 -15 542 -42 l 694 -123 q 508 -148 606 -142 q 262 -154 410 -154 q 216 -108 216 -154 l 216 201 l 532 201 l 532 332 l 216 332 l 216 440 z "},"긻":{"ha":1250,"x_min":0,"x_max":0,"o":""},"긼":{"ha":1250,"x_min":0,"x_max":0,"o":""},"긽":{"ha":1250,"x_min":0,"x_max":0,"o":""},"긾":{"ha":1250,"x_min":0,"x_max":0,"o":""},"긿":{"ha":1250,"x_min":0,"x_max":0,"o":""},"김":{"ha":1273,"x_min":62,"x_max":1150,"o":"m 687 1088 q 733 1042 733 1088 q 552 660 716 802 q 108 455 389 517 l 62 571 q 431 718 302 622 q 586 972 559 815 l 100 972 l 93 1088 l 687 1088 m 1150 1134 l 1150 440 l 1019 440 l 1019 1134 l 1150 1134 m 1150 340 l 1150 -147 l 309 -147 q 262 -100 262 -147 l 262 340 l 1150 340 m 1019 -31 l 1019 224 l 386 224 l 386 -31 l 1019 -31 z "},"깁":{"ha":1273,"x_min":62,"x_max":1150,"o":"m 687 1088 q 733 1042 733 1088 q 552 660 716 802 q 108 455 389 517 l 62 571 q 431 718 302 622 q 586 972 559 815 l 100 972 l 93 1088 l 687 1088 m 1150 1134 l 1150 440 l 1019 440 l 1019 1134 l 1150 1134 m 386 370 l 386 224 l 1019 224 l 1019 370 l 1150 370 l 1150 -147 l 309 -147 q 262 -100 262 -147 l 262 370 l 386 370 m 1019 -31 l 1019 116 l 386 116 l 386 -31 l 1019 -31 z "},"깂":{"ha":1250,"x_min":0,"x_max":0,"o":""},"깃":{"ha":1273,"x_min":85,"x_max":1242,"o":"m 710 1088 q 756 1042 756 1088 q 573 620 739 789 q 131 386 406 452 l 85 502 q 456 681 324 562 q 613 972 588 799 l 123 972 l 116 1088 l 710 1088 m 1150 1134 l 1150 324 l 1019 324 l 1019 1134 l 1150 1134 m 772 440 l 772 363 q 848 182 772 269 q 1035 33 924 96 q 1242 -54 1145 -29 l 1181 -162 q 921 -42 1059 -128 q 708 165 782 43 q 570 11 656 80 q 394 -104 485 -59 q 231 -170 304 -150 l 177 -62 q 382 29 272 -35 q 570 181 492 93 q 648 363 648 270 l 648 440 l 772 440 z "},"깄":{"ha":1273,"x_min":85,"x_max":1304,"o":"m 710 1088 q 756 1042 756 1088 q 573 636 739 795 q 131 417 407 477 l 85 540 q 610 972 552 637 l 123 972 l 116 1088 l 710 1088 m 1150 1134 l 1150 409 l 1019 409 l 1019 1134 l 1150 1134 m 123 -77 q 320 82 239 -12 q 401 301 401 176 l 401 370 l 517 370 l 517 293 q 574 119 517 201 q 715 -25 631 37 q 853 119 796 37 q 910 293 910 201 l 910 370 l 1019 370 l 1019 293 q 1103 80 1019 173 q 1304 -69 1188 -12 l 1227 -162 q 963 90 1040 -57 q 845 -67 917 2 q 710 -170 773 -136 q 575 -65 644 -130 q 460 85 506 0 q 201 -170 380 -62 l 123 -77 z "},"깅":{"ha":1273,"x_min":85,"x_max":1173,"o":"m 710 1088 q 756 1042 756 1088 q 573 636 739 795 q 131 417 407 477 l 85 540 q 610 972 552 637 l 123 972 l 116 1088 l 710 1088 m 1150 1134 l 1150 409 l 1019 409 l 1019 1134 l 1150 1134 m 710 -170 q 360 -100 481 -170 q 239 93 239 -31 q 360 292 239 221 q 710 363 481 363 q 1053 292 934 363 q 1173 93 1173 221 q 1052 -100 1173 -31 q 710 -170 932 -170 m 710 -54 q 950 -15 866 -54 q 1034 93 1034 23 q 949 205 1034 164 q 710 247 864 247 q 462 205 546 247 q 378 93 378 164 q 461 -16 378 22 q 710 -54 545 -54 z "},"깆":{"ha":1273,"x_min":62,"x_max":1242,"o":"m 687 1088 q 733 1042 733 1088 q 552 660 716 802 q 108 455 389 517 l 62 571 q 431 718 302 622 q 586 972 559 815 l 100 972 l 93 1088 l 687 1088 m 1150 1134 l 1150 440 l 1019 440 l 1019 1134 l 1150 1134 m 177 -62 q 373 -1 272 -42 q 552 100 475 40 q 645 231 630 160 l 247 231 l 247 347 l 1181 347 l 1181 231 l 775 231 q 941 56 798 130 q 1242 -54 1085 -19 l 1181 -162 q 913 -63 1042 -125 q 711 94 784 -2 q 508 -69 639 -5 q 247 -170 377 -134 l 177 -62 z "},"깇":{"ha":1250,"x_min":0,"x_max":0,"o":""},"깈":{"ha":1250,"x_min":0,"x_max":0,"o":""},"깉":{"ha":1250,"x_min":0,"x_max":0,"o":""},"깊":{"ha":1273,"x_min":62,"x_max":1188,"o":"m 687 1088 q 733 1042 733 1088 q 552 660 716 802 q 108 455 389 517 l 62 571 q 431 718 302 622 q 586 972 559 815 l 100 972 l 93 1088 l 687 1088 m 1150 1134 l 1150 440 l 1019 440 l 1019 1134 l 1150 1134 m 444 -31 l 429 231 l 247 231 l 247 347 l 1165 347 l 1165 231 l 991 231 l 975 -31 l 1181 -31 l 1188 -147 l 224 -147 l 224 -31 l 444 -31 m 852 -31 l 867 231 l 552 231 l 568 -31 l 852 -31 z "},"깋":{"ha":1250,"x_min":0,"x_max":0,"o":""},"까":{"ha":1273,"x_min":39,"x_max":1289,"o":"m 448 1034 q 367 501 448 730 q 147 93 287 272 l 39 154 q 242 495 165 310 q 330 918 318 681 l 100 918 l 93 1034 l 448 1034 m 779 1034 q 826 988 826 1034 q 743 425 819 682 q 532 0 667 168 l 424 69 q 620 444 545 222 q 702 918 696 665 l 494 918 l 494 1034 l 779 1034 m 1119 1134 l 1119 664 l 1289 664 l 1289 540 l 1119 540 l 1119 -147 l 995 -147 l 995 1134 l 1119 1134 z "},"깍":{"ha":1273,"x_min":39,"x_max":1296,"o":"m 448 1088 q 139 486 448 687 l 39 563 q 321 972 289 707 l 100 972 l 93 1088 l 448 1088 m 779 1088 q 818 1042 818 1083 q 730 672 807 835 q 525 417 653 509 l 424 486 q 603 687 529 559 q 693 972 677 815 l 486 972 l 486 1088 l 779 1088 m 1119 1134 l 1119 872 l 1296 872 l 1296 756 l 1119 756 l 1119 409 l 995 409 l 995 1134 l 1119 1134 m 1119 -162 l 995 -162 l 995 185 l 170 185 l 170 301 l 1119 301 l 1119 -162 z "},"깎":{"ha":1273,"x_min":39,"x_max":1296,"o":"m 448 1088 q 139 486 448 687 l 39 563 q 321 972 289 707 l 100 972 l 93 1088 l 448 1088 m 779 1088 q 818 1042 818 1083 q 730 672 807 835 q 525 417 653 509 l 424 486 q 603 687 529 559 q 693 972 677 815 l 486 972 l 486 1088 l 779 1088 m 1119 1134 l 1119 872 l 1296 872 l 1296 756 l 1119 756 l 1119 409 l 995 409 l 995 1134 l 1119 1134 m 602 -162 l 478 -162 l 478 185 l 139 185 l 139 301 l 602 301 l 602 -162 m 1119 -162 l 995 -162 l 995 185 l 664 185 l 664 301 l 1119 301 l 1119 -162 z "},"깏":{"ha":1250,"x_min":0,"x_max":0,"o":""},"깐":{"ha":1273,"x_min":39,"x_max":1296,"o":"m 448 1088 q 362 711 448 875 q 139 448 276 548 l 39 525 q 226 711 148 596 q 321 972 304 826 l 100 972 l 93 1088 l 448 1088 m 772 1088 q 818 1042 818 1088 q 728 654 807 830 q 525 378 648 478 l 424 448 q 600 669 523 526 q 691 972 676 812 l 486 972 l 486 1088 l 772 1088 m 1119 1134 l 1119 810 l 1296 810 l 1296 694 l 1119 694 l 1119 216 l 995 216 l 995 1134 l 1119 1134 m 316 278 l 316 -8 l 1150 -8 l 1157 -131 l 239 -131 q 193 -85 193 -131 l 193 278 l 316 278 z "},"깑":{"ha":1250,"x_min":0,"x_max":0,"o":""},"깒":{"ha":1250,"x_min":0,"x_max":0,"o":""},"깓":{"ha":1250,"x_min":0,"x_max":0,"o":""},"깔":{"ha":1273,"x_min":39,"x_max":1304,"o":"m 448 1088 q 366 783 448 898 q 139 579 284 668 l 39 656 q 224 787 151 715 q 318 972 296 860 l 100 972 l 93 1088 l 448 1088 m 772 1088 q 818 1042 818 1088 q 733 739 807 864 q 525 517 659 614 l 424 594 q 603 761 534 671 q 690 972 673 850 l 486 972 l 486 1088 l 772 1088 m 1119 1134 l 1119 918 l 1304 918 l 1304 802 l 1119 802 l 1119 517 l 995 517 l 995 1134 l 1119 1134 m 1119 440 l 1119 93 l 316 93 l 316 -46 l 1134 -46 l 1142 -154 l 239 -154 q 193 -108 193 -154 l 193 193 l 995 193 l 995 332 l 193 332 l 193 440 l 1119 440 z "},"깕":{"ha":1250,"x_min":0,"x_max":0,"o":""},"깖":{"ha":1273,"x_min":39,"x_max":1304,"o":"m 448 1088 q 366 783 448 898 q 139 579 284 668 l 39 656 q 224 787 151 715 q 318 972 296 860 l 100 972 l 93 1088 l 448 1088 m 772 1088 q 818 1042 818 1088 q 733 739 807 864 q 525 517 659 614 l 424 594 q 603 761 534 671 q 690 972 673 850 l 486 972 l 486 1088 l 772 1088 m 1119 1134 l 1119 918 l 1304 918 l 1304 802 l 1119 802 l 1119 517 l 995 517 l 995 1134 l 1119 1134 m 1119 440 l 1119 -154 l 687 -154 l 687 440 l 1119 440 m 1003 -39 l 1003 324 l 802 324 l 802 -39 l 1003 -39 m 147 440 l 602 440 l 602 93 l 262 93 l 262 -42 q 633 -15 480 -43 l 648 -123 q 454 -148 560 -142 q 193 -154 349 -154 q 147 -108 147 -154 l 147 201 l 486 201 l 486 332 l 147 332 l 147 440 z "},"깗":{"ha":1250,"x_min":0,"x_max":0,"o":""},"깘":{"ha":1250,"x_min":0,"x_max":0,"o":""},"깙":{"ha":1250,"x_min":0,"x_max":0,"o":""},"깚":{"ha":1250,"x_min":0,"x_max":0,"o":""},"깛":{"ha":1250,"x_min":0,"x_max":0,"o":""},"깜":{"ha":1273,"x_min":39,"x_max":1304,"o":"m 448 1088 q 363 742 448 881 q 139 502 279 602 l 39 571 q 319 972 285 727 l 100 972 l 93 1088 l 448 1088 m 779 1088 q 818 1042 818 1083 q 525 440 796 660 l 424 509 q 603 709 529 591 q 691 972 676 827 l 486 972 l 486 1088 l 779 1088 m 1119 1134 l 1119 880 l 1304 880 l 1304 764 l 1119 764 l 1119 448 l 995 448 l 995 1134 l 1119 1134 m 1119 340 l 1119 -147 l 239 -147 q 193 -100 193 -147 l 193 340 l 1119 340 m 988 -31 l 988 224 l 316 224 l 316 -31 l 988 -31 z "},"깝":{"ha":1273,"x_min":39,"x_max":1304,"o":"m 448 1088 q 363 742 448 881 q 139 502 279 602 l 39 571 q 319 972 285 727 l 100 972 l 93 1088 l 448 1088 m 779 1088 q 818 1042 818 1083 q 525 440 796 660 l 424 509 q 603 709 529 591 q 691 972 676 827 l 486 972 l 486 1088 l 779 1088 m 1119 1134 l 1119 880 l 1304 880 l 1304 764 l 1119 764 l 1119 448 l 995 448 l 995 1134 l 1119 1134 m 316 370 l 316 224 l 988 224 l 988 370 l 1119 370 l 1119 -147 l 239 -147 q 193 -100 193 -147 l 193 370 l 316 370 m 988 -31 l 988 116 l 316 116 l 316 -31 l 988 -31 z "},"깞":{"ha":1250,"x_min":0,"x_max":0,"o":""},"깟":{"ha":1273,"x_min":39,"x_max":1296,"o":"m 448 1088 q 362 711 448 875 q 139 448 276 548 l 39 525 q 226 711 148 596 q 321 972 304 826 l 100 972 l 93 1088 l 448 1088 m 772 1088 q 818 1042 818 1088 q 728 654 807 830 q 525 378 648 478 l 424 448 q 600 669 523 526 q 691 972 676 812 l 486 972 l 486 1088 l 772 1088 m 1119 1134 l 1119 872 l 1296 872 l 1296 756 l 1119 756 l 1119 324 l 995 324 l 995 1134 l 1119 1134 m 756 363 l 756 301 q 909 76 756 164 q 1242 -54 1062 -12 l 1181 -162 q 903 -66 1043 -131 q 687 108 762 0 q 466 -72 606 -3 q 193 -170 326 -140 l 131 -62 q 350 9 238 -37 q 543 130 461 56 q 625 301 625 205 l 625 363 l 756 363 z "},"깠":{"ha":1273,"x_min":39,"x_max":1296,"o":"m 448 1088 q 139 486 448 687 l 39 563 q 321 972 289 707 l 100 972 l 93 1088 l 448 1088 m 779 1088 q 818 1042 818 1083 q 730 672 807 835 q 525 417 653 509 l 424 486 q 603 687 529 559 q 693 972 677 815 l 486 972 l 486 1088 l 779 1088 m 1119 1134 l 1119 872 l 1296 872 l 1296 756 l 1119 756 l 1119 409 l 995 409 l 995 1134 l 1119 1134 m 54 -77 q 258 81 176 -9 q 340 301 340 171 l 340 370 l 463 370 l 463 301 q 668 -26 463 119 q 807 118 750 34 q 864 301 864 202 l 864 370 l 988 370 l 988 301 q 1074 81 988 171 q 1281 -69 1160 -9 l 1196 -162 q 926 90 1008 -56 q 801 -67 877 2 q 664 -170 725 -136 q 525 -62 597 -128 q 403 88 452 3 q 285 -60 356 5 q 139 -170 213 -125 l 54 -77 z "},"깡":{"ha":1273,"x_min":39,"x_max":1296,"o":"m 448 1088 q 139 486 448 687 l 39 563 q 321 972 289 707 l 100 972 l 93 1088 l 448 1088 m 779 1088 q 818 1042 818 1083 q 730 672 807 835 q 525 417 653 509 l 424 486 q 603 687 529 559 q 693 972 677 815 l 486 972 l 486 1088 l 779 1088 m 1119 1134 l 1119 872 l 1296 872 l 1296 756 l 1119 756 l 1119 409 l 995 409 l 995 1134 l 1119 1134 m 656 -170 q 302 -100 427 -170 q 177 93 177 -31 q 302 292 177 221 q 656 363 426 363 q 1015 292 887 363 q 1142 93 1142 221 q 1014 -100 1142 -29 q 656 -170 886 -170 m 656 -54 q 917 -15 824 -54 q 1011 93 1011 23 q 917 205 1011 164 q 656 247 823 247 q 400 205 491 247 q 309 93 309 164 q 399 -15 309 23 q 656 -54 489 -54 z "},"깢":{"ha":1250,"x_min":0,"x_max":0,"o":""},"깣":{"ha":1250,"x_min":0,"x_max":0,"o":""},"깤":{"ha":1250,"x_min":0,"x_max":0,"o":""},"깥":{"ha":1273,"x_min":39,"x_max":1304,"o":"m 448 1088 q 366 783 448 898 q 139 579 284 668 l 39 656 q 224 787 151 715 q 318 972 296 860 l 100 972 l 93 1088 l 448 1088 m 772 1088 q 818 1042 818 1088 q 733 739 807 864 q 525 517 659 614 l 424 594 q 603 761 534 671 q 690 972 673 850 l 486 972 l 486 1088 l 772 1088 m 1119 1134 l 1119 918 l 1304 918 l 1304 802 l 1119 802 l 1119 517 l 995 517 l 995 1134 l 1119 1134 m 1127 440 l 1127 332 l 316 332 l 316 193 l 1119 193 l 1119 93 l 316 93 l 316 -46 l 1134 -46 l 1142 -154 l 239 -154 q 193 -108 193 -154 l 193 440 l 1127 440 z "},"깦":{"ha":1250,"x_min":0,"x_max":0,"o":""},"깧":{"ha":1250,"x_min":0,"x_max":0,"o":""},"깨":{"ha":1273,"x_min":8,"x_max":1196,"o":"m 370 1034 q 307 512 364 736 q 116 93 250 287 l 8 147 q 183 493 125 309 q 252 910 241 677 l 69 910 l 62 1034 l 370 1034 m 664 1034 q 710 988 710 1034 q 638 436 698 676 q 455 0 579 196 l 347 62 q 525 440 463 230 q 594 910 586 650 l 409 910 l 409 1034 l 664 1034 m 949 1134 l 949 656 l 1080 656 l 1080 1134 l 1196 1134 l 1196 -147 l 1080 -147 l 1080 532 l 949 532 l 949 -147 l 833 -147 l 833 1134 l 949 1134 z "},"깩":{"ha":1273,"x_min":15,"x_max":1196,"o":"m 370 1088 q 304 749 370 889 q 116 494 238 610 l 15 563 q 176 740 114 645 q 253 972 238 835 l 69 972 l 62 1088 l 370 1088 m 664 1088 q 710 1042 710 1088 q 629 677 699 841 q 455 417 559 514 l 355 478 q 512 684 444 557 q 593 972 579 812 l 409 972 l 409 1088 l 664 1088 m 949 1134 l 949 872 l 1080 872 l 1080 1134 l 1196 1134 l 1196 409 l 1080 409 l 1080 756 l 949 756 l 949 409 l 833 409 l 833 1134 l 949 1134 m 1196 -162 l 1073 -162 l 1073 193 l 193 193 l 193 301 l 1196 301 l 1196 -162 z "},"깪":{"ha":1250,"x_min":0,"x_max":0,"o":""},"깫":{"ha":1250,"x_min":0,"x_max":0,"o":""},"깬":{"ha":1273,"x_min":15,"x_max":1219,"o":"m 370 1088 q 307 717 370 875 q 116 448 244 559 l 15 517 q 182 711 120 600 q 255 972 244 823 l 69 972 l 62 1088 l 370 1088 m 664 1088 q 710 1042 710 1088 q 639 647 704 823 q 455 370 574 472 l 355 432 q 518 657 452 514 q 594 972 583 799 l 409 972 l 409 1088 l 664 1088 m 949 1134 l 949 810 l 1080 810 l 1080 1134 l 1196 1134 l 1196 208 l 1080 208 l 1080 694 l 949 694 l 949 208 l 833 208 l 833 1134 l 949 1134 m 340 278 l 340 -8 l 1211 -8 l 1219 -131 l 262 -131 q 216 -85 216 -131 l 216 278 l 340 278 z "},"깭":{"ha":1250,"x_min":0,"x_max":0,"o":""},"깮":{"ha":1250,"x_min":0,"x_max":0,"o":""},"깯":{"ha":1273,"x_min":15,"x_max":1219,"o":"m 370 1088 q 308 759 370 895 q 116 517 245 623 l 15 586 q 179 752 119 659 q 253 972 239 844 l 69 972 l 62 1088 l 370 1088 m 664 1088 q 710 1042 710 1088 q 641 691 704 836 q 455 440 579 546 l 355 502 q 521 703 458 588 q 594 972 583 818 l 409 972 l 409 1088 l 664 1088 m 949 1134 l 949 880 l 1080 880 l 1080 1134 l 1196 1134 l 1196 448 l 1080 448 l 1080 764 l 949 764 l 949 448 l 833 448 l 833 1134 l 949 1134 m 262 -147 q 216 -100 216 -147 l 216 340 l 1196 340 l 1196 224 l 340 224 l 340 -31 l 1211 -31 l 1219 -147 l 262 -147 z "},"깰":{"ha":1273,"x_min":15,"x_max":1219,"o":"m 370 1088 q 308 784 370 910 q 116 563 245 657 l 15 633 q 177 780 117 698 q 252 972 238 863 l 69 972 l 62 1088 l 370 1088 m 664 1088 q 710 1042 710 1088 q 640 732 704 858 q 455 509 577 606 l 355 571 q 519 742 457 647 q 593 972 580 836 l 409 972 l 409 1088 l 664 1088 m 949 1134 l 949 918 l 1080 918 l 1080 1134 l 1196 1134 l 1196 517 l 1080 517 l 1080 802 l 949 802 l 949 517 l 833 517 l 833 1134 l 949 1134 m 1196 440 l 1196 93 l 340 93 l 340 -46 l 1211 -46 l 1219 -154 l 262 -154 q 216 -108 216 -154 l 216 193 l 1073 193 l 1073 332 l 216 332 l 216 440 l 1196 440 z "},"깱":{"ha":1250,"x_min":0,"x_max":0,"o":""},"깲":{"ha":1250,"x_min":0,"x_max":0,"o":""},"깳":{"ha":1250,"x_min":0,"x_max":0,"o":""},"깴":{"ha":1250,"x_min":0,"x_max":0,"o":""},"깵":{"ha":1250,"x_min":0,"x_max":0,"o":""},"깶":{"ha":1250,"x_min":0,"x_max":0,"o":""},"깷":{"ha":1250,"x_min":0,"x_max":0,"o":""},"깸":{"ha":1273,"x_min":15,"x_max":1196,"o":"m 370 1088 q 308 759 370 895 q 116 517 245 623 l 15 586 q 179 752 119 659 q 253 972 239 844 l 69 972 l 62 1088 l 370 1088 m 664 1088 q 710 1042 710 1088 q 641 691 704 836 q 455 440 579 546 l 355 502 q 521 703 458 588 q 594 972 583 818 l 409 972 l 409 1088 l 664 1088 m 949 1134 l 949 880 l 1080 880 l 1080 1134 l 1196 1134 l 1196 448 l 1080 448 l 1080 764 l 949 764 l 949 448 l 833 448 l 833 1134 l 949 1134 m 262 -147 q 216 -100 216 -147 l 216 340 l 1196 340 l 1196 -147 l 262 -147 m 340 -31 l 1073 -31 l 1073 224 l 340 224 l 340 -31 z "},"깹":{"ha":1273,"x_min":15,"x_max":1196,"o":"m 370 1088 q 308 759 370 895 q 116 517 245 623 l 15 586 q 179 752 119 659 q 253 972 239 844 l 69 972 l 62 1088 l 370 1088 m 664 1088 q 710 1042 710 1088 q 641 691 704 836 q 455 440 579 546 l 355 502 q 521 703 458 588 q 594 972 583 818 l 409 972 l 409 1088 l 664 1088 m 949 1134 l 949 880 l 1080 880 l 1080 1134 l 1196 1134 l 1196 448 l 1080 448 l 1080 764 l 949 764 l 949 448 l 833 448 l 833 1134 l 949 1134 m 340 370 l 340 224 l 1065 224 l 1065 370 l 1196 370 l 1196 -147 l 262 -147 q 216 -100 216 -147 l 216 370 l 340 370 m 1065 -31 l 1065 116 l 340 116 l 340 -31 l 1065 -31 z "},"깺":{"ha":1250,"x_min":0,"x_max":0,"o":""},"깻":{"ha":1273,"x_min":15,"x_max":1265,"o":"m 370 1088 q 307 717 370 875 q 116 448 244 559 l 15 517 q 182 711 120 600 q 255 972 244 823 l 69 972 l 62 1088 l 370 1088 m 664 1088 q 710 1042 710 1088 q 639 647 704 823 q 455 370 574 472 l 355 432 q 518 657 452 514 q 594 972 583 799 l 409 972 l 409 1088 l 664 1088 m 949 1134 l 949 872 l 1080 872 l 1080 1134 l 1196 1134 l 1196 332 l 1080 332 l 1080 756 l 949 756 l 949 417 l 833 417 l 833 1134 l 949 1134 m 779 363 l 779 301 q 932 76 779 164 q 1265 -54 1085 -12 l 1204 -162 q 926 -66 1066 -131 q 710 108 785 0 q 489 -72 630 -3 q 216 -170 349 -140 l 154 -62 q 373 9 261 -37 q 566 130 485 56 q 648 301 648 205 l 648 363 l 779 363 z "},"깼":{"ha":1273,"x_min":15,"x_max":1366,"o":"m 370 1088 q 304 749 370 889 q 116 494 238 610 l 15 563 q 176 740 114 645 q 253 972 238 835 l 69 972 l 62 1088 l 370 1088 m 664 1088 q 710 1042 710 1088 q 629 677 699 841 q 455 417 559 514 l 355 478 q 512 684 444 557 q 593 972 579 812 l 409 972 l 409 1088 l 664 1088 m 949 1134 l 949 872 l 1080 872 l 1080 1134 l 1196 1134 l 1196 409 l 1080 409 l 1080 756 l 949 756 l 949 409 l 833 409 l 833 1134 l 949 1134 m 93 -77 q 305 72 216 -15 q 394 278 394 159 l 394 355 l 517 355 l 517 278 q 730 -28 517 113 q 886 109 823 32 q 949 278 949 185 l 949 355 l 1073 355 l 1073 278 q 1366 -69 1073 77 l 1281 -162 q 1008 83 1085 -45 q 878 -65 955 0 q 733 -170 801 -130 q 457 83 543 -54 q 177 -170 375 -59 l 93 -77 z "},"깽":{"ha":1273,"x_min":15,"x_max":1204,"o":"m 370 1088 q 304 749 370 889 q 116 494 238 610 l 15 563 q 176 740 114 645 q 253 972 238 835 l 69 972 l 62 1088 l 370 1088 m 664 1088 q 710 1042 710 1088 q 629 677 699 841 q 455 417 559 514 l 355 478 q 512 684 444 557 q 593 972 579 812 l 409 972 l 409 1088 l 664 1088 m 949 1134 l 949 872 l 1080 872 l 1080 1134 l 1196 1134 l 1196 417 l 1080 417 l 1080 756 l 949 756 l 949 448 l 833 448 l 833 1134 l 949 1134 m 694 -170 q 329 -102 457 -170 q 201 93 201 -34 q 329 292 201 221 q 694 363 458 363 q 1070 292 937 363 q 1204 93 1204 221 q 1071 -102 1204 -34 q 694 -170 938 -170 m 694 -54 q 973 -15 873 -54 q 1073 93 1073 23 q 972 205 1073 164 q 694 247 872 247 q 427 205 523 247 q 332 93 332 164 q 427 -15 332 23 q 694 -54 522 -54 z "},"깾":{"ha":1250,"x_min":0,"x_max":0,"o":""},"깿":{"ha":1250,"x_min":0,"x_max":0,"o":""},"꺀":{"ha":1250,"x_min":0,"x_max":0,"o":""},"꺁":{"ha":1250,"x_min":0,"x_max":0,"o":""},"꺂":{"ha":1250,"x_min":0,"x_max":0,"o":""},"꺃":{"ha":1250,"x_min":0,"x_max":0,"o":""},"꺄":{"ha":1273,"x_min":39,"x_max":1296,"o":"m 448 1034 q 367 501 448 730 q 147 93 287 272 l 39 154 q 242 495 165 310 q 330 918 318 681 l 100 918 l 93 1034 l 448 1034 m 779 1034 q 826 988 826 1034 q 743 425 819 682 q 532 0 667 168 l 424 69 q 620 444 545 222 q 702 918 696 665 l 494 918 l 494 1034 l 779 1034 m 1119 1134 l 1119 833 l 1296 833 l 1296 710 l 1119 710 l 1119 448 l 1296 448 l 1296 324 l 1119 324 l 1119 -147 l 995 -147 l 995 1134 l 1119 1134 z "},"꺅":{"ha":1273,"x_min":39,"x_max":1304,"o":"m 448 1088 q 139 486 448 687 l 39 563 q 321 972 289 707 l 100 972 l 93 1088 l 448 1088 m 779 1088 q 818 1042 818 1083 q 730 672 807 835 q 525 417 653 509 l 424 486 q 603 687 529 559 q 693 972 677 815 l 486 972 l 486 1088 l 779 1088 m 1119 1134 l 1119 972 l 1304 972 l 1304 856 l 1119 856 l 1119 718 l 1304 718 l 1304 602 l 1119 602 l 1119 409 l 995 409 l 995 1134 l 1119 1134 m 1119 -162 l 995 -162 l 995 185 l 170 185 l 170 301 l 1119 301 l 1119 -162 z "},"꺆":{"ha":1273,"x_min":39,"x_max":1304,"o":"m 448 1088 q 139 486 448 687 l 39 563 q 321 972 289 707 l 100 972 l 93 1088 l 448 1088 m 779 1088 q 818 1042 818 1083 q 730 672 807 835 q 525 417 653 509 l 424 486 q 603 687 529 559 q 693 972 677 815 l 486 972 l 486 1088 l 779 1088 m 1119 1134 l 1119 972 l 1304 972 l 1304 856 l 1119 856 l 1119 718 l 1304 718 l 1304 602 l 1119 602 l 1119 409 l 995 409 l 995 1134 l 1119 1134 m 602 -162 l 478 -162 l 478 185 l 139 185 l 139 301 l 602 301 l 602 -162 m 1119 -162 l 995 -162 l 995 185 l 664 185 l 664 301 l 1119 301 l 1119 -162 z "},"꺇":{"ha":1250,"x_min":0,"x_max":0,"o":""},"꺈":{"ha":1250,"x_min":0,"x_max":0,"o":""},"꺉":{"ha":1250,"x_min":0,"x_max":0,"o":""},"꺊":{"ha":1250,"x_min":0,"x_max":0,"o":""},"꺋":{"ha":1250,"x_min":0,"x_max":0,"o":""},"꺌":{"ha":1273,"x_min":39,"x_max":1304,"o":"m 448 1088 q 366 783 448 898 q 139 579 284 668 l 39 656 q 224 787 151 715 q 318 972 296 860 l 100 972 l 93 1088 l 448 1088 m 772 1088 q 818 1042 818 1088 q 733 739 807 864 q 525 517 659 614 l 424 594 q 603 761 534 671 q 690 972 673 850 l 486 972 l 486 1088 l 772 1088 m 1119 1134 l 1119 1003 l 1304 1003 l 1304 895 l 1119 895 l 1119 772 l 1304 772 l 1304 664 l 1119 664 l 1119 517 l 995 517 l 995 1134 l 1119 1134 m 1119 440 l 1119 93 l 316 93 l 316 -46 l 1134 -46 l 1142 -154 l 239 -154 q 193 -108 193 -154 l 193 193 l 995 193 l 995 332 l 193 332 l 193 440 l 1119 440 z "},"꺍":{"ha":1273,"x_min":39,"x_max":1304,"o":"m 448 1088 q 366 783 448 898 q 139 579 284 668 l 39 656 q 224 787 151 715 q 318 972 296 860 l 100 972 l 93 1088 l 448 1088 m 772 1088 q 818 1042 818 1088 q 733 739 807 864 q 525 517 659 614 l 424 594 q 603 761 534 671 q 690 972 673 850 l 486 972 l 486 1088 l 772 1088 m 1119 1134 l 1119 1003 l 1304 1003 l 1304 895 l 1119 895 l 1119 772 l 1304 772 l 1304 664 l 1119 664 l 1119 517 l 995 517 l 995 1134 l 1119 1134 m 147 440 l 617 440 l 617 93 l 262 93 l 262 -45 q 748 -8 566 -40 l 764 -108 q 193 -154 559 -151 q 147 -108 147 -154 l 147 201 l 502 201 l 502 332 l 147 332 l 147 440 m 1119 -170 l 995 -170 l 995 316 l 687 316 l 687 440 l 1119 440 l 1119 -170 z "},"꺎":{"ha":1250,"x_min":0,"x_max":0,"o":""},"꺏":{"ha":1250,"x_min":0,"x_max":0,"o":""},"꺐":{"ha":1250,"x_min":0,"x_max":0,"o":""},"꺑":{"ha":1250,"x_min":0,"x_max":0,"o":""},"꺒":{"ha":1250,"x_min":0,"x_max":0,"o":""},"꺓":{"ha":1250,"x_min":0,"x_max":0,"o":""},"꺔":{"ha":1250,"x_min":0,"x_max":0,"o":""},"꺕":{"ha":1250,"x_min":0,"x_max":0,"o":""},"꺖":{"ha":1250,"x_min":0,"x_max":0,"o":""},"꺗":{"ha":1250,"x_min":0,"x_max":0,"o":""},"꺘":{"ha":1250,"x_min":0,"x_max":0,"o":""},"꺙":{"ha":1250,"x_min":0,"x_max":0,"o":""}}}
